<svg xmlns="http://www.w3.org/2000/svg" xmlns:xlink="http://www.w3.org/1999/xlink" width="228.319" height="116.105" viewBox="0 0 171.239 87.079"><g data-name="Artifact"><path d="M-397.937 529.784h960v-540h-960z" fill="#fff" data-name="背景"/></g><g data-name="Figure"><path d="M1.563 1.284h169.5v82.5H1.563z" fill="#b6c2d4" fill-rule="evenodd"/><path stroke-miterlimit="8" fill="none" stroke="#767171" d="M1.563 1.284h169.5v82.5H1.563z"/></g><symbol id="a"><path d="M.405.188A.39.39 0 0 1 .513.062.262.262 0 0 1 .645.016V0a.618.618 0 0 0-.29.096.703.703 0 0 0-.118.092.47.47 0 0 0-.112.06.33.33 0 0 0-.125.28c0 .1.032.181.096.247a.314.314 0 0 0 .458 0A.342.342 0 0 0 .649.525.35.35 0 0 0 .405.188M.323.835A.179.179 0 0 1 .18.772C.135.719.112.638.112.528c0-.107.023-.19.07-.247A.173.173 0 0 1 .322.214c.061 0 .11.022.148.067.044.052.066.13.066.233a.49.49 0 0 1-.036.2.186.186 0 0 1-.178.122z"/></symbol><symbol id="b"><path d="M.422.46V.19c0-.052.002-.084.004-.095C.428.083.432.075.438.07A.03.03 0 0 1 .457.064c.01 0 .021.003.034.008L.498.055.364 0H.342v.095A.407.407 0 0 0 .254.016.134.134 0 0 0 .19 0a.104.104 0 0 0-.065.021.114.114 0 0 0-.039.057.338.338 0 0 0-.01.096v.2a.098.098 0 0 1-.007.044.044.044 0 0 1-.02.019A.113.113 0 0 1 0 .443V.46h.157v-.3C.157.12.164.094.178.08A.077.077 0 0 1 .231.06c.014 0 .03.004.047.013.018.009.04.026.064.05v.254c0 .025-.005.042-.014.051C.318.438.299.442.27.443V.46h.152z"/></symbol><symbol id="c"><path d="M.07.292A.23.23 0 0 1 .117.136.147.147 0 0 1 .232.08c.03 0 .055.008.077.024a.18.18 0 0 1 .054.083l.015-.01a.234.234 0 0 0-.06-.122A.16.16 0 0 0 .196 0c-.053 0-.1.02-.138.063A.242.242 0 0 0 0 .23c0 .077.02.137.059.18.039.042.088.064.148.064.05 0 .09-.017.123-.05A.18.18 0 0 0 .378.292H.07m0 .029h.207a.191.191 0 0 1-.01.06.096.096 0 0 1-.037.043.09.09 0 0 1-.05.016.101.101 0 0 1-.073-.032A.136.136 0 0 1 .07.321z"/></symbol><symbol id="d"><path d="M.271.474V.322H.255C.243.37.227.402.208.419a.106.106 0 0 1-.074.026.082.082 0 0 1-.055-.018C.065.415.058.402.058.387.058.37.063.353.073.34A.174.174 0 0 1 .135.298L.206.263c.066-.032.1-.075.1-.127A.12.12 0 0 0 .258.037.16.16 0 0 0 .156 0a.355.355 0 0 0-.094.015.095.095 0 0 1-.026.005C.028.02.022.015.018.007H.002v.16h.016A.182.182 0 0 1 .07.063.126.126 0 0 1 .157.03c.022 0 .04.006.054.02.015.013.022.029.022.047a.075.075 0 0 1-.024.057.407.407 0 0 1-.094.058.28.28 0 0 0-.093.063.11.11 0 0 0-.022.07c0 .038.013.068.038.093a.135.135 0 0 0 .098.037A.23.23 0 0 0 .2.463.151.151 0 0 1 .233.456a.02.02 0 0 1 .012.003.047.047 0 0 1 .01.015h.016z"/></symbol><symbol id="e"><path d="M.151.602V.455h.105V.42H.15V.13c0-.029.004-.048.013-.058A.04.04 0 0 1 .196.057c.01 0 .021.003.031.01.01.006.018.016.023.03h.02A.155.155 0 0 0 .22.023.105.105 0 0 0 .157 0a.088.088 0 0 0-.044.012.077.077 0 0 0-.032.036.19.19 0 0 0-.01.072v.3H0v.017c.018.007.036.019.055.036a.29.29 0 0 1 .081.129h.015z"/></symbol><symbol id="f"><path d="M.116.694A.046.046 0 0 0 .15.68.046.046 0 0 0 .165.645.048.048 0 0 0 .15.61.046.046 0 0 0 .116.595.048.048 0 0 0 .08.61a.048.048 0 0 0-.015.035C.066.659.07.67.08.68c.01.01.022.014.036.014M.156.46V.101c0-.028.002-.047.006-.056A.045.045 0 0 1 .18.025.098.098 0 0 1 .224.017V0H.007v.018C.029.018.043.02.05.024a.042.042 0 0 1 .017.02c.005.01.007.03.007.057v.172a.61.61 0 0 1-.004.095C.069.378.065.385.06.389A.03.03 0 0 1 .04.396.098.098 0 0 1 .007.388L0 .406.135.46h.021z"/></symbol><symbol id="g"><path d="M.216.474A.198.198 0 0 0 .38.397.237.237 0 0 0 .432.246c0-.04-.01-.081-.03-.122A.21.21 0 0 0 .324.031.208.208 0 0 0 .211 0a.19.19 0 0 0-.16.08A.25.25 0 0 0 0 .234c0 .04.01.082.03.122a.208.208 0 0 0 .186.12M.201.441A.102.102 0 0 1 .15.427.107.107 0 0 1 .107.373a.26.26 0 0 1-.016-.1C.09.21.104.154.129.106.155.058.19.035.232.035.264.035.29.048.31.074.33.1.34.144.34.208.34.288.325.35.29.396A.106.106 0 0 1 .2.442z"/></symbol><symbol id="h"><path d="M.156.366C.208.429.258.46.306.46A.107.107 0 0 0 .369.442.121.121 0 0 0 .41.382c.007-.02.01-.05.01-.09v-.19A.16.16 0 0 1 .428.042.04.04 0 0 1 .445.024.1.1 0 0 1 .49.018V0H.269v.018h.009c.02 0 .035.003.043.009A.05.05 0 0 1 .34.055C.34.06.34.075.34.101v.183c0 .04-.006.07-.016.089C.315.39.297.4.27.4.233.4.194.38.156.337V.1c0-.03.002-.049.005-.056A.047.047 0 0 1 .18.024.122.122 0 0 1 .229.018V0H.007v.018h.01c.023 0 .038.005.046.017C.071.046.075.069.075.1v.166a.677.677 0 0 1-.004.098C.07.377.065.385.061.39A.03.03 0 0 1 .04.396.094.094 0 0 1 .007.388L0 .406.135.46h.02V.366z"/></symbol><symbol id="i"><path d="M.055.475A.051.051 0 0 0 .093.458.051.051 0 0 0 .11.42.053.053 0 0 0 .093.382.052.052 0 0 0 .055.366.053.053 0 0 0 .001.42c0 .015.005.028.016.038.01.011.023.017.038.017m0-.366A.052.052 0 0 0 .092.093.053.053 0 0 0 .109.054.053.053 0 0 0 .093.016.053.053 0 0 0 .054 0 .053.053 0 0 0 0 .054C0 .07.005.082.016.093c.01.01.023.016.038.016z"/></symbol><symbol id="j"><path d="M0 0z"/></symbol><symbol id="k"><path d="M.923.677V.66A.084.084 0 0 1 .88.65.091.091 0 0 1 .85.616.566.566 0 0 1 .818.534L.635 0h-.02l-.15.423L.314 0H.296L.1.55a.92.92 0 0 1-.028.073.062.062 0 0 1-.027.027A.094.094 0 0 1 0 .66v.017h.245V.66H.233C.216.66.203.655.193.647A.036.036 0 0 1 .18.62C.18.608.187.582.202.541l.13-.372.11.316-.02.056-.015.044a.242.242 0 0 1-.023.043.06.06 0 0 1-.016.016.088.088 0 0 1-.024.012.106.106 0 0 1-.03.003v.018h.258V.66H.555C.536.66.523.655.515.647A.041.041 0 0 1 .502.616C.502.599.509.57.524.529L.65.169l.126.365c.014.04.021.068.021.084a.034.034 0 0 1-.007.02.036.036 0 0 1-.018.014.142.142 0 0 1-.048.007v.018h.198z"/></symbol><symbol id="l"><path d="M.156.694V.367a.37.37 0 0 0 .086.076.133.133 0 0 0 .064.017A.104.104 0 0 0 .37.44a.124.124 0 0 0 .04-.066.467.467 0 0 0 .01-.115V.101C.42.073.423.053.428.043A.038.038 0 0 1 .444.024.094.094 0 0 1 .487.018V0h-.22v.018h.01C.3.018.314.02.322.027a.052.052 0 0 1 .017.028C.34.06.34.075.34.101V.26C.34.31.337.34.332.355a.062.062 0 0 1-.064.046.113.113 0 0 1-.05-.012.238.238 0 0 1-.062-.052V.101c0-.03.002-.05.005-.057a.045.045 0 0 1 .02-.02.114.114 0 0 1 .048-.006V0H.007v.018c.02 0 .035.003.047.009.006.003.011.01.015.018.004.01.006.028.006.056v.405A.633.633 0 0 1 .071.6C.07.612.065.62.061.624A.03.03 0 0 1 .04.63.12.12 0 0 1 .007.623L0 .64l.134.054h.022z"/></symbol><symbol id="m"><path d="M.377.184a.244.244 0 0 0-.07-.137A.17.17 0 0 0 .188 0a.172.172 0 0 0-.132.064A.251.251 0 0 0 0 .237c0 .07.02.127.063.171a.201.201 0 0 0 .15.066C.257.474.293.462.322.44.35.416.364.392.364.367a.04.04 0 0 0-.012-.03A.046.046 0 0 0 .32.324c-.02 0-.034.006-.044.019C.27.35.266.364.265.383a.063.063 0 0 1-.02.044.07.07 0 0 1-.048.014A.097.097 0 0 1 .12.405.192.192 0 0 1 .079.28c0-.054.013-.1.04-.142a.121.121 0 0 1 .106-.06c.032 0 .06.01.086.032A.22.22 0 0 1 .363.19L.377.184z"/></symbol><symbol id="n"><path d="M.002.617.14.672H.16V.568c.023.04.046.067.069.082a.13.13 0 0 0 .074.024.142.142 0 0 0 .112-.052A.25.25 0 0 0 .47.454.28.28 0 0 0 .403.262.176.176 0 0 0 .265.2a.172.172 0 0 0-.062.01.146.146 0 0 0-.044.03V.104c0-.031.001-.05.005-.059a.043.043 0 0 1 .02-.02.122.122 0 0 1 .05-.007V0H0v.018h.012c.018 0 .033.003.046.01.006.004.011.01.014.018a.196.196 0 0 1 .006.06V.53a.23.23 0 0 1-.004.055.033.033 0 0 1-.013.018.04.04 0 0 1-.023.006A.088.088 0 0 1 .008.6L.002.617M.16.539V.372c0-.036.001-.06.004-.071A.092.092 0 0 1 .196.25.104.104 0 0 1 .264.229c.032 0 .059.013.079.039a.22.22 0 0 1 .04.14c0 .068-.016.12-.046.157a.093.093 0 0 1-.12.027.272.272 0 0 1-.058-.053z"/></symbol><symbol id="o"><path d="M.249.074A.737.737 0 0 0 .163.012.132.132 0 0 0 .106 0C.076 0 .05.01.03.032A.117.117 0 0 0 0 .115c0 .022.005.04.015.057a.194.194 0 0 0 .069.062c.033.02.088.044.165.072v.017c0 .045-.007.075-.021.092C.214.432.193.44.166.44A.07.07 0 0 1 .117.423.05.05 0 0 1 .1.385V.357C.1.342.097.33.089.322A.039.039 0 0 0 .058.31a.039.039 0 0 0-.03.013.05.05 0 0 0-.01.034c0 .028.013.054.042.078A.186.186 0 0 0 .18.47.21.21 0 0 0 .279.45.092.092 0 0 0 .321.402.267.267 0 0 0 .33.316V.165c0-.043 0-.07.002-.08C.334.077.336.07.34.068A.02.02 0 0 1 .353.062c.005 0 .01.001.014.003l.04.036V.074C.37.024.334 0 .301 0a.047.047 0 0 0-.038.017C.254.028.249.047.249.074m0 .031v.17a.964.964 0 0 1-.095-.04.164.164 0 0 1-.055-.046.087.087 0 0 1-.017-.05c0-.024.007-.044.021-.06A.064.064 0 0 1 .151.058C.176.057.21.073.25.105z"/></symbol><symbol id="p"><path d="M.155.694V.101c0-.028.002-.046.006-.056a.046.046 0 0 1 .02-.02.112.112 0 0 1 .047-.007V0h-.22v.018c.02 0 .035.002.042.006a.042.042 0 0 1 .018.02c.004.01.006.03.006.057v.406c0 .05 0 .082-.003.093C.069.612.065.62.06.624A.028.028 0 0 1 .04.63.091.091 0 0 1 .009.623L0 .64l.133.054h.022z"/></symbol><symbol id="q"><path d="M0 .663h.208V.645h-.01C.184.645.173.642.165.635a.03.03 0 0 1-.01-.023C.154.599.16.582.17.559L.28.333l.1.248a.103.103 0 0 1 .008.04c0 .005-.001.01-.004.012a.025.025 0 0 1-.012.009.086.086 0 0 1-.03.003v.018h.146V.645A.07.07 0 0 1 .46.637.08.08 0 0 1 .44.615.305.305 0 0 1 .422.578L.24.13A.23.23 0 0 0 .17.033.135.135 0 0 0 .09 0a.068.068 0 0 0-.047.017.05.05 0 0 0-.02.038c0 .013.005.024.014.033C.046.096.058.1.073.1.084.1.1.097.117.09A.105.105 0 0 1 .142.081c.01 0 .02.005.031.015.012.01.024.03.035.059L.24.233.08.571a.27.27 0 0 1-.044.06A.11.11 0 0 1 0 .645v.018z"/></symbol><symbol id="r"><path d="M.4.137.395 0H0v.018l.297.395H.15A.19.19 0 0 1 .088.407.048.048 0 0 1 .064.384.143.143 0 0 1 .05.324H.03l.004.123h.375V.43l-.3-.396H.27c.034 0 .057.002.07.008a.065.065 0 0 1 .03.03c.004.01.009.033.012.066H.4z"/></symbol><symbol id="s"><path d="M.156.46v-.1c.037.067.076.1.115.1A.062.062 0 0 0 .315.444.05.05 0 0 0 .333.406.045.045 0 0 0 .32.374.04.04 0 0 0 .29.361C.279.36.266.366.251.377.237.39.227.395.221.395.213.395.207.39.2.385A.235.235 0 0 1 .156.319V.104C.156.08.159.061.165.048A.05.05 0 0 1 .187.026.099.099 0 0 1 .234.018V0h-.23v.018c.024 0 .04.003.052.01a.042.042 0 0 1 .017.025.251.251 0 0 1 .002.048v.173a.663.663 0 0 1-.003.093.035.035 0 0 1-.012.022.032.032 0 0 1-.02.007.097.097 0 0 1-.035-.008L0 .406.135.46h.02z"/></symbol><symbol id="t"><path d="M.314.064A.23.23 0 0 0 .25.014.157.157 0 0 0 .183 0a.167.167 0 0 0-.128.061A.229.229 0 0 0 0 .219C0 .283.02.34.06.395c.04.053.093.08.156.08.04 0 .072-.013.098-.038V.52A.633.633 0 0 1 .31.614C.308.625.304.634.3.638a.03.03 0 0 1-.02.006.103.103 0 0 1-.033-.008L.239.653l.134.055h.022V.191c0-.052 0-.085.003-.096C.4.083.404.075.41.07A.03.03 0 0 1 .429.064c.009 0 .02.003.035.008L.469.055.336 0H.314v.064m0 .034v.23A.156.156 0 0 1 .296.39.1.1 0 0 1 .257.43.092.092 0 0 1 .21.444.1.1 0 0 1 .134.406C.104.372.089.322.089.257.09.192.104.141.132.106.161.071.192.054.228.054c.03 0 .058.015.086.044z"/></symbol><symbol id="u"><path d="M0 .46h.188V.444C.17.442.158.438.152.433.148.43.146.423.146.414c0-.01.002-.023.008-.037L.25.119l.096.21L.32.393a.079.079 0 0 1-.03.04.09.09 0 0 1-.04.009V.46h.212V.443C.44.442.422.438.412.43.407.425.403.417.403.405.403.4.405.392.408.385L.508.128l.095.248a.13.13 0 0 1 .01.042c0 .006-.004.012-.01.017C.596.439.584.442.565.443V.46h.142V.443C.678.439.657.419.644.385L.494 0h-.02L.364.286.233 0H.213L.071.376a.132.132 0 0 1-.028.048A.091.091 0 0 1 0 .443V.46z"/></symbol><symbol id="v"><path d="M.215 0H0v.875h.215V.837H.073V.038h.142V0z"/></symbol><symbol id="w"><path d="M.156.365c.032.033.052.052.057.056.015.013.03.022.048.03.017.006.033.01.05.01A.112.112 0 0 0 .383.435a.12.12 0 0 0 .04-.07C.458.403.487.43.51.441A.15.15 0 0 0 .58.46.11.11 0 0 0 .643.442a.12.12 0 0 0 .044-.06.27.27 0 0 0 .01-.089V.101C.698.073.7.054.705.043A.043.043 0 0 1 .722.025.093.093 0 0 1 .765.018V0h-.22v.018h.009c.019 0 .034.003.045.01a.044.044 0 0 1 .016.026A.313.313 0 0 1 .617.1v.192a.163.163 0 0 1-.013.078C.59.39.57.4.542.4A.116.116 0 0 1 .49.39.278.278 0 0 1 .427.34V.1c0-.03.002-.05.005-.057a.044.044 0 0 1 .02-.02A.114.114 0 0 1 .5.019V0H.274v.018c.025 0 .042.003.05.008.01.006.017.015.02.027A.26.26 0 0 1 .347.1v.192C.347.33.34.356.33.373a.069.069 0 0 1-.06.03A.108.108 0 0 1 .218.39.201.201 0 0 1 .156.341V.1c0-.03.002-.048.006-.057A.045.045 0 0 1 .18.024.122.122 0 0 1 .229.018V0H.007v.018c.02 0 .035.002.043.006a.044.044 0 0 1 .019.02c.004.01.006.03.006.057v.171a.62.62 0 0 1-.004.095C.069.377.065.385.06.39A.03.03 0 0 1 .04.396.094.094 0 0 1 .007.388L0 .406.135.46h.02V.365z"/></symbol><symbol id="x"><path d="M.121.379a.148.148 0 0 0-.085.135c0 .044.017.083.05.114a.179.179 0 0 0 .128.048c.043 0 .08-.01.111-.031H.42L.444.644A.007.007 0 0 0 .45.64C.451.637.452.632.452.624S.452.61.45.606A.01.01 0 0 0 .444.603.104.104 0 0 0 .42.6H.362a.142.142 0 0 0 .027-.09.14.14 0 0 0-.048-.107A.181.181 0 0 0 .213.36a.25.25 0 0 0-.068.01.131.131 0 0 1-.03-.033.052.052 0 0 1-.007-.024c0-.005.003-.01.008-.016C.122.292.132.288.148.287A.841.841 0 0 1 .216.282C.283.28.326.279.346.276A.121.121 0 0 0 .42.242.092.092 0 0 0 .446.175C.446.138.43.104.395.07A.28.28 0 0 0 .195 0a.285.285 0 0 0-.158.042C.012.06 0 .076 0 .093 0 .101.002.11.005.117a.273.273 0 0 0 .035.05L.09.22a.166.166 0 0 0-.037.027.041.041 0 0 0-.01.027c0 .011.005.025.014.04.01.015.03.037.064.065m.085.274a.076.076 0 0 1-.06-.029C.129.604.12.575.12.536a.19.19 0 0 1 .033-.12A.079.079 0 0 1 .22.384c.024 0 .045.01.06.028.017.018.025.047.025.087A.196.196 0 0 1 .27.621a.077.077 0 0 1-.064.032M.116.216A.24.24 0 0 1 .082.169.084.084 0 0 1 .07.13C.07.115.08.102.098.09A.27.27 0 0 1 .24.059c.059 0 .102.01.13.03C.397.11.41.133.41.157.41.173.402.185.386.192a.326.326 0 0 1-.1.013C.211.207.155.21.115.215z"/></symbol><symbol id="y"><path d="m0 .597.161.079h.016v-.56C.177.08.18.057.182.048a.037.037 0 0 1 .02-.02A.164.164 0 0 1 .26.017V0H.01v.018c.032 0 .052.003.061.008.01.005.016.011.02.019a.262.262 0 0 1 .005.072v.357c0 .048-.002.08-.005.093A.038.038 0 0 1 .079.59a.032.032 0 0 1-.021.007.13.13 0 0 1-.05-.015L0 .597z"/></symbol><symbol id="z"><path d="M0 .876h.215V0H0v.039h.142v.798H0v.039z"/></symbol><symbol id="A"><path d="M0 0v.021C.034.033.06.05.078.073a.116.116 0 0 1 .027.074.027.027 0 0 1-.004.016C.1.166.097.167.094.167a.071.071 0 0 1-.023-.01.04.04 0 0 0-.019-.004.051.051 0 0 0-.038.014.053.053 0 0 0-.014.04c0 .015.006.029.018.04a.064.064 0 0 0 .045.017c.021 0 .04-.01.057-.028A.106.106 0 0 0 .146.162.144.144 0 0 0 .11.068.228.228 0 0 0 0 0z"/></symbol><symbol id="B"><path d="M.437.127.391 0H0v.018c.115.105.196.19.243.257.047.066.07.127.07.182a.144.144 0 0 1-.039.104.123.123 0 0 1-.092.04.144.144 0 0 1-.088-.029A.165.165 0 0 1 .037.49H.02c.008.06.029.106.063.138a.176.176 0 0 0 .126.049.186.186 0 0 0 .134-.052.163.163 0 0 0 .054-.122.236.236 0 0 0-.023-.1.663.663 0 0 0-.117-.168 3.477 3.477 0 0 0-.152-.16h.173c.035 0 .06.001.074.004a.099.099 0 0 1 .038.015c.012.008.021.02.03.034h.018z"/></symbol><symbol id="C"><path d="M.01.548A.268.268 0 0 0 .082.65a.162.162 0 0 0 .107.036.149.149 0 0 0 .123-.051.127.127 0 0 0 .032-.083c0-.048-.03-.098-.091-.15A.197.197 0 0 0 .345.336.177.177 0 0 0 .376.231.22.22 0 0 0 .322.082C.274.027.205 0 .115 0 .071 0 .04.006.024.017.008.027 0 .04 0 .052c0 .01.004.018.011.025a.04.04 0 0 0 .028.01.084.084 0 0 0 .025-.003.285.285 0 0 0 .038-.018.245.245 0 0 1 .04-.018.135.135 0 0 1 .039-.006c.033 0 .062.013.086.04a.127.127 0 0 1 .037.09A.176.176 0 0 1 .26.29a.199.199 0 0 1-.057.035.184.184 0 0 1-.075.016H.111v.015a.2.2 0 0 1 .077.028.147.147 0 0 1 .057.055.145.145 0 0 1 .018.07.108.108 0 0 1-.11.113C.103.621.06.594.026.54L.01.548z"/></symbol><symbol id="D"><path d="M.45.244v-.07H.36V0H.28v.175H0v.062l.307.439h.054V.244H.45m-.17 0v.329L.048.244H.28z"/></symbol><symbol id="E"><path d="M.156.384c.044.06.09.09.14.09.046 0 .086-.02.12-.059a.236.236 0 0 0 .052-.16.248.248 0 0 0-.08-.193.218.218 0 0 0-.23-.048.366.366 0 0 0-.082.043V.52c0 .05-.002.082-.004.094C.069.625.066.634.06.638a.03.03 0 0 1-.02.006.1.1 0 0 1-.034-.008L0 .653l.134.055h.022V.384m0-.031V.085A.194.194 0 0 1 .208.048.13.13 0 0 1 .262.036c.03 0 .057.016.083.048.025.033.038.08.038.143a.2.2 0 0 1-.038.131C.319.39.29.405.258.405A.113.113 0 0 1 .206.392a.224.224 0 0 1-.05-.04z"/></symbol><symbol id="F"><path d="M.177.17h-.02A.46.46 0 0 0 .172.27a.7.7 0 0 0 .05.112C.242.42.254.448.26.468c.006.02.009.04.009.06a.141.141 0 0 1-.034.098.104.104 0 0 1-.08.037.102.102 0 0 1-.067-.02C.072.63.063.615.063.6c0-.012.005-.027.015-.045a.094.094 0 0 0 .015-.04.042.042 0 0 0-.011-.03.036.036 0 0 0-.028-.011C.041.474.028.48.017.494A.088.088 0 0 0 0 .55c0 .037.016.07.047.098A.185.185 0 0 0 .176.69C.243.69.292.67.324.632A.147.147 0 0 0 .359.537.185.185 0 0 0 .343.463a.344.344 0 0 0-.06-.088.632.632 0 0 1-.087-.114.255.255 0 0 1-.02-.092M.17.11A.052.052 0 0 0 .208.093.052.052 0 0 0 .225.054.053.053 0 0 0 .208.016.053.053 0 0 0 .17 0a.053.053 0 0 0-.054.054C.116.07.12.082.13.093c.011.01.024.016.039.016z"/></symbol><symbol id="G"><path d="M.45.222H.193L.148.117A.165.165 0 0 1 .132.06c0-.01.005-.02.014-.027C.156.025.176.02.208.018V0H0v.018c.028.005.046.011.054.02a.3.3 0 0 1 .055.094l.233.545h.017l.23-.55A.258.258 0 0 1 .64.04.105.105 0 0 1 .704.018V0H.442v.018C.468.02.486.024.495.031.505.04.51.048.51.06a.202.202 0 0 1-.02.067L.45.222M.437.258.324.525.208.258h.228z"/></symbol><symbol id="H"><path d="M.167.412V.118C.167.076.172.05.181.04A.06.06 0 0 1 .23.018H.27V0H.003v.018h.02c.013 0 .025.003.036.01A.05.05 0 0 1 .08.053a.213.213 0 0 1 .006.064v.294H0v.035h.087v.03c0 .044.007.082.021.113a.18.18 0 0 0 .165.104A.15.15 0 0 0 .368.66C.387.646.396.63.396.61A.04.04 0 0 0 .383.584.038.038 0 0 0 .356.57a.046.046 0 0 0-.024.008.138.138 0 0 0-.03.035.122.122 0 0 1-.033.036.063.063 0 0 1-.034.01.06.06 0 0 1-.038-.013.066.066 0 0 1-.023-.037.692.692 0 0 1-.007-.13V.447h.116V.412H.167z"/></symbol><symbol id="I"><path d="M.445.338A.212.212 0 0 0 .548.29a.146.146 0 0 0 .048-.11.165.165 0 0 0-.032-.095A.18.18 0 0 0 .48.021.5.5 0 0 0 .313 0H0v.018h.025c.028 0 .047.009.06.026.007.012.01.036.01.073v.428c0 .04-.004.067-.013.078C.069.637.05.644.025.644H0v.018h.286A.565.565 0 0 0 .415.65.205.205 0 0 0 .526.588.152.152 0 0 0 .535.396a.178.178 0 0 0-.09-.058M.19.364A.409.409 0 0 1 .282.357c.047 0 .083.005.107.016.024.01.042.026.055.047a.132.132 0 0 1 .019.07.127.127 0 0 1-.047.098C.384.616.338.63.277.63A.332.332 0 0 1 .19.62V.364m0-.316A.492.492 0 0 1 .301.035c.06 0 .104.013.135.04C.467.1.482.133.482.172c0 .026-.007.05-.02.074a.14.14 0 0 1-.069.056.295.295 0 0 1-.117.02A1.165 1.165 0 0 1 .189.32V.048z"/></symbol><use xlink:href="#a" transform="matrix(9 0 0 -9 8.89 25.896)"/><use xlink:href="#b" transform="matrix(9 0 0 -9 15.08 24.257)"/><use xlink:href="#c" transform="matrix(9 0 0 -9 19.906 24.257)"/><use xlink:href="#d" transform="matrix(9 0 0 -9 24.008 24.257)"/><use xlink:href="#e" transform="matrix(9 0 0 -9 27.157 24.2)"/><use xlink:href="#f" transform="matrix(9 0 0 -9 29.835 24.134)"/><use xlink:href="#g" transform="matrix(9 0 0 -9 31.875 24.257)"/><use xlink:href="#h" transform="matrix(9 0 0 -9 36.125 24.134)"/><use xlink:href="#i" transform="matrix(9 0 0 -9 41.345 24.257)"/><use xlink:href="#j" transform="matrix(9 0 0 -9 42.572 24.134)"/><use xlink:href="#k" transform="matrix(9 0 0 -9 46.19 24.27)"/><use xlink:href="#l" transform="matrix(9 0 0 -9 54.625 24.134)"/><use xlink:href="#f" transform="matrix(9 0 0 -9 59.331 24.134)"/><use xlink:href="#m" transform="matrix(9 0 0 -9 61.375 24.257)"/><use xlink:href="#l" transform="matrix(9 0 0 -9 65.12 24.134)"/><use xlink:href="#j" transform="matrix(9 0 0 -9 69.564 24.134)"/><use xlink:href="#n" transform="matrix(9 0 0 -9 72.035 26.059)"/><use xlink:href="#g" transform="matrix(9 0 0 -9 76.869 24.257)"/><use xlink:href="#e" transform="matrix(9 0 0 -9 81.153 24.2)"/><use xlink:href="#c" transform="matrix(9 0 0 -9 83.902 24.257)"/><use xlink:href="#h" transform="matrix(9 0 0 -9 87.616 24.134)"/><use xlink:href="#e" transform="matrix(9 0 0 -9 92.151 24.2)"/><use xlink:href="#f" transform="matrix(9 0 0 -9 94.83 24.134)"/><use xlink:href="#o" transform="matrix(9 0 0 -9 96.886 24.217)"/><use xlink:href="#p" transform="matrix(9 0 0 -9 100.83 24.134)"/><use xlink:href="#p" transform="matrix(9 0 0 -9 102.83 24.134)"/><use xlink:href="#q" transform="matrix(9 0 0 -9 104.615 26.076)"/><use xlink:href="#j" transform="matrix(9 0 0 -9 109.062 24.134)"/><use xlink:href="#l" transform="matrix(9 0 0 -9 113.119 24.134)"/><use xlink:href="#o" transform="matrix(9 0 0 -9 117.882 24.217)"/><use xlink:href="#r" transform="matrix(9 0 0 -9 121.738 24.134)"/><use xlink:href="#o" transform="matrix(9 0 0 -9 125.874 24.217)"/><use xlink:href="#s" transform="matrix(9 0 0 -9 129.607 24.134)"/><use xlink:href="#t" transform="matrix(9 0 0 -9 132.845 24.257)"/><use xlink:href="#g" transform="matrix(9 0 0 -9 137.35 24.257)"/><use xlink:href="#b" transform="matrix(9 0 0 -9 141.555 24.257)"/><use xlink:href="#d" transform="matrix(9 0 0 -9 146.486 24.257)"/><use xlink:href="#j" transform="matrix(9 0 0 -9 149.547 24.134)"/><use xlink:href="#d" transform="matrix(9 0 0 -9 9.014 35.255)"/><use xlink:href="#m" transform="matrix(9 0 0 -9 12.383 35.255)"/><use xlink:href="#c" transform="matrix(9 0 0 -9 16.405 35.255)"/><use xlink:href="#h" transform="matrix(9 0 0 -9 20.12 35.132)"/><use xlink:href="#c" transform="matrix(9 0 0 -9 24.901 35.255)"/><use xlink:href="#j" transform="matrix(9 0 0 -9 28.563 35.132)"/><use xlink:href="#d" transform="matrix(9 0 0 -9 31.503 35.255)"/><use xlink:href="#l" transform="matrix(9 0 0 -9 34.621 35.132)"/><use xlink:href="#g" transform="matrix(9 0 0 -9 39.368 35.255)"/><use xlink:href="#u" transform="matrix(9 0 0 -9 43.621 35.255)"/><use xlink:href="#h" transform="matrix(9 0 0 -9 50.115 35.132)"/><use xlink:href="#j" transform="matrix(9 0 0 -9 54.562 35.132)"/><use xlink:href="#f" transform="matrix(9 0 0 -9 56.826 35.132)"/><use xlink:href="#h" transform="matrix(9 0 0 -9 58.616 35.132)"/><use xlink:href="#j" transform="matrix(9 0 0 -9 63.063 35.132)"/><use xlink:href="#v" transform="matrix(9 0 0 -9 66.798 36.916)"/><use xlink:href="#f" transform="matrix(9 0 0 -9 69.32 35.132)"/><use xlink:href="#w" transform="matrix(9 0 0 -9 71.132 35.132)"/><use xlink:href="#x" transform="matrix(9 0 0 -9 78.328 37.074)"/><use xlink:href="#y" transform="matrix(9 0 0 -9 83.115 35.132)"/><use xlink:href="#z" transform="matrix(9 0 0 -9 86.89 36.92)"/><use xlink:href="#A" transform="matrix(9 0 0 -9 90.04 36.63)"/><use xlink:href="#j" transform="matrix(9 0 0 -9 92.057 35.132)"/><use xlink:href="#v" transform="matrix(9 0 0 -9 95.793 36.916)"/><use xlink:href="#f" transform="matrix(9 0 0 -9 98.315 35.132)"/><use xlink:href="#w" transform="matrix(9 0 0 -9 100.126 35.132)"/><use xlink:href="#x" transform="matrix(9 0 0 -9 107.321 37.074)"/><use xlink:href="#B" transform="matrix(9 0 0 -9 111.246 35.132)"/><use xlink:href="#z" transform="matrix(9 0 0 -9 115.882 36.92)"/><use xlink:href="#A" transform="matrix(9 0 0 -9 119.033 36.63)"/><use xlink:href="#j" transform="matrix(9 0 0 -9 121.05 35.132)"/><use xlink:href="#v" transform="matrix(9 0 0 -9 124.784 36.916)"/><use xlink:href="#f" transform="matrix(9 0 0 -9 127.307 35.132)"/><use xlink:href="#w" transform="matrix(9 0 0 -9 129.118 35.132)"/><use xlink:href="#x" transform="matrix(9 0 0 -9 136.313 37.074)"/><use xlink:href="#C" transform="matrix(9 0 0 -9 140.41 35.237)"/><use xlink:href="#z" transform="matrix(9 0 0 -9 144.874 36.92)"/><use xlink:href="#A" transform="matrix(9 0 0 -9 148.025 36.63)"/><use xlink:href="#j" transform="matrix(9 0 0 -9 150.042 35.132)"/><use xlink:href="#g" transform="matrix(9 0 0 -9 153.342 35.255)"/><use xlink:href="#s" transform="matrix(9 0 0 -9 157.596 35.132)"/><use xlink:href="#j" transform="matrix(9 0 0 -9 160.536 35.132)"/><use xlink:href="#v" transform="matrix(9 0 0 -9 9.312 47.42)"/><use xlink:href="#f" transform="matrix(9 0 0 -9 11.835 45.635)"/><use xlink:href="#w" transform="matrix(9 0 0 -9 13.647 45.635)"/><use xlink:href="#x" transform="matrix(9 0 0 -9 20.842 47.577)"/><use xlink:href="#D" transform="matrix(9 0 0 -9 24.715 45.635)"/><use xlink:href="#z" transform="matrix(9 0 0 -9 29.404 47.424)"/><use xlink:href="#j" transform="matrix(9 0 0 -9 32.071 45.635)"/><use xlink:href="#m" transform="matrix(9 0 0 -9 35.879 45.758)"/><use xlink:href="#g" transform="matrix(9 0 0 -9 39.87 45.758)"/><use xlink:href="#s" transform="matrix(9 0 0 -9 44.125 45.635)"/><use xlink:href="#s" transform="matrix(9 0 0 -9 47.122 45.635)"/><use xlink:href="#c" transform="matrix(9 0 0 -9 50.395 45.758)"/><use xlink:href="#d" transform="matrix(9 0 0 -9 54.497 45.758)"/><use xlink:href="#n" transform="matrix(9 0 0 -9 57.528 47.56)"/><use xlink:href="#g" transform="matrix(9 0 0 -9 62.362 45.758)"/><use xlink:href="#h" transform="matrix(9 0 0 -9 66.611 45.635)"/><use xlink:href="#t" transform="matrix(9 0 0 -9 71.357 45.758)"/><use xlink:href="#d" transform="matrix(9 0 0 -9 75.998 45.758)"/><use xlink:href="#j" transform="matrix(9 0 0 -9 79.06 45.635)"/><use xlink:href="#E" transform="matrix(9 0 0 -9 81.035 45.758)"/><use xlink:href="#c" transform="matrix(9 0 0 -9 85.891 45.758)"/><use xlink:href="#d" transform="matrix(9 0 0 -9 89.993 45.758)"/><use xlink:href="#e" transform="matrix(9 0 0 -9 93.142 45.7)"/><use xlink:href="#j" transform="matrix(9 0 0 -9 95.556 45.635)"/><use xlink:href="#e" transform="matrix(9 0 0 -9 98.144 45.7)"/><use xlink:href="#g" transform="matrix(9 0 0 -9 100.861 45.758)"/><use xlink:href="#j" transform="matrix(9 0 0 -9 105.058 45.635)"/><use xlink:href="#e" transform="matrix(9 0 0 -9 107.144 45.7)"/><use xlink:href="#l" transform="matrix(9 0 0 -9 109.615 45.635)"/><use xlink:href="#c" transform="matrix(9 0 0 -9 114.392 45.758)"/><use xlink:href="#j" transform="matrix(9 0 0 -9 118.054 45.635)"/><use xlink:href="#d" transform="matrix(9 0 0 -9 120.992 45.758)"/><use xlink:href="#g" transform="matrix(9 0 0 -9 124.357 45.758)"/><use xlink:href="#b" transform="matrix(9 0 0 -9 128.563 45.758)"/><use xlink:href="#h" transform="matrix(9 0 0 -9 133.107 45.635)"/><use xlink:href="#t" transform="matrix(9 0 0 -9 137.853 45.758)"/><use xlink:href="#j" transform="matrix(9 0 0 -9 142.054 45.635)"/><use xlink:href="#f" transform="matrix(9 0 0 -9 144.316 45.635)"/><use xlink:href="#h" transform="matrix(9 0 0 -9 146.105 45.635)"/><use xlink:href="#j" transform="matrix(9 0 0 -9 150.552 45.635)"/><use xlink:href="#v" transform="matrix(9 0 0 -9 9.312 58.417)"/><use xlink:href="#o" transform="matrix(9 0 0 -9 11.892 56.716)"/><use xlink:href="#b" transform="matrix(9 0 0 -9 15.576 56.756)"/><use xlink:href="#t" transform="matrix(9 0 0 -9 20.366 56.756)"/><use xlink:href="#f" transform="matrix(9 0 0 -9 24.83 56.633)"/><use xlink:href="#g" transform="matrix(9 0 0 -9 26.87 56.756)"/><use xlink:href="#y" transform="matrix(9 0 0 -9 32.122 56.633)"/><use xlink:href="#z" transform="matrix(9 0 0 -9 35.897 58.422)"/><use xlink:href="#F" transform="matrix(9 0 0 -9 38.968 56.752)"/><use xlink:href="#G" transform="matrix(9 0 0 -9 8.644 67.136)"/><use xlink:href="#i" transform="matrix(9 0 0 -9 15.348 67.259)"/><use xlink:href="#j" transform="matrix(9 0 0 -9 16.574 67.136)"/><use xlink:href="#e" transform="matrix(9 0 0 -9 20.162 67.202)"/><use xlink:href="#l" transform="matrix(9 0 0 -9 22.633 67.136)"/><use xlink:href="#c" transform="matrix(9 0 0 -9 27.41 67.259)"/><use xlink:href="#j" transform="matrix(9 0 0 -9 31.072 67.136)"/><use xlink:href="#H" transform="matrix(9 0 0 -9 33.417 67.136)"/><use xlink:href="#g" transform="matrix(9 0 0 -9 36.37 67.259)"/><use xlink:href="#b" transform="matrix(9 0 0 -9 40.576 67.259)"/><use xlink:href="#s" transform="matrix(9 0 0 -9 45.124 67.136)"/><use xlink:href="#e" transform="matrix(9 0 0 -9 48.152 67.202)"/><use xlink:href="#l" transform="matrix(9 0 0 -9 50.623 67.136)"/><use xlink:href="#j" transform="matrix(9 0 0 -9 55.066 67.136)"/><use xlink:href="#f" transform="matrix(9 0 0 -9 57.83 67.136)"/><use xlink:href="#w" transform="matrix(9 0 0 -9 59.641 67.136)"/><use xlink:href="#o" transform="matrix(9 0 0 -9 66.89 67.22)"/><use xlink:href="#x" transform="matrix(9 0 0 -9 70.832 69.078)"/><use xlink:href="#c" transform="matrix(9 0 0 -9 74.898 67.259)"/><use xlink:href="#j" transform="matrix(9 0 0 -9 78.56 67.136)"/><use xlink:href="#I" transform="matrix(9 0 0 -9 81.709 67.136)"/><use xlink:href="#i" transform="matrix(9 0 0 -9 88.336 67.259)"/><use xlink:href="#j" transform="matrix(9 0 0 -9 89.562 67.136)"/><use xlink:href="#e" transform="matrix(9 0 0 -9 92.65 67.202)"/><use xlink:href="#l" transform="matrix(9 0 0 -9 95.121 67.136)"/><use xlink:href="#c" transform="matrix(9 0 0 -9 99.898 67.259)"/><use xlink:href="#j" transform="matrix(9 0 0 -9 103.56 67.136)"/><use xlink:href="#d" transform="matrix(9 0 0 -9 105.998 67.259)"/><use xlink:href="#c" transform="matrix(9 0 0 -9 109.393 67.259)"/><use xlink:href="#m" transform="matrix(9 0 0 -9 113.363 67.259)"/><use xlink:href="#g" transform="matrix(9 0 0 -9 117.354 67.259)"/><use xlink:href="#h" transform="matrix(9 0 0 -9 121.604 67.136)"/><use xlink:href="#t" transform="matrix(9 0 0 -9 126.35 67.259)"/><use xlink:href="#j" transform="matrix(9 0 0 -9 130.551 67.136)"/><use xlink:href="#f" transform="matrix(9 0 0 -9 133.314 67.136)"/><use xlink:href="#w" transform="matrix(9 0 0 -9 135.126 67.136)"/><use xlink:href="#o" transform="matrix(9 0 0 -9 142.374 67.22)"/><use xlink:href="#x" transform="matrix(9 0 0 -9 146.317 69.078)"/><use xlink:href="#c" transform="matrix(9 0 0 -9 150.383 67.259)"/><g data-name="P"><symbol id="J"><path d="M.566.692.58.467H.566a.283.283 0 0 1-.087.146.21.21 0 0 1-.134.044.218.218 0 0 1-.12-.033.221.221 0 0 1-.083-.107.479.479 0 0 1-.03-.182C.111.275.12.223.14.179a.216.216 0 0 1 .087-.1.25.25 0 0 1 .132-.036c.043 0 .08.01.114.027A.379.379 0 0 1 .58.18L.596.17A.348.348 0 0 0 .48.041.294.294 0 0 0 .322 0C.212 0 .128.04.067.122A.349.349 0 0 0 0 .336a.38.38 0 0 0 .044.182.33.33 0 0 0 .292.174A.312.312 0 0 0 .48.657a.077.077 0 0 1 .029-.01C.517.646.524.65.53.655a.076.076 0 0 1 .018.036h.017z"/></symbol><use xlink:href="#J" transform="matrix(9 0 0 -9 8.9 78.27)"/><use xlink:href="#i" transform="matrix(9 0 0 -9 15.35 78.257)"/><use xlink:href="#j" transform="matrix(9 0 0 -9 16.577 78.134)"/><use xlink:href="#e" transform="matrix(9 0 0 -9 19.662 78.2)"/><use xlink:href="#l" transform="matrix(9 0 0 -9 22.133 78.134)"/><use xlink:href="#c" transform="matrix(9 0 0 -9 26.91 78.257)"/><use xlink:href="#j" transform="matrix(9 0 0 -9 30.572 78.134)"/><use xlink:href="#e" transform="matrix(9 0 0 -9 32.66 78.2)"/><use xlink:href="#l" transform="matrix(9 0 0 -9 35.13 78.134)"/><use xlink:href="#f" transform="matrix(9 0 0 -9 39.837 78.134)"/><use xlink:href="#s" transform="matrix(9 0 0 -9 41.63 78.134)"/><use xlink:href="#t" transform="matrix(9 0 0 -9 44.87 78.257)"/><use xlink:href="#j" transform="matrix(9 0 0 -9 49.07 78.134)"/><use xlink:href="#f" transform="matrix(9 0 0 -9 52.331 78.134)"/><use xlink:href="#w" transform="matrix(9 0 0 -9 54.142 78.134)"/><use xlink:href="#o" transform="matrix(9 0 0 -9 61.39 78.218)"/><use xlink:href="#x" transform="matrix(9 0 0 -9 65.333 80.076)"/><use xlink:href="#c" transform="matrix(9 0 0 -9 69.399 78.257)"/><use xlink:href="#j" transform="matrix(9 0 0 -9 73.061 78.134)"/><symbol id="K"><path d="M0 0v.018h.022c.02 0 .034.003.044.009.01.006.018.014.023.025a.233.233 0 0 1 .004.061V.55a.218.218 0 0 1-.005.063.048.048 0 0 1-.022.022.085.085 0 0 1-.044.01H0v.018h.296C.376.662.44.652.487.63A.281.281 0 0 0 .621.51.358.358 0 0 0 .667.33.36.36 0 0 0 .645.2.299.299 0 0 0 .586.103.29.29 0 0 0 .504.042.442.442 0 0 0 .296 0H0m.252.625V.108c0-.027.002-.044.004-.05A.028.028 0 0 1 .27.043.08.08 0 0 1 .308.036c.054 0 .095.019.124.056.04.05.059.128.059.233A.44.44 0 0 1 .45.53a.17.17 0 0 1-.082.08.316.316 0 0 1-.117.016z"/></symbol><symbol id="L"><path d="M.082.482A.077.077 0 0 0 .139.458.077.077 0 0 0 .163.401.079.079 0 0 0 .139.343.078.078 0 0 0 .082.32a.08.08 0 0 0-.058.023A.08.08 0 0 0 0 .401c0 .022.008.041.024.057a.079.079 0 0 0 .058.024m0-.32A.078.078 0 0 0 .138.14.079.079 0 0 0 .163.08.079.079 0 0 0 .139.023.08.08 0 0 0 .08 0a.08.08 0 0 0-.058.023A.08.08 0 0 0 0 .081.08.08 0 0 0 .023.14a.079.079 0 0 0 .058.024z"/></symbol><symbol id="M"><path d="M0 0z"/></symbol><symbol id="N"><path d="M.196.63V.463h.109V.415H.196V.133C.196.106.197.089.2.082A.04.04 0 0 1 .213.063.03.03 0 0 1 .23.056c.021 0 .041.016.06.048l.015-.01C.278.03.235 0 .176 0a.115.115 0 0 0-.073.024.108.108 0 0 0-.039.054.46.46 0 0 0-.004.09v.247H0v.017A.55.55 0 0 1 .18.63h.016z"/></symbol><symbol id="O"><path d="M.186.662V.398a.274.274 0 0 0 .069.056C.275.464.297.47.32.47A.113.113 0 0 0 .393.446a.114.114 0 0 0 .04-.058.415.415 0 0 0 .01-.11V.098c0-.035.004-.057.01-.065C.46.025.474.02.494.018V0H.262v.018a.053.053 0 0 1 .036.02c.006.008.01.028.01.061v.204a.328.328 0 0 1-.005.07.041.041 0 0 1-.015.023.036.036 0 0 1-.024.008.064.064 0 0 1-.038-.013.17.17 0 0 1-.04-.047V.099A.15.15 0 0 1 .193.04C.2.026.213.02.231.017V0H0v.018C.02.02.033.026.041.036.047.043.049.064.049.1v.464C.05.597.046.619.04.627.034.636.02.641 0 .644v.018h.186z"/></symbol><symbol id="P"><path d="M.382.258h-.25A.236.236 0 0 1 .18.115a.102.102 0 0 1 .08-.04C.28.074.299.08.315.09a.21.21 0 0 1 .051.06L.382.138A.279.279 0 0 0 .3.03.178.178 0 0 0 .196 0a.173.173 0 0 0-.154.078A.276.276 0 0 0 0 .234c0 .077.02.137.062.182a.19.19 0 0 0 .145.068.156.156 0 0 0 .12-.057C.36.389.379.333.382.258m-.12.033a.438.438 0 0 1-.01.108.087.087 0 0 1-.025.044.04.04 0 0 1-.028.01C.182.452.17.442.158.426a.214.214 0 0 1-.03-.119V.291h.134z"/></symbol><symbol id="Q"><path d="M.202.409V.092c0-.03.003-.05.01-.058C.221.022.24.017.268.018V0H0v.018a.11.11 0 0 1 .043.006c.01.005.015.011.019.019a.154.154 0 0 1 .004.049v.317H0v.048h.066v.056C.066.56.083.6.117.63a.2.2 0 0 0 .14.047c.04 0 .07-.007.089-.022C.366.64.375.623.375.605A.05.05 0 0 0 .357.567.07.07 0 0 0 .309.55a.06.06 0 0 0-.04.013.039.039 0 0 0-.015.03c0 .002 0 .008.003.017l.002.016c0 .007-.002.012-.006.015a.027.027 0 0 1-.02.007A.03.03 0 0 1 .21.638C.204.63.2.618.2.6L.203.515V.457h.067V.409H.202z"/></symbol><symbol id="R"><path d="M.123.678C.144.678.163.67.177.655A.072.072 0 0 0 .199.602.072.072 0 0 0 .176.55.072.072 0 0 0 .123.527.072.072 0 0 0 .07.549a.072.072 0 0 0-.022.053c0 .02.007.039.022.053a.072.072 0 0 0 .053.023M.191.457V.095c0-.033.004-.053.012-.062C.21.023.225.019.247.018V0H0v.018c.02 0 .035.006.045.017.006.008.01.027.01.06V.36C.055.394.05.414.043.423.036.432.021.437 0 .438v.019h.191z"/></symbol><symbol id="S"><path d="M.187.457V.353a.33.33 0 0 0 .08.094.117.117 0 0 0 .065.023.057.057 0 0 0 .043-.017C.387.443.392.426.392.406A.074.074 0 0 0 .376.355.049.049 0 0 0 .338.337a.066.066 0 0 0-.045.017.274.274 0 0 1-.022.018.021.021 0 0 1-.012.003.041.041 0 0 1-.027-.01.101.101 0 0 1-.03-.048.332.332 0 0 1-.015-.105V.08C.187.062.188.05.19.044a.04.04 0 0 1 .018-.02.107.107 0 0 1 .039-.006V0H0v.018c.02.001.033.007.04.016.007.01.01.034.01.073V.36a.19.19 0 0 1-.003.05.04.04 0 0 1-.014.02A.075.075 0 0 1 0 .438v.019h.187z"/></symbol><symbol id="T"><path d="M.283.483.29.327H.273a.243.243 0 0 1-.062.095.102.102 0 0 1-.063.025.047.047 0 0 1-.034-.013A.04.04 0 0 1 .1.403.04.04 0 0 1 .11.377.473.473 0 0 1 .196.31.35.35 0 0 0 .29.226.131.131 0 0 0 .314.15a.16.16 0 0 0-.02-.074A.134.134 0 0 0 .242.02.153.153 0 0 0 .165 0a.266.266 0 0 0-.088.02.073.073 0 0 1-.02.006C.047.026.037.018.03 0H.014L.006.166h.017a.213.213 0 0 1 .06-.097C.109.047.133.037.156.037.17.037.184.04.194.05c.01.01.015.021.015.035a.06.06 0 0 1-.015.04.382.382 0 0 1-.065.052.513.513 0 0 0-.097.08A.138.138 0 0 0 0 .345C0 .38.012.413.036.44c.025.029.06.043.106.043A.153.153 0 0 0 .213.466.048.048 0 0 1 .235.458c.006 0 .01.002.014.004a.1.1 0 0 1 .017.02h.017z"/></symbol><symbol id="U"><path d="M.186.457v-.06a.26.26 0 0 0 .07.057A.151.151 0 0 0 .398.45.13.13 0 0 0 .445.387c.026.03.051.05.075.064.024.013.05.02.075.02A.118.118 0 0 0 .67.447.11.11 0 0 0 .71.393.363.363 0 0 0 .72.287V.1C.72.064.725.043.73.034.736.026.75.02.77.018V0H.534v.018c.019.001.032.008.041.021.006.009.009.029.009.06v.197c0 .04-.002.066-.005.078a.044.044 0 0 1-.016.024.038.038 0 0 1-.024.008.072.072 0 0 1-.042-.015.192.192 0 0 1-.044-.046V.1c0-.033.003-.054.008-.062C.47.026.483.018.504.018V0H.268v.018c.013 0 .023.003.03.009a.04.04 0 0 1 .015.02A.215.215 0 0 1 .316.1v.196a.356.356 0 0 1-.004.078.047.047 0 0 1-.017.024.039.039 0 0 1-.024.009.065.065 0 0 1-.036-.01.2.2 0 0 1-.049-.052V.1c0-.033.003-.054.01-.064.006-.01.02-.016.04-.018V0H0v.018C.02.02.033.026.041.036.047.043.049.064.049.1v.257C.05.392.046.413.04.422.034.43.02.436 0 .438v.019h.186z"/></symbol><symbol id="V"><path d="M.24.074C.186.024.136 0 .09 0A.087.087 0 0 0 0 .09c0 .035.015.066.045.094.03.028.095.065.196.11v.047a.21.21 0 0 1-.006.065.05.05 0 0 1-.021.023.063.063 0 0 1-.035.01.09.09 0 0 1-.053-.014C.118.42.114.413.114.405c0-.007.004-.016.013-.026C.14.365.146.352.146.34A.054.054 0 0 0 .128.298.065.065 0 0 0 .082.28.075.075 0 0 0 .03.3a.057.057 0 0 0-.02.043.1.1 0 0 0 .027.067.175.175 0 0 0 .078.05.317.317 0 0 0 .103.017c.044 0 .078-.01.103-.028a.128.128 0 0 0 .05-.06.388.388 0 0 0 .006-.094V.118c0-.021 0-.034.002-.04A.023.023 0 0 1 .387.066a.017.017 0 0 1 .01-.004c.01 0 .018.007.027.019L.438.069a.18.18 0 0 0-.05-.053A.11.11 0 0 0 .328 0a.093.093 0 0 0-.06.018.084.084 0 0 0-.027.056m0 .035v.153A.285.285 0 0 1 .153.188a.09.09 0 0 1-.02-.053C.134.12.14.107.15.095A.044.044 0 0 1 .184.082C.2.082.22.092.241.109z"/></symbol><symbol id="W"><path d="M.29.667h.153V.613H.355A.166.166 0 0 0 .39.57.134.134 0 0 0 .4.515C.4.482.391.454.373.43A.18.18 0 0 0 .299.374a.212.212 0 0 0-.082-.02L.158.356A.051.051 0 0 1 .121.341.046.046 0 0 1 .106.307C.106.295.111.286.12.278.129.271.143.268.164.268h.084A.307.307 0 0 0 .389.246.103.103 0 0 0 .444.149.122.122 0 0 0 .42.074a.148.148 0 0 0-.067-.05.48.48 0 0 0-.257-.012.153.153 0 0 0-.073.033C.007.06 0 .075 0 .09s.006.028.017.04A.14.14 0 0 0 .08.16C.037.181.016.21.016.247c0 .023.009.044.026.066.017.02.045.04.082.055A.2.2 0 0 0 .029.43a.15.15 0 0 0 .025.206C.092.67.139.686.196.686.225.686.257.68.29.667M.205.656C.185.656.17.646.157.627.144.608.137.569.137.509c0-.049.007-.082.02-.1C.168.39.184.382.201.382c.02 0 .036.009.049.027.013.018.02.052.02.104 0 .058-.008.098-.022.12a.05.05 0 0 1-.044.023M.175.148A.169.169 0 0 1 .11.14C.09.13.082.116.082.1c0-.017.01-.032.029-.046C.13.041.166.034.219.034.264.034.3.04.326.052c.026.012.039.029.039.05a.03.03 0 0 1-.008.021.07.07 0 0 1-.04.02 1.038 1.038 0 0 1-.141.005z"/></symbol><use xlink:href="#K" transform="matrix(9 0 0 -9 76.177 78.134)"/><use xlink:href="#L" transform="matrix(9 0 0 -9 83.325 78.244)"/><use xlink:href="#M" transform="matrix(9 0 0 -9 85.056 78.134)"/><use xlink:href="#N" transform="matrix(9 0 0 -9 88.22 78.191)"/><use xlink:href="#O" transform="matrix(9 0 0 -9 91.358 78.134)"/><use xlink:href="#P" transform="matrix(9 0 0 -9 96.401 78.257)"/><use xlink:href="#M" transform="matrix(9 0 0 -9 100.05 78.134)"/><use xlink:href="#Q" transform="matrix(9 0 0 -9 102.34 78.134)"/><use xlink:href="#R" transform="matrix(9 0 0 -9 105.232 78.134)"/><use xlink:href="#S" transform="matrix(9 0 0 -9 107.879 78.134)"/><use xlink:href="#T" transform="matrix(9 0 0 -9 111.405 78.257)"/><use xlink:href="#N" transform="matrix(9 0 0 -9 114.717 78.191)"/><use xlink:href="#M" transform="matrix(9 0 0 -9 117.547 78.134)"/><use xlink:href="#R" transform="matrix(9 0 0 -9 120.729 78.134)"/><use xlink:href="#U" transform="matrix(9 0 0 -9 123.38 78.134)"/><use xlink:href="#V" transform="matrix(9 0 0 -9 130.948 78.191)"/><use xlink:href="#W" transform="matrix(9 0 0 -9 135.382 80.076)"/><use xlink:href="#P" transform="matrix(9 0 0 -9 139.89 78.257)"/><path d="M109.824 79.634h-33.75v.5h67.5v-.5z"/></g><g data-name="Figure"><path d="M1.563 1.284h169.5v11.5H1.563z" fill="#f5f5f5" fill-rule="evenodd"/><path stroke-miterlimit="8" fill="none" stroke="#767171" d="M1.563 1.284h169.5v11.5H1.563z"/></g><symbol id="X"><path d="M.188.355h.308v.19A.222.222 0 0 1 .49.61a.044.044 0 0 1-.02.021.09.09 0 0 1-.045.012H.4v.018h.284V.644H.66A.093.093 0 0 1 .617.633.042.042 0 0 1 .595.609.243.243 0 0 1 .59.544V.117A.22.22 0 0 1 .596.051.044.044 0 0 1 .616.03.093.093 0 0 1 .661.018h.024V0H.4v.018h.024c.027 0 .047.008.059.024.008.01.012.035.012.075V.32H.188V.117A.22.22 0 0 1 .195.051.044.044 0 0 1 .215.03.09.09 0 0 1 .26.018h.024V0H0v.018h.023c.028 0 .048.008.06.024.008.01.012.035.012.075v.427a.222.222 0 0 1-.007.067.044.044 0 0 1-.02.021.093.093 0 0 1-.045.012H0v.018h.284V.644H.26A.093.093 0 0 1 .215.633a.042.042 0 0 1-.02-.024.223.223 0 0 1-.007-.065V.355z"/></symbol><symbol id="Y"><path d="M.659 0H.482L.258.31.218.309h-.03V.118C.188.076.193.05.202.04.215.025.233.018.258.018h.026V0H0v.018h.025c.028 0 .048.01.06.027.007.01.01.034.01.072v.428c0 .042-.004.067-.013.078C.069.637.05.644.025.644H0v.018h.241c.07 0 .122-.005.155-.016A.174.174 0 0 0 .481.59.146.146 0 0 0 .517.492a.154.154 0 0 0-.04-.106.223.223 0 0 0-.123-.064L.49.132A.34.34 0 0 1 .57.045.203.203 0 0 1 .66.018V0m-.47.34a.23.23 0 0 0 .016 0h.01C.28.34.327.354.359.38a.131.131 0 0 1 .049.105.135.135 0 0 1-.04.1.138.138 0 0 1-.102.04.43.43 0 0 1-.077-.01V.34z"/></symbol><use xlink:href="#X" transform="matrix(10 0 0 -10 46.807 10.292)"/><use xlink:href="#o" transform="matrix(10 0 0 -10 53.993 10.385)"/><use xlink:href="#r" transform="matrix(10 0 0 -10 58.336 10.292)"/><use xlink:href="#o" transform="matrix(10 0 0 -10 62.493 10.385)"/><use xlink:href="#s" transform="matrix(10 0 0 -10 66.7 10.292)"/><use xlink:href="#t" transform="matrix(10 0 0 -10 70.468 10.43)"/><use xlink:href="#j" transform="matrix(10 0 0 -10 75.136 10.292)"/><use xlink:href="#Y" transform="matrix(10 0 0 -10 78.307 10.292)"/><use xlink:href="#c" transform="matrix(10 0 0 -10 85.007 10.43)"/><use xlink:href="#m" transform="matrix(10 0 0 -10 89.478 10.43)"/><use xlink:href="#g" transform="matrix(10 0 0 -10 93.973 10.43)"/><use xlink:href="#x" transform="matrix(10 0 0 -10 98.934 12.45)"/><use xlink:href="#h" transform="matrix(10 0 0 -10 103.195 10.292)"/><use xlink:href="#f" transform="matrix(10 0 0 -10 107.93 10.292)"/><use xlink:href="#e" transform="matrix(10 0 0 -10 110.734 10.366)"/><use xlink:href="#f" transform="matrix(10 0 0 -10 113.43 10.292)"/><use xlink:href="#g" transform="matrix(10 0 0 -10 116.473 10.43)"/><use xlink:href="#h" transform="matrix(10 0 0 -10 121.196 10.292)"/></svg>