<svg xmlns="http://www.w3.org/2000/svg" xmlns:xlink="http://www.w3.org/1999/xlink" width="232.211" height="102.484" viewBox="0 0 174.158 76.863"><g data-name="Artifact"><path d="M-397.45 366.328h960v-540h-960z" fill="#fff" data-name="背景"/></g><g data-name="Figure"><path d="M2.05 3.828h169.5v71.5H2.05z" fill="#dde1ea" fill-rule="evenodd"/><path stroke-miterlimit="8" fill="none" stroke="#767171" d="M2.05 3.828h169.5v71.5H2.05z"/></g><symbol id="a"><path d="M.405.188A.39.39 0 0 1 .513.062.262.262 0 0 1 .645.016V0a.618.618 0 0 0-.29.096.703.703 0 0 0-.118.092.47.47 0 0 0-.112.06.33.33 0 0 0-.125.28c0 .1.032.181.096.247a.314.314 0 0 0 .458 0A.342.342 0 0 0 .649.525.35.35 0 0 0 .405.188M.323.835A.179.179 0 0 1 .18.772C.135.719.112.638.112.528c0-.107.023-.19.07-.247A.173.173 0 0 1 .322.214c.061 0 .11.022.148.067.044.052.066.13.066.233a.49.49 0 0 1-.036.2.186.186 0 0 1-.178.122z"/></symbol><symbol id="b"><path d="M.422.46V.19c0-.052.002-.084.004-.095C.428.083.432.075.438.07A.03.03 0 0 1 .457.064c.01 0 .021.003.034.008L.498.055.364 0H.342v.095A.407.407 0 0 0 .254.016.134.134 0 0 0 .19 0a.104.104 0 0 0-.065.021.114.114 0 0 0-.039.057.338.338 0 0 0-.01.096v.2a.098.098 0 0 1-.007.044.044.044 0 0 1-.02.019A.113.113 0 0 1 0 .443V.46h.157v-.3C.157.12.164.094.178.08A.077.077 0 0 1 .231.06c.014 0 .03.004.047.013.018.009.04.026.064.05v.254c0 .025-.005.042-.014.051C.318.438.299.442.27.443V.46h.152z"/></symbol><symbol id="c"><path d="M.07.292A.23.23 0 0 1 .117.136.147.147 0 0 1 .232.08c.03 0 .055.008.077.024a.18.18 0 0 1 .054.083l.015-.01a.234.234 0 0 0-.06-.122A.16.16 0 0 0 .196 0c-.053 0-.1.02-.138.063A.242.242 0 0 0 0 .23c0 .077.02.137.059.18.039.042.088.064.148.064.05 0 .09-.017.123-.05A.18.18 0 0 0 .378.292H.07m0 .029h.207a.191.191 0 0 1-.01.06.096.096 0 0 1-.037.043.09.09 0 0 1-.05.016.101.101 0 0 1-.073-.032A.136.136 0 0 1 .07.321z"/></symbol><symbol id="d"><path d="M.271.474V.322H.255C.243.37.227.402.208.419a.106.106 0 0 1-.074.026.082.082 0 0 1-.055-.018C.065.415.058.402.058.387.058.37.063.353.073.34A.174.174 0 0 1 .135.298L.206.263c.066-.032.1-.075.1-.127A.12.12 0 0 0 .258.037.16.16 0 0 0 .156 0a.355.355 0 0 0-.094.015.095.095 0 0 1-.026.005C.028.02.022.015.018.007H.002v.16h.016A.182.182 0 0 1 .07.063.126.126 0 0 1 .157.03c.022 0 .04.006.054.02.015.013.022.029.022.047a.075.075 0 0 1-.024.057.407.407 0 0 1-.094.058.28.28 0 0 0-.093.063.11.11 0 0 0-.022.07c0 .038.013.068.038.093a.135.135 0 0 0 .098.037A.23.23 0 0 0 .2.463.151.151 0 0 1 .233.456a.02.02 0 0 1 .012.003.047.047 0 0 1 .01.015h.016z"/></symbol><symbol id="e"><path d="M.151.602V.455h.105V.42H.15V.13c0-.029.004-.048.013-.058A.04.04 0 0 1 .196.057c.01 0 .021.003.031.01.01.006.018.016.023.03h.02A.155.155 0 0 0 .22.023.105.105 0 0 0 .157 0a.088.088 0 0 0-.044.012.077.077 0 0 0-.032.036.19.19 0 0 0-.01.072v.3H0v.017c.018.007.036.019.055.036a.29.29 0 0 1 .081.129h.015z"/></symbol><symbol id="f"><path d="M.116.694A.046.046 0 0 0 .15.68.046.046 0 0 0 .165.645.048.048 0 0 0 .15.61.046.046 0 0 0 .116.595.048.048 0 0 0 .08.61a.048.048 0 0 0-.015.035C.066.659.07.67.08.68c.01.01.022.014.036.014M.156.46V.101c0-.028.002-.047.006-.056A.045.045 0 0 1 .18.025.098.098 0 0 1 .224.017V0H.007v.018C.029.018.043.02.05.024a.042.042 0 0 1 .017.02c.005.01.007.03.007.057v.172a.61.61 0 0 1-.004.095C.069.378.065.385.06.389A.03.03 0 0 1 .04.396.098.098 0 0 1 .007.388L0 .406.135.46h.021z"/></symbol><symbol id="g"><path d="M.216.474A.198.198 0 0 0 .38.397.237.237 0 0 0 .432.246c0-.04-.01-.081-.03-.122A.21.21 0 0 0 .324.031.208.208 0 0 0 .211 0a.19.19 0 0 0-.16.08A.25.25 0 0 0 0 .234c0 .04.01.082.03.122a.208.208 0 0 0 .186.12M.201.441A.102.102 0 0 1 .15.427.107.107 0 0 1 .107.373a.26.26 0 0 1-.016-.1C.09.21.104.154.129.106.155.058.19.035.232.035.264.035.29.048.31.074.33.1.34.144.34.208.34.288.325.35.29.396A.106.106 0 0 1 .2.442z"/></symbol><symbol id="h"><path d="M.156.366C.208.429.258.46.306.46A.107.107 0 0 0 .369.442.121.121 0 0 0 .41.382c.007-.02.01-.05.01-.09v-.19A.16.16 0 0 1 .428.042.04.04 0 0 1 .445.024.1.1 0 0 1 .49.018V0H.269v.018h.009c.02 0 .035.003.043.009A.05.05 0 0 1 .34.055C.34.06.34.075.34.101v.183c0 .04-.006.07-.016.089C.315.39.297.4.27.4.233.4.194.38.156.337V.1c0-.03.002-.049.005-.056A.047.047 0 0 1 .18.024.122.122 0 0 1 .229.018V0H.007v.018h.01c.023 0 .038.005.046.017C.071.046.075.069.075.1v.166a.677.677 0 0 1-.004.098C.07.377.065.385.061.39A.03.03 0 0 1 .04.396.094.094 0 0 1 .007.388L0 .406.135.46h.02V.366z"/></symbol><symbol id="i"><path d="M.055.475A.051.051 0 0 0 .093.458.051.051 0 0 0 .11.42.053.053 0 0 0 .093.382.052.052 0 0 0 .055.366.053.053 0 0 0 .001.42c0 .015.005.028.016.038.01.011.023.017.038.017m0-.366A.052.052 0 0 0 .092.093.053.053 0 0 0 .109.054.053.053 0 0 0 .093.016.053.053 0 0 0 .054 0 .053.053 0 0 0 0 .054C0 .07.005.082.016.093c.01.01.023.016.038.016z"/></symbol><symbol id="j"><path d="M0 0z"/></symbol><use xlink:href="#a" transform="matrix(9 0 0 -9 9.378 28.779)"/><use xlink:href="#b" transform="matrix(9 0 0 -9 15.568 27.14)"/><use xlink:href="#c" transform="matrix(9 0 0 -9 20.393 27.14)"/><use xlink:href="#d" transform="matrix(9 0 0 -9 24.495 27.14)"/><use xlink:href="#e" transform="matrix(9 0 0 -9 27.644 27.083)"/><use xlink:href="#f" transform="matrix(9 0 0 -9 30.322 27.017)"/><use xlink:href="#g" transform="matrix(9 0 0 -9 32.362 27.14)"/><use xlink:href="#h" transform="matrix(9 0 0 -9 36.612 27.017)"/><use xlink:href="#i" transform="matrix(9 0 0 -9 41.832 27.14)"/><use xlink:href="#j" transform="matrix(9 0 0 -9 43.059 27.017)"/><symbol id="k"><path d="M.188.31V.117C.188.076.193.05.202.04.215.025.233.018.258.018h.026V0H0v.018h.025c.028 0 .048.01.06.027.006.01.01.034.01.072v.428C.095.587.09.612.082.623.069.637.05.644.025.644H0v.018h.243c.059 0 .106-.006.14-.018A.191.191 0 0 0 .469.582.159.159 0 0 0 .504.479.173.173 0 0 0 .451.347C.415.313.365.297.3.297A.426.426 0 0 0 .188.31m0 .028a.723.723 0 0 1 .08-.01c.034 0 .064.013.088.04.025.026.037.06.037.101a.182.182 0 0 1-.018.08.12.12 0 0 1-.05.055.144.144 0 0 1-.073.019.289.289 0 0 1-.064-.01V.338z"/></symbol><symbol id="l"><path d="M.155.694V.101c0-.028.002-.046.006-.056a.046.046 0 0 1 .02-.02.112.112 0 0 1 .047-.007V0h-.22v.018c.02 0 .035.002.042.006a.042.042 0 0 1 .018.02c.004.01.006.03.006.057v.406c0 .05 0 .082-.003.093C.069.612.065.62.06.624A.028.028 0 0 1 .04.63.091.091 0 0 1 .009.623L0 .64l.133.054h.022z"/></symbol><symbol id="m"><path d="M.249.074A.737.737 0 0 0 .163.012.132.132 0 0 0 .106 0C.076 0 .05.01.03.032A.117.117 0 0 0 0 .115c0 .022.005.04.015.057a.194.194 0 0 0 .069.062c.033.02.088.044.165.072v.017c0 .045-.007.075-.021.092C.214.432.193.44.166.44A.07.07 0 0 1 .117.423.05.05 0 0 1 .1.385V.357C.1.342.097.33.089.322A.039.039 0 0 0 .058.31a.039.039 0 0 0-.03.013.05.05 0 0 0-.01.034c0 .028.013.054.042.078A.186.186 0 0 0 .18.47.21.21 0 0 0 .279.45.092.092 0 0 0 .321.402.267.267 0 0 0 .33.316V.165c0-.043 0-.07.002-.08C.334.077.336.07.34.068A.02.02 0 0 1 .353.062c.005 0 .01.001.014.003l.04.036V.074C.37.024.334 0 .301 0a.047.047 0 0 0-.038.017C.254.028.249.047.249.074m0 .031v.17a.964.964 0 0 1-.095-.04.164.164 0 0 1-.055-.046.087.087 0 0 1-.017-.05c0-.024.007-.044.021-.06A.064.064 0 0 1 .151.058C.176.057.21.073.25.105z"/></symbol><symbol id="n"><path d="M.377.184a.244.244 0 0 0-.07-.137A.17.17 0 0 0 .188 0a.172.172 0 0 0-.132.064A.251.251 0 0 0 0 .237c0 .07.02.127.063.171a.201.201 0 0 0 .15.066C.257.474.293.462.322.44.35.416.364.392.364.367a.04.04 0 0 0-.012-.03A.046.046 0 0 0 .32.324c-.02 0-.034.006-.044.019C.27.35.266.364.265.383a.063.063 0 0 1-.02.044.07.07 0 0 1-.048.014A.097.097 0 0 1 .12.405.192.192 0 0 1 .079.28c0-.054.013-.1.04-.142a.121.121 0 0 1 .106-.06c.032 0 .06.01.086.032A.22.22 0 0 1 .363.19L.377.184z"/></symbol><symbol id="o"><path d="M.156.694V.367a.37.37 0 0 0 .086.076.133.133 0 0 0 .064.017A.104.104 0 0 0 .37.44a.124.124 0 0 0 .04-.066.467.467 0 0 0 .01-.115V.101C.42.073.423.053.428.043A.038.038 0 0 1 .444.024.094.094 0 0 1 .487.018V0h-.22v.018h.01C.3.018.314.02.322.027a.052.052 0 0 1 .017.028C.34.06.34.075.34.101V.26C.34.31.337.34.332.355a.062.062 0 0 1-.064.046.113.113 0 0 1-.05-.012.238.238 0 0 1-.062-.052V.101c0-.03.002-.05.005-.057a.045.045 0 0 1 .02-.02.114.114 0 0 1 .048-.006V0H.007v.018c.02 0 .035.003.047.009.006.003.011.01.015.018.004.01.006.028.006.056v.405A.633.633 0 0 1 .071.6C.07.612.065.62.061.624A.03.03 0 0 1 .04.63.12.12 0 0 1 .007.623L0 .64l.134.054h.022z"/></symbol><symbol id="p"><path d="M.314.064A.23.23 0 0 0 .25.014.157.157 0 0 0 .183 0a.167.167 0 0 0-.128.061A.229.229 0 0 0 0 .219C0 .283.02.34.06.395c.04.053.093.08.156.08.04 0 .072-.013.098-.038V.52A.633.633 0 0 1 .31.614C.308.625.304.634.3.638a.03.03 0 0 1-.02.006.103.103 0 0 1-.033-.008L.239.653l.134.055h.022V.191c0-.052 0-.085.003-.096C.4.083.404.075.41.07A.03.03 0 0 1 .429.064c.009 0 .02.003.035.008L.469.055.336 0H.314v.064m0 .034v.23A.156.156 0 0 1 .296.39.1.1 0 0 1 .257.43.092.092 0 0 1 .21.444.1.1 0 0 1 .134.406C.104.372.089.322.089.257.09.192.104.141.132.106.161.071.192.054.228.054c.03 0 .058.015.086.044z"/></symbol><symbol id="q"><path d="M.215 0H0v.875h.215V.837H.073V.038h.142V0z"/></symbol><symbol id="r"><path d="m0 .597.161.079h.016v-.56C.177.08.18.057.182.048a.037.037 0 0 1 .02-.02A.164.164 0 0 1 .26.017V0H.01v.018c.032 0 .052.003.061.008.01.005.016.011.02.019a.262.262 0 0 1 .005.072v.357c0 .048-.002.08-.005.093A.038.038 0 0 1 .079.59a.032.032 0 0 1-.021.007.13.13 0 0 1-.05-.015L0 .597z"/></symbol><symbol id="s"><path d="M0 .876h.215V0H0v.039h.142v.798H0v.039z"/></symbol><symbol id="t"><path d="M0 0v.021C.034.033.06.05.078.073a.116.116 0 0 1 .027.074.027.027 0 0 1-.004.016C.1.166.097.167.094.167a.071.071 0 0 1-.023-.01.04.04 0 0 0-.019-.004.051.051 0 0 0-.038.014.053.053 0 0 0-.014.04c0 .015.006.029.018.04a.064.064 0 0 0 .045.017c.021 0 .04-.01.057-.028A.106.106 0 0 0 .146.162.144.144 0 0 0 .11.068.228.228 0 0 0 0 0z"/></symbol><symbol id="u"><path d="M.437.127.391 0H0v.018c.115.105.196.19.243.257.047.066.07.127.07.182a.144.144 0 0 1-.039.104.123.123 0 0 1-.092.04.144.144 0 0 1-.088-.029A.165.165 0 0 1 .037.49H.02c.008.06.029.106.063.138a.176.176 0 0 0 .126.049.186.186 0 0 0 .134-.052.163.163 0 0 0 .054-.122.236.236 0 0 0-.023-.1.663.663 0 0 0-.117-.168 3.477 3.477 0 0 0-.152-.16h.173c.035 0 .06.001.074.004a.099.099 0 0 1 .038.015c.012.008.021.02.03.034h.018z"/></symbol><symbol id="v"><path d="M.01.548A.268.268 0 0 0 .082.65a.162.162 0 0 0 .107.036.149.149 0 0 0 .123-.051.127.127 0 0 0 .032-.083c0-.048-.03-.098-.091-.15A.197.197 0 0 0 .345.336.177.177 0 0 0 .376.231.22.22 0 0 0 .322.082C.274.027.205 0 .115 0 .071 0 .04.006.024.017.008.027 0 .04 0 .052c0 .01.004.018.011.025a.04.04 0 0 0 .028.01.084.084 0 0 0 .025-.003.285.285 0 0 0 .038-.018.245.245 0 0 1 .04-.018.135.135 0 0 1 .039-.006c.033 0 .062.013.086.04a.127.127 0 0 1 .037.09A.176.176 0 0 1 .26.29a.199.199 0 0 1-.057.035.184.184 0 0 1-.075.016H.111v.015a.2.2 0 0 1 .077.028.147.147 0 0 1 .057.055.145.145 0 0 1 .018.07.108.108 0 0 1-.11.113C.103.621.06.594.026.54L.01.548z"/></symbol><symbol id="w"><path d="M.156.46v-.1c.037.067.076.1.115.1A.062.062 0 0 0 .315.444.05.05 0 0 0 .333.406.045.045 0 0 0 .32.374.04.04 0 0 0 .29.361C.279.36.266.366.251.377.237.39.227.395.221.395.213.395.207.39.2.385A.235.235 0 0 1 .156.319V.104C.156.08.159.061.165.048A.05.05 0 0 1 .187.026.099.099 0 0 1 .234.018V0h-.23v.018c.024 0 .04.003.052.01a.042.042 0 0 1 .017.025.251.251 0 0 1 .002.048v.173a.663.663 0 0 1-.003.093.035.035 0 0 1-.012.022.032.032 0 0 1-.02.007.097.097 0 0 1-.035-.008L0 .406.135.46h.02z"/></symbol><symbol id="x"><path d="M.45.244v-.07H.36V0H.28v.175H0v.062l.307.439h.054V.244H.45m-.17 0v.329L.048.244H.28z"/></symbol><symbol id="y"><path d="M0 .663h.208V.645h-.01C.184.645.173.642.165.635a.03.03 0 0 1-.01-.023C.154.599.16.582.17.559L.28.333l.1.248a.103.103 0 0 1 .008.04c0 .005-.001.01-.004.012a.025.025 0 0 1-.012.009.086.086 0 0 1-.03.003v.018h.146V.645A.07.07 0 0 1 .46.637.08.08 0 0 1 .44.615.305.305 0 0 1 .422.578L.24.13A.23.23 0 0 0 .17.033.135.135 0 0 0 .09 0a.068.068 0 0 0-.047.017.05.05 0 0 0-.02.038c0 .013.005.024.014.033C.046.096.058.1.073.1.084.1.1.097.117.09A.105.105 0 0 1 .142.081c.01 0 .02.005.031.015.012.01.024.03.035.059L.24.233.08.571a.27.27 0 0 1-.044.06A.11.11 0 0 1 0 .645v.018z"/></symbol><symbol id="z"><path d="M.155.694V.25L.27.353a.381.381 0 0 1 .042.042.021.021 0 0 1 .004.012.02.02 0 0 1-.008.016C.3.428.293.431.28.432v.015h.195V.432A.186.186 0 0 1 .408.419.217.217 0 0 1 .35.38L.235.273.35.128A1.02 1.02 0 0 1 .414.052a.133.133 0 0 1 .041-.03.128.128 0 0 1 .043-.004V0H.28v.018C.293.018.3.02.305.023a.018.018 0 0 1 .007.015c0 .007-.006.02-.02.036L.155.249V.101c0-.03.002-.048.006-.058A.04.04 0 0 1 .18.023.13.13 0 0 1 .228.019V0H0v.018c.023 0 .04.002.051.008.007.003.012.009.016.016.005.011.007.03.007.056v.407A.722.722 0 0 1 .071.6C.069.612.065.62.06.624a.03.03 0 0 1-.02.007.092.092 0 0 1-.032-.008L0 .64l.133.054h.022z"/></symbol><symbol id="A"><path d="M.156.384c.044.06.09.09.14.09.046 0 .086-.02.12-.059a.236.236 0 0 0 .052-.16.248.248 0 0 0-.08-.193.218.218 0 0 0-.23-.048.366.366 0 0 0-.082.043V.52c0 .05-.002.082-.004.094C.069.625.066.634.06.638a.03.03 0 0 1-.02.006.1.1 0 0 1-.034-.008L0 .653l.134.055h.022V.384m0-.031V.085A.194.194 0 0 1 .208.048.13.13 0 0 1 .262.036c.03 0 .057.016.083.048.025.033.038.08.038.143a.2.2 0 0 1-.038.131C.319.39.29.405.258.405A.113.113 0 0 1 .206.392a.224.224 0 0 1-.05-.04z"/></symbol><symbol id="B"><path d="M.002.617.14.672H.16V.568c.023.04.046.067.069.082a.13.13 0 0 0 .074.024.142.142 0 0 0 .112-.052A.25.25 0 0 0 .47.454.28.28 0 0 0 .403.262.176.176 0 0 0 .265.2a.172.172 0 0 0-.062.01.146.146 0 0 0-.044.03V.104c0-.031.001-.05.005-.059a.043.043 0 0 1 .02-.02.122.122 0 0 1 .05-.007V0H0v.018h.012c.018 0 .033.003.046.01.006.004.011.01.014.018a.196.196 0 0 1 .006.06V.53a.23.23 0 0 1-.004.055.033.033 0 0 1-.013.018.04.04 0 0 1-.023.006A.088.088 0 0 1 .008.6L.002.617M.16.539V.372c0-.036.001-.06.004-.071A.092.092 0 0 1 .196.25.104.104 0 0 1 .264.229c.032 0 .059.013.079.039a.22.22 0 0 1 .04.14c0 .068-.016.12-.046.157a.093.093 0 0 1-.12.027.272.272 0 0 1-.058-.053z"/></symbol><symbol id="C"><path d="M0 .46h.21V.444H.197C.184.443.174.44.167.433A.033.033 0 0 1 .157.41c0-.012.004-.025.011-.04L.272.12l.104.256A.122.122 0 0 1 .388.42.016.016 0 0 1 .384.43.026.026 0 0 1 .37.44a.123.123 0 0 1-.034.003V.46h.146V.443C.465.442.454.438.447.433a.125.125 0 0 1-.03-.05L.257 0h-.02L.079.377a.14.14 0 0 1-.02.038.08.08 0 0 1-.025.02A.122.122 0 0 1 0 .443V.46z"/></symbol><symbol id="D"><path d="M.054.108A.052.052 0 0 0 .093.092.052.052 0 0 0 .108.054.053.053 0 0 0 .092.016.052.052 0 0 0 .054 0 .053.053 0 0 0 0 .054C0 .07.005.082.016.093c.01.01.023.015.038.015z"/></symbol><use xlink:href="#k" transform="matrix(8.5 0 0 -8.5 46.702 27.017)"/><use xlink:href="#l" transform="matrix(8.5 0 0 -8.5 51.814 27.017)"/><use xlink:href="#c" transform="matrix(8.5 0 0 -8.5 54.375 27.133)"/><use xlink:href="#m" transform="matrix(8.5 0 0 -8.5 58.363 27.096)"/><use xlink:href="#d" transform="matrix(8.5 0 0 -8.5 61.975 27.133)"/><use xlink:href="#c" transform="matrix(8.5 0 0 -8.5 65.375 27.133)"/><use xlink:href="#j" transform="matrix(8.5 0 0 -8.5 69.06 27.017)"/><use xlink:href="#d" transform="matrix(8.5 0 0 -8.5 70.975 27.133)"/><use xlink:href="#c" transform="matrix(8.5 0 0 -8.5 74.375 27.133)"/><use xlink:href="#l" transform="matrix(8.5 0 0 -8.5 78.313 27.017)"/><use xlink:href="#c" transform="matrix(8.5 0 0 -8.5 80.874 27.133)"/><use xlink:href="#n" transform="matrix(8.5 0 0 -8.5 84.85 27.133)"/><use xlink:href="#e" transform="matrix(8.5 0 0 -8.5 88.642 27.079)"/><use xlink:href="#j" transform="matrix(8.5 0 0 -8.5 91.058 27.017)"/><use xlink:href="#e" transform="matrix(8.5 0 0 -8.5 92.64 27.079)"/><use xlink:href="#o" transform="matrix(8.5 0 0 -8.5 95.11 27.017)"/><use xlink:href="#c" transform="matrix(8.5 0 0 -8.5 99.372 27.133)"/><use xlink:href="#j" transform="matrix(8.5 0 0 -8.5 103.057 27.017)"/><use xlink:href="#m" transform="matrix(8.5 0 0 -8.5 105.36 27.096)"/><use xlink:href="#b" transform="matrix(8.5 0 0 -8.5 108.565 27.133)"/><use xlink:href="#p" transform="matrix(8.5 0 0 -8.5 112.839 27.133)"/><use xlink:href="#f" transform="matrix(8.5 0 0 -8.5 116.806 27.017)"/><use xlink:href="#g" transform="matrix(8.5 0 0 -8.5 119.342 27.133)"/><use xlink:href="#j" transform="matrix(8.5 0 0 -8.5 123.556 27.017)"/><use xlink:href="#q" transform="matrix(8.5 0 0 -8.5 126.753 28.702)"/><use xlink:href="#m" transform="matrix(8.5 0 0 -8.5 128.858 27.096)"/><use xlink:href="#b" transform="matrix(8.5 0 0 -8.5 132.064 27.133)"/><use xlink:href="#p" transform="matrix(8.5 0 0 -8.5 136.338 27.133)"/><use xlink:href="#f" transform="matrix(8.5 0 0 -8.5 140.304 27.017)"/><use xlink:href="#g" transform="matrix(8.5 0 0 -8.5 142.84 27.133)"/><use xlink:href="#r" transform="matrix(8.5 0 0 -8.5 148.05 27.017)"/><use xlink:href="#s" transform="matrix(8.5 0 0 -8.5 151.866 28.706)"/><use xlink:href="#t" transform="matrix(8.5 0 0 -8.5 154.51 28.432)"/><use xlink:href="#j" transform="matrix(8.5 0 0 -8.5 156.054 27.017)"/><use xlink:href="#q" transform="matrix(8.5 0 0 -8.5 9.756 39.2)"/><use xlink:href="#m" transform="matrix(8.5 0 0 -8.5 11.862 37.593)"/><use xlink:href="#b" transform="matrix(8.5 0 0 -8.5 15.068 37.63)"/><use xlink:href="#p" transform="matrix(8.5 0 0 -8.5 19.345 37.63)"/><use xlink:href="#f" transform="matrix(8.5 0 0 -8.5 23.315 37.514)"/><use xlink:href="#g" transform="matrix(8.5 0 0 -8.5 25.853 37.63)"/><use xlink:href="#u" transform="matrix(8.5 0 0 -8.5 30.249 37.514)"/><use xlink:href="#s" transform="matrix(8.5 0 0 -8.5 34.878 39.203)"/><use xlink:href="#t" transform="matrix(8.5 0 0 -8.5 37.523 38.93)"/><use xlink:href="#j" transform="matrix(8.5 0 0 -8.5 39.067 37.514)"/><use xlink:href="#q" transform="matrix(8.5 0 0 -8.5 43.263 39.2)"/><use xlink:href="#m" transform="matrix(8.5 0 0 -8.5 45.37 37.593)"/><use xlink:href="#b" transform="matrix(8.5 0 0 -8.5 48.575 37.63)"/><use xlink:href="#p" transform="matrix(8.5 0 0 -8.5 52.852 37.63)"/><use xlink:href="#f" transform="matrix(8.5 0 0 -8.5 56.822 37.514)"/><use xlink:href="#g" transform="matrix(8.5 0 0 -8.5 59.36 37.63)"/><use xlink:href="#v" transform="matrix(8.5 0 0 -8.5 63.918 37.614)"/><use xlink:href="#s" transform="matrix(8.5 0 0 -8.5 68.385 39.203)"/><use xlink:href="#t" transform="matrix(8.5 0 0 -8.5 71.03 38.93)"/><use xlink:href="#j" transform="matrix(8.5 0 0 -8.5 72.574 37.514)"/><use xlink:href="#g" transform="matrix(8.5 0 0 -8.5 75.86 37.63)"/><use xlink:href="#w" transform="matrix(8.5 0 0 -8.5 80.128 37.514)"/><use xlink:href="#j" transform="matrix(8.5 0 0 -8.5 83.074 37.514)"/><use xlink:href="#q" transform="matrix(8.5 0 0 -8.5 85.771 39.2)"/><use xlink:href="#m" transform="matrix(8.5 0 0 -8.5 87.878 37.593)"/><use xlink:href="#b" transform="matrix(8.5 0 0 -8.5 91.082 37.63)"/><use xlink:href="#p" transform="matrix(8.5 0 0 -8.5 95.36 37.63)"/><use xlink:href="#f" transform="matrix(8.5 0 0 -8.5 99.33 37.514)"/><use xlink:href="#g" transform="matrix(8.5 0 0 -8.5 101.868 37.63)"/><use xlink:href="#x" transform="matrix(8.5 0 0 -8.5 106.215 37.514)"/><use xlink:href="#s" transform="matrix(8.5 0 0 -8.5 110.893 39.203)"/><use xlink:href="#j" transform="matrix(8.5 0 0 -8.5 113.082 37.514)"/><use xlink:href="#e" transform="matrix(8.5 0 0 -8.5 116.165 37.576)"/><use xlink:href="#o" transform="matrix(8.5 0 0 -8.5 118.636 37.514)"/><use xlink:href="#m" transform="matrix(8.5 0 0 -8.5 122.888 37.593)"/><use xlink:href="#e" transform="matrix(8.5 0 0 -8.5 126.168 37.576)"/><use xlink:href="#j" transform="matrix(8.5 0 0 -8.5 128.586 37.514)"/><use xlink:href="#y" transform="matrix(8.5 0 0 -8.5 131.134 39.349)"/><use xlink:href="#g" transform="matrix(8.5 0 0 -8.5 135.374 37.63)"/><use xlink:href="#b" transform="matrix(8.5 0 0 -8.5 139.596 37.63)"/><use xlink:href="#j" transform="matrix(8.5 0 0 -8.5 143.591 37.514)"/><use xlink:href="#e" transform="matrix(8.5 0 0 -8.5 146.173 37.576)"/><use xlink:href="#o" transform="matrix(8.5 0 0 -8.5 148.645 37.514)"/><use xlink:href="#f" transform="matrix(8.5 0 0 -8.5 152.844 37.514)"/><use xlink:href="#h" transform="matrix(8.5 0 0 -8.5 155.144 37.514)"/><use xlink:href="#z" transform="matrix(8.5 0 0 -8.5 159.168 37.514)"/><use xlink:href="#j" transform="matrix(8.5 0 0 -8.5 163.101 37.514)"/><use xlink:href="#A" transform="matrix(8.5 0 0 -8.5 9.038 47.626)"/><use xlink:href="#c" transform="matrix(8.5 0 0 -8.5 13.378 47.626)"/><use xlink:href="#d" transform="matrix(8.5 0 0 -8.5 17.478 47.626)"/><use xlink:href="#e" transform="matrix(8.5 0 0 -8.5 20.646 47.572)"/><use xlink:href="#j" transform="matrix(8.5 0 0 -8.5 23.063 47.51)"/><use xlink:href="#n" transform="matrix(8.5 0 0 -8.5 25.35 47.626)"/><use xlink:href="#g" transform="matrix(8.5 0 0 -8.5 29.347 47.626)"/><use xlink:href="#w" transform="matrix(8.5 0 0 -8.5 33.614 47.51)"/><use xlink:href="#w" transform="matrix(8.5 0 0 -8.5 36.614 47.51)"/><use xlink:href="#c" transform="matrix(8.5 0 0 -8.5 39.876 47.626)"/><use xlink:href="#d" transform="matrix(8.5 0 0 -8.5 43.976 47.626)"/><use xlink:href="#B" transform="matrix(8.5 0 0 -8.5 47.032 49.328)"/><use xlink:href="#g" transform="matrix(8.5 0 0 -8.5 51.347 47.626)"/><use xlink:href="#h" transform="matrix(8.5 0 0 -8.5 55.61 47.51)"/><use xlink:href="#p" transform="matrix(8.5 0 0 -8.5 59.847 47.626)"/><use xlink:href="#d" transform="matrix(8.5 0 0 -8.5 63.983 47.626)"/><use xlink:href="#j" transform="matrix(8.5 0 0 -8.5 67.067 47.51)"/><use xlink:href="#e" transform="matrix(8.5 0 0 -8.5 68.65 47.572)"/><use xlink:href="#g" transform="matrix(8.5 0 0 -8.5 71.354 47.626)"/><use xlink:href="#j" transform="matrix(8.5 0 0 -8.5 75.567 47.51)"/><use xlink:href="#e" transform="matrix(8.5 0 0 -8.5 77.648 47.572)"/><use xlink:href="#o" transform="matrix(8.5 0 0 -8.5 80.12 47.51)"/><use xlink:href="#c" transform="matrix(8.5 0 0 -8.5 84.385 47.626)"/><use xlink:href="#j" transform="matrix(8.5 0 0 -8.5 88.07 47.51)"/><use xlink:href="#p" transform="matrix(8.5 0 0 -8.5 90.349 47.626)"/><use xlink:href="#m" transform="matrix(8.5 0 0 -8.5 94.369 47.589)"/><use xlink:href="#h" transform="matrix(8.5 0 0 -8.5 97.616 47.51)"/><use xlink:href="#n" transform="matrix(8.5 0 0 -8.5 101.86 47.626)"/><use xlink:href="#c" transform="matrix(8.5 0 0 -8.5 105.885 47.626)"/><use xlink:href="#j" transform="matrix(8.5 0 0 -8.5 109.57 47.51)"/><use xlink:href="#f" transform="matrix(8.5 0 0 -8.5 112.819 47.51)"/><use xlink:href="#h" transform="matrix(8.5 0 0 -8.5 115.12 47.51)"/><use xlink:href="#j" transform="matrix(8.5 0 0 -8.5 119.07 47.51)"/><use xlink:href="#q" transform="matrix(8.5 0 0 -8.5 121.764 49.195)"/><use xlink:href="#C" transform="matrix(8.5 0 0 -8.5 123.637 47.626)"/><use xlink:href="#f" transform="matrix(8.5 0 0 -8.5 127.316 47.51)"/><use xlink:href="#p" transform="matrix(8.5 0 0 -8.5 129.85 47.626)"/><use xlink:href="#c" transform="matrix(8.5 0 0 -8.5 133.886 47.626)"/><use xlink:href="#g" transform="matrix(8.5 0 0 -8.5 137.857 47.626)"/><use xlink:href="#r" transform="matrix(8.5 0 0 -8.5 143.067 47.51)"/><use xlink:href="#s" transform="matrix(8.5 0 0 -8.5 146.882 49.2)"/><use xlink:href="#D" transform="matrix(8.5 0 0 -8.5 149.672 47.626)"/><symbol id="E"><path d="M.45.222H.193L.148.117A.165.165 0 0 1 .132.06c0-.01.005-.02.014-.027C.156.025.176.02.208.018V0H0v.018c.028.005.046.011.054.02a.3.3 0 0 1 .055.094l.233.545h.017l.23-.55A.258.258 0 0 1 .64.04.105.105 0 0 1 .704.018V0H.442v.018C.468.02.486.024.495.031.505.04.51.048.51.06a.202.202 0 0 1-.02.067L.45.222M.437.258.324.525.208.258h.228z"/></symbol><symbol id="F"><path d="M.445.338A.212.212 0 0 0 .548.29a.146.146 0 0 0 .048-.11.165.165 0 0 0-.032-.095A.18.18 0 0 0 .48.021.5.5 0 0 0 .313 0H0v.018h.025c.028 0 .047.009.06.026.007.012.01.036.01.073v.428c0 .04-.004.067-.013.078C.069.637.05.644.025.644H0v.018h.286A.565.565 0 0 0 .415.65.205.205 0 0 0 .526.588.152.152 0 0 0 .535.396a.178.178 0 0 0-.09-.058M.19.364A.409.409 0 0 1 .282.357c.047 0 .083.005.107.016.024.01.042.026.055.047a.132.132 0 0 1 .019.07.127.127 0 0 1-.047.098C.384.616.338.63.277.63A.332.332 0 0 1 .19.62V.364m0-.316A.492.492 0 0 1 .301.035c.06 0 .104.013.135.04C.467.1.482.133.482.172c0 .026-.007.05-.02.074a.14.14 0 0 1-.069.056.295.295 0 0 1-.117.02A1.165 1.165 0 0 1 .189.32V.048z"/></symbol><symbol id="G"><path d="M.167.412V.118C.167.076.172.05.181.04A.06.06 0 0 1 .23.018H.27V0H.003v.018h.02c.013 0 .025.003.036.01A.05.05 0 0 1 .08.053a.213.213 0 0 1 .006.064v.294H0v.035h.087v.03c0 .044.007.082.021.113a.18.18 0 0 0 .165.104A.15.15 0 0 0 .368.66C.387.646.396.63.396.61A.04.04 0 0 0 .383.584.038.038 0 0 0 .356.57a.046.046 0 0 0-.024.008.138.138 0 0 0-.03.035.122.122 0 0 1-.033.036.063.063 0 0 1-.034.01.06.06 0 0 1-.038-.013.066.066 0 0 1-.023-.037.692.692 0 0 1-.007-.13V.447h.116V.412H.167z"/></symbol><use xlink:href="#E" transform="matrix(9 0 0 -9 9.131 58.517)"/><use xlink:href="#i" transform="matrix(9 0 0 -9 15.835 58.64)"/><use xlink:href="#j" transform="matrix(9 0 0 -9 17.061 58.517)"/><use xlink:href="#e" transform="matrix(9 0 0 -9 20.65 58.583)"/><use xlink:href="#o" transform="matrix(9 0 0 -9 23.12 58.517)"/><use xlink:href="#c" transform="matrix(9 0 0 -9 27.897 58.64)"/><use xlink:href="#j" transform="matrix(9 0 0 -9 31.56 58.517)"/><use xlink:href="#d" transform="matrix(9 0 0 -9 33.997 58.64)"/><use xlink:href="#c" transform="matrix(9 0 0 -9 37.392 58.64)"/><use xlink:href="#n" transform="matrix(9 0 0 -9 41.362 58.64)"/><use xlink:href="#g" transform="matrix(9 0 0 -9 45.354 58.64)"/><use xlink:href="#h" transform="matrix(9 0 0 -9 49.603 58.517)"/><use xlink:href="#p" transform="matrix(9 0 0 -9 54.35 58.64)"/><use xlink:href="#j" transform="matrix(9 0 0 -9 58.55 58.517)"/><use xlink:href="#m" transform="matrix(9 0 0 -9 61.371 58.6)"/><use xlink:href="#b" transform="matrix(9 0 0 -9 65.055 58.64)"/><use xlink:href="#p" transform="matrix(9 0 0 -9 69.845 58.64)"/><use xlink:href="#f" transform="matrix(9 0 0 -9 74.31 58.517)"/><use xlink:href="#g" transform="matrix(9 0 0 -9 76.35 58.64)"/><use xlink:href="#j" transform="matrix(9 0 0 -9 80.546 58.517)"/><use xlink:href="#F" transform="matrix(9 0 0 -9 83.196 58.517)"/><use xlink:href="#i" transform="matrix(9 0 0 -9 89.823 58.64)"/><use xlink:href="#j" transform="matrix(9 0 0 -9 91.05 58.517)"/><use xlink:href="#e" transform="matrix(9 0 0 -9 94.137 58.583)"/><use xlink:href="#o" transform="matrix(9 0 0 -9 96.608 58.517)"/><use xlink:href="#c" transform="matrix(9 0 0 -9 101.385 58.64)"/><use xlink:href="#j" transform="matrix(9 0 0 -9 105.047 58.517)"/><use xlink:href="#G" transform="matrix(9 0 0 -9 107.392 58.517)"/><use xlink:href="#f" transform="matrix(9 0 0 -9 110.306 58.517)"/><use xlink:href="#w" transform="matrix(9 0 0 -9 112.099 58.517)"/><use xlink:href="#d" transform="matrix(9 0 0 -9 115.478 58.64)"/><use xlink:href="#e" transform="matrix(9 0 0 -9 118.628 58.583)"/><use xlink:href="#j" transform="matrix(9 0 0 -9 121.042 58.517)"/><use xlink:href="#m" transform="matrix(9 0 0 -9 124.363 58.6)"/><use xlink:href="#b" transform="matrix(9 0 0 -9 128.047 58.64)"/><use xlink:href="#p" transform="matrix(9 0 0 -9 132.837 58.64)"/><use xlink:href="#f" transform="matrix(9 0 0 -9 137.302 58.517)"/><use xlink:href="#g" transform="matrix(9 0 0 -9 139.341 58.64)"/><g data-name="P"><symbol id="H"><path d="M.628.692v-.23h-.02a.244.244 0 0 1-.08.139A.204.204 0 0 1 .208.52.422.422 0 0 1 .176.355c0-.059.007-.113.022-.162a.217.217 0 0 1 .07-.11.197.197 0 0 1 .125-.037c.041 0 .08.009.114.027.035.018.071.05.11.094V.11A.364.364 0 0 0 .5.026.353.353 0 0 0 .36 0 .406.406 0 0 0 .17.042a.302.302 0 0 0-.127.123.352.352 0 0 0 .005.35.364.364 0 0 0 .46.148.227.227 0 0 1 .058-.018c.01 0 .02.003.027.01.008.009.013.02.015.037h.019z"/></symbol><symbol id="I"><path d="M.082.482A.077.077 0 0 0 .139.458.077.077 0 0 0 .163.401.079.079 0 0 0 .139.343.078.078 0 0 0 .082.32a.08.08 0 0 0-.058.023A.08.08 0 0 0 0 .401c0 .022.008.041.024.057a.079.079 0 0 0 .058.024m0-.32A.078.078 0 0 0 .138.14.079.079 0 0 0 .163.08.079.079 0 0 0 .139.023.08.08 0 0 0 .08 0a.08.08 0 0 0-.058.023A.08.08 0 0 0 0 .081.08.08 0 0 0 .023.14a.079.079 0 0 0 .058.024z"/></symbol><symbol id="J"><path d="M0 0z"/></symbol><symbol id="K"><path d="M.196.63V.463h.109V.415H.196V.133C.196.106.197.089.2.082A.04.04 0 0 1 .213.063.03.03 0 0 1 .23.056c.021 0 .041.016.06.048l.015-.01C.278.03.235 0 .176 0a.115.115 0 0 0-.073.024.108.108 0 0 0-.039.054.46.46 0 0 0-.004.09v.247H0v.017A.55.55 0 0 1 .18.63h.016z"/></symbol><symbol id="L"><path d="M.186.662V.398a.274.274 0 0 0 .069.056C.275.464.297.47.32.47A.113.113 0 0 0 .393.446a.114.114 0 0 0 .04-.058.415.415 0 0 0 .01-.11V.098c0-.035.004-.057.01-.065C.46.025.474.02.494.018V0H.262v.018a.053.053 0 0 1 .036.02c.006.008.01.028.01.061v.204a.328.328 0 0 1-.005.07.041.041 0 0 1-.015.023.036.036 0 0 1-.024.008.064.064 0 0 1-.038-.013.17.17 0 0 1-.04-.047V.099A.15.15 0 0 1 .193.04C.2.026.213.02.231.017V0H0v.018C.02.02.033.026.041.036.047.043.049.064.049.1v.464C.05.597.046.619.04.627.034.636.02.641 0 .644v.018h.186z"/></symbol><symbol id="M"><path d="M.382.258h-.25A.236.236 0 0 1 .18.115a.102.102 0 0 1 .08-.04C.28.074.299.08.315.09a.21.21 0 0 1 .051.06L.382.138A.279.279 0 0 0 .3.03.178.178 0 0 0 .196 0a.173.173 0 0 0-.154.078A.276.276 0 0 0 0 .234c0 .077.02.137.062.182a.19.19 0 0 0 .145.068.156.156 0 0 0 .12-.057C.36.389.379.333.382.258m-.12.033a.438.438 0 0 1-.01.108.087.087 0 0 1-.025.044.04.04 0 0 1-.028.01C.182.452.17.442.158.426a.214.214 0 0 1-.03-.119V.291h.134z"/></symbol><symbol id="N"><path d="M.123.678C.144.678.163.67.177.655A.072.072 0 0 0 .199.602.072.072 0 0 0 .176.55.072.072 0 0 0 .123.527.072.072 0 0 0 .07.549a.072.072 0 0 0-.022.053c0 .02.007.039.022.053a.072.072 0 0 0 .053.023M.191.457V.095c0-.033.004-.053.012-.062C.21.023.225.019.247.018V0H0v.018c.02 0 .035.006.045.017.006.008.01.027.01.06V.36C.055.394.05.414.043.423.036.432.021.437 0 .438v.019h.191z"/></symbol><symbol id="O"><path d="M.187.457V.353a.33.33 0 0 0 .08.094.117.117 0 0 0 .065.023.057.057 0 0 0 .043-.017C.387.443.392.426.392.406A.074.074 0 0 0 .376.355.049.049 0 0 0 .338.337a.066.066 0 0 0-.045.017.274.274 0 0 1-.022.018.021.021 0 0 1-.012.003.041.041 0 0 1-.027-.01.101.101 0 0 1-.03-.048.332.332 0 0 1-.015-.105V.08C.187.062.188.05.19.044a.04.04 0 0 1 .018-.02.107.107 0 0 1 .039-.006V0H0v.018c.02.001.033.007.04.016.007.01.01.034.01.073V.36a.19.19 0 0 1-.003.05.04.04 0 0 1-.014.02A.075.075 0 0 1 0 .438v.019h.187z"/></symbol><symbol id="P"><path d="M.439.676V.15c0-.035 0-.056.003-.063A.04.04 0 0 1 .457.063a.08.08 0 0 1 .038-.01V.039L.302 0v.072A.238.238 0 0 0 .24.015.122.122 0 0 0 .18 0 .157.157 0 0 0 .04.078.281.281 0 0 0 0 .234c0 .049.008.093.025.132.017.039.04.068.07.088.03.02.061.03.095.03A.128.128 0 0 0 .248.47.195.195 0 0 0 .302.427v.137a.246.246 0 0 1-.004.063.042.042 0 0 1-.018.021.097.097 0 0 1-.044.007v.02H.44M.302.367C.278.412.25.436.214.436a.045.045 0 0 1-.03-.01.111.111 0 0 1-.03-.053.445.445 0 0 1-.01-.117c0-.058.003-.1.012-.128A.124.124 0 0 1 .19.068a.047.047 0 0 1 .031-.01c.029 0 .056.023.081.068v.24z"/></symbol><symbol id="Q"><path d="M.24.074C.186.024.136 0 .09 0A.087.087 0 0 0 0 .09c0 .035.015.066.045.094.03.028.095.065.196.11v.047a.21.21 0 0 1-.006.065.05.05 0 0 1-.021.023.063.063 0 0 1-.035.01.09.09 0 0 1-.053-.014C.118.42.114.413.114.405c0-.007.004-.016.013-.026C.14.365.146.352.146.34A.054.054 0 0 0 .128.298.065.065 0 0 0 .082.28.075.075 0 0 0 .03.3a.057.057 0 0 0-.02.043.1.1 0 0 0 .027.067.175.175 0 0 0 .078.05.317.317 0 0 0 .103.017c.044 0 .078-.01.103-.028a.128.128 0 0 0 .05-.06.388.388 0 0 0 .006-.094V.118c0-.021 0-.034.002-.04A.023.023 0 0 1 .387.066a.017.017 0 0 1 .01-.004c.01 0 .018.007.027.019L.438.069a.18.18 0 0 0-.05-.053A.11.11 0 0 0 .328 0a.093.093 0 0 0-.06.018.084.084 0 0 0-.027.056m0 .035v.153A.285.285 0 0 1 .153.188a.09.09 0 0 1-.02-.053C.134.12.14.107.15.095A.044.044 0 0 1 .184.082C.2.082.22.092.241.109z"/></symbol><symbol id="R"><path d="M.444.47V.113c0-.035.003-.057.01-.066C.46.04.474.034.494.031V.014H.306v.06A.239.239 0 0 0 .242.019.152.152 0 0 0 .168 0 .11.11 0 0 0 .1.023.118.118 0 0 0 .06.08a.409.409 0 0 0-.01.11v.182C.05.406.045.427.04.436.033.444.02.45 0 .452V.47h.186V.158C.186.126.188.105.19.095A.044.044 0 0 1 .205.074.04.04 0 0 1 .23.066C.24.066.25.07.26.076a.202.202 0 0 1 .047.051v.244c0 .035-.003.056-.01.065C.291.444.278.45.257.452V.47h.187z"/></symbol><symbol id="S"><path d="M.213.484c.04 0 .077-.01.11-.03.035-.021.06-.05.078-.088A.286.286 0 0 0 .428.242a.262.262 0 0 0-.05-.163A.195.195 0 0 0 .215 0a.188.188 0 0 0-.158.072A.267.267 0 0 0 0 .24a.27.27 0 0 0 .057.17c.038.05.09.074.156.074M.215.449A.057.057 0 0 1 .172.43C.16.418.152.393.148.356A1.687 1.687 0 0 1 .143.202C.143.167.145.135.15.104A.094.094 0 0 1 .173.052a.054.054 0 0 1 .04-.018C.228.034.24.038.25.046a.082.082 0 0 1 .025.046 1.127 1.127 0 0 1 0 .302.087.087 0 0 1-.027.045.051.051 0 0 1-.033.01z"/></symbol><use xlink:href="#H" transform="matrix(9 0 0 -9 9.417 69.153)"/><use xlink:href="#I" transform="matrix(9 0 0 -9 16.328 69.127)"/><use xlink:href="#J" transform="matrix(9 0 0 -9 18.06 69.017)"/><use xlink:href="#K" transform="matrix(9 0 0 -9 21.223 69.074)"/><use xlink:href="#L" transform="matrix(9 0 0 -9 24.36 69.017)"/><use xlink:href="#M" transform="matrix(9 0 0 -9 29.4 69.14)"/><use xlink:href="#J" transform="matrix(9 0 0 -9 33.049 69.017)"/><use xlink:href="#K" transform="matrix(9 0 0 -9 35.216 69.074)"/><use xlink:href="#L" transform="matrix(9 0 0 -9 38.353 69.017)"/><use xlink:href="#N" transform="matrix(9 0 0 -9 43.234 69.017)"/><use xlink:href="#O" transform="matrix(9 0 0 -9 45.881 69.017)"/><use xlink:href="#P" transform="matrix(9 0 0 -9 49.398 69.14)"/><use xlink:href="#J" transform="matrix(9 0 0 -9 54.055 69.017)"/><use xlink:href="#Q" transform="matrix(9 0 0 -9 57.456 69.074)"/><use xlink:href="#R" transform="matrix(9 0 0 -9 61.829 69.14)"/><use xlink:href="#P" transform="matrix(9 0 0 -9 66.899 69.14)"/><use xlink:href="#N" transform="matrix(9 0 0 -9 71.74 69.017)"/><use xlink:href="#S" transform="matrix(9 0 0 -9 74.383 69.14)"/><use xlink:href="#J" transform="matrix(9 0 0 -9 79.058 69.017)"/><path d="M44.81 70.517H9.06v.5h71.5v-.5z"/><symbol id="T"><path d="M0 0v.018h.025c.028 0 .048.009.06.027.007.01.01.035.01.072v.428c0 .041-.004.067-.013.078C.069.637.05.644.025.644H0v.018h.27A.587.587 0 0 0 .495.628.267.267 0 0 0 .62.516.345.345 0 0 0 .667.334a.331.331 0 0 0-.084-.23C.52.034.424 0 .296 0H0m.189.048A.499.499 0 0 1 .293.034c.075 0 .138.027.188.08.05.053.075.125.075.216A.302.302 0 0 1 .48.546a.252.252 0 0 1-.192.079.415.415 0 0 1-.1-.014V.048z"/></symbol><use xlink:href="#T" transform="matrix(9 0 0 -9 80.715 69.017)"/><use xlink:href="#i" transform="matrix(9 0 0 -9 87.833 69.14)"/><use xlink:href="#j" transform="matrix(9 0 0 -9 89.059 69.017)"/><use xlink:href="#e" transform="matrix(9 0 0 -9 92.147 69.083)"/><use xlink:href="#o" transform="matrix(9 0 0 -9 94.619 69.017)"/><use xlink:href="#c" transform="matrix(9 0 0 -9 99.395 69.14)"/><use xlink:href="#j" transform="matrix(9 0 0 -9 103.057 69.017)"/><use xlink:href="#G" transform="matrix(9 0 0 -9 105.403 69.017)"/><use xlink:href="#g" transform="matrix(9 0 0 -9 108.356 69.14)"/><use xlink:href="#b" transform="matrix(9 0 0 -9 112.561 69.14)"/><use xlink:href="#w" transform="matrix(9 0 0 -9 117.11 69.017)"/><use xlink:href="#e" transform="matrix(9 0 0 -9 120.137 69.083)"/><use xlink:href="#o" transform="matrix(9 0 0 -9 122.609 69.017)"/><use xlink:href="#j" transform="matrix(9 0 0 -9 127.052 69.017)"/><use xlink:href="#m" transform="matrix(9 0 0 -9 129.872 69.1)"/><use xlink:href="#b" transform="matrix(9 0 0 -9 133.556 69.14)"/><use xlink:href="#p" transform="matrix(9 0 0 -9 138.346 69.14)"/><use xlink:href="#f" transform="matrix(9 0 0 -9 142.81 69.017)"/><use xlink:href="#g" transform="matrix(9 0 0 -9 144.85 69.14)"/></g><g data-name="Figure"><path d="M2.05 3.828h169.5v11.5H2.05z" fill="#f5f5f5" fill-rule="evenodd"/><path stroke-miterlimit="8" fill="none" stroke="#767171" d="M2.05 3.828h169.5v11.5H2.05z"/></g><symbol id="U"><path d="M.393 0 .137.557V.115C.137.075.14.049.15.039.162.025.18.019.207.019H.23V0H0v.018h.023c.028 0 .048.009.06.025.007.01.01.035.01.072v.432c0 .03-.003.05-.009.064a.053.053 0 0 1-.025.023.13.13 0 0 1-.059.01v.018h.188l.24-.518.236.518h.188V.644H.829C.8.644.78.636.769.619.76.609.758.584.758.547V.115c0-.04.004-.066.013-.076C.784.025.803.019.83.019h.023V0H.57v.018h.024c.028 0 .048.009.06.025.006.01.01.035.01.072v.442L.41 0H.393z"/></symbol><symbol id="V"><path d="M.121.379a.148.148 0 0 0-.085.135c0 .044.017.083.05.114a.179.179 0 0 0 .128.048c.043 0 .08-.01.111-.031H.42L.444.644A.007.007 0 0 0 .45.64C.451.637.452.632.452.624S.452.61.45.606A.01.01 0 0 0 .444.603.104.104 0 0 0 .42.6H.362a.142.142 0 0 0 .027-.09.14.14 0 0 0-.048-.107A.181.181 0 0 0 .213.36a.25.25 0 0 0-.068.01.131.131 0 0 1-.03-.033.052.052 0 0 1-.007-.024c0-.005.003-.01.008-.016C.122.292.132.288.148.287A.841.841 0 0 1 .216.282C.283.28.326.279.346.276A.121.121 0 0 0 .42.242.092.092 0 0 0 .446.175C.446.138.43.104.395.07A.28.28 0 0 0 .195 0a.285.285 0 0 0-.158.042C.012.06 0 .076 0 .093 0 .101.002.11.005.117a.273.273 0 0 0 .035.05L.09.22a.166.166 0 0 0-.037.027.041.041 0 0 0-.01.027c0 .011.005.025.014.04.01.015.03.037.064.065m.085.274a.076.076 0 0 1-.06-.029C.129.604.12.575.12.536a.19.19 0 0 1 .033-.12A.079.079 0 0 1 .22.384c.024 0 .045.01.06.028.017.018.025.047.025.087A.196.196 0 0 1 .27.621a.077.077 0 0 1-.064.032M.116.216A.24.24 0 0 1 .082.169.084.084 0 0 1 .07.13C.07.115.08.102.098.09A.27.27 0 0 1 .24.059c.059 0 .102.01.13.03C.397.11.41.133.41.157.41.173.402.185.386.192a.326.326 0 0 1-.1.013C.211.207.155.21.115.215z"/></symbol><use xlink:href="#T" transform="matrix(10 0 0 -10 31.792 13.175)"/><use xlink:href="#m" transform="matrix(10 0 0 -10 38.977 13.268)"/><use xlink:href="#h" transform="matrix(10 0 0 -10 43.18 13.175)"/><use xlink:href="#n" transform="matrix(10 0 0 -10 47.963 13.312)"/><use xlink:href="#c" transform="matrix(10 0 0 -10 52.492 13.312)"/><use xlink:href="#j" transform="matrix(10 0 0 -10 56.62 13.175)"/><use xlink:href="#m" transform="matrix(10 0 0 -10 60.477 13.268)"/><use xlink:href="#h" transform="matrix(10 0 0 -10 64.68 13.175)"/><use xlink:href="#p" transform="matrix(10 0 0 -10 69.453 13.312)"/><use xlink:href="#j" transform="matrix(10 0 0 -10 74.12 13.175)"/><use xlink:href="#U" transform="matrix(10 0 0 -10 77.287 13.175)"/><use xlink:href="#b" transform="matrix(10 0 0 -10 85.63 13.312)"/><use xlink:href="#d" transform="matrix(10 0 0 -10 90.61 13.312)"/><use xlink:href="#f" transform="matrix(10 0 0 -10 94.414 13.175)"/><use xlink:href="#n" transform="matrix(10 0 0 -10 97.463 13.312)"/><use xlink:href="#j" transform="matrix(10 0 0 -10 101.62 13.175)"/><use xlink:href="#U" transform="matrix(10 0 0 -10 104.787 13.175)"/><use xlink:href="#m" transform="matrix(10 0 0 -10 113.477 13.268)"/><use xlink:href="#e" transform="matrix(10 0 0 -10 117.718 13.248)"/><use xlink:href="#n" transform="matrix(10 0 0 -10 120.463 13.312)"/><use xlink:href="#o" transform="matrix(10 0 0 -10 124.684 13.175)"/><use xlink:href="#f" transform="matrix(10 0 0 -10 129.415 13.175)"/><use xlink:href="#h" transform="matrix(10 0 0 -10 132.18 13.175)"/><use xlink:href="#V" transform="matrix(10 0 0 -10 136.92 15.333)"/></svg>