<svg xmlns="http://www.w3.org/2000/svg" xmlns:xlink="http://www.w3.org/1999/xlink" width="230.264" height="138.808" viewBox="0 0 172.698 104.106"><g data-name="Artifact"><path d="M-614.905 529.784h960v-540h-960z" fill="#fff" data-name="背景"/></g><g data-name="Figure"><path d="M1.595 1.284h169.5v100H1.595z" fill="#d3d2e5" fill-rule="evenodd"/><path stroke-miterlimit="8" fill="none" stroke="#767171" d="M1.595 1.284h169.5v100H1.595z"/></g><symbol id="a"><path d="M.405.188A.39.39 0 0 1 .513.062.262.262 0 0 1 .645.016V0a.618.618 0 0 0-.29.096.703.703 0 0 0-.118.092.47.47 0 0 0-.112.06.33.33 0 0 0-.125.28c0 .1.032.181.096.247a.314.314 0 0 0 .458 0A.342.342 0 0 0 .649.525.35.35 0 0 0 .405.188M.323.835A.179.179 0 0 1 .18.772C.135.719.112.638.112.528c0-.107.023-.19.07-.247A.173.173 0 0 1 .322.214c.061 0 .11.022.148.067.044.052.066.13.066.233a.49.49 0 0 1-.036.2.186.186 0 0 1-.178.122z"/></symbol><symbol id="b"><path d="M.422.46V.19c0-.052.002-.084.004-.095C.428.083.432.075.438.07A.03.03 0 0 1 .457.064c.01 0 .021.003.034.008L.498.055.364 0H.342v.095A.407.407 0 0 0 .254.016.134.134 0 0 0 .19 0a.104.104 0 0 0-.065.021.114.114 0 0 0-.039.057.338.338 0 0 0-.01.096v.2a.098.098 0 0 1-.007.044.044.044 0 0 1-.02.019A.113.113 0 0 1 0 .443V.46h.157v-.3C.157.12.164.094.178.08A.077.077 0 0 1 .231.06c.014 0 .03.004.047.013.018.009.04.026.064.05v.254c0 .025-.005.042-.014.051C.318.438.299.442.27.443V.46h.152z"/></symbol><symbol id="c"><path d="M.07.292A.23.23 0 0 1 .117.136.147.147 0 0 1 .232.08c.03 0 .055.008.077.024a.18.18 0 0 1 .054.083l.015-.01a.234.234 0 0 0-.06-.122A.16.16 0 0 0 .196 0c-.053 0-.1.02-.138.063A.242.242 0 0 0 0 .23c0 .077.02.137.059.18.039.042.088.064.148.064.05 0 .09-.017.123-.05A.18.18 0 0 0 .378.292H.07m0 .029h.207a.191.191 0 0 1-.01.06.096.096 0 0 1-.037.043.09.09 0 0 1-.05.016.101.101 0 0 1-.073-.032A.136.136 0 0 1 .07.321z"/></symbol><symbol id="d"><path d="M.271.474V.322H.255C.243.37.227.402.208.419a.106.106 0 0 1-.074.026.082.082 0 0 1-.055-.018C.065.415.058.402.058.387.058.37.063.353.073.34A.174.174 0 0 1 .135.298L.206.263c.066-.032.1-.075.1-.127A.12.12 0 0 0 .258.037.16.16 0 0 0 .156 0a.355.355 0 0 0-.094.015.095.095 0 0 1-.026.005C.028.02.022.015.018.007H.002v.16h.016A.182.182 0 0 1 .07.063.126.126 0 0 1 .157.03c.022 0 .04.006.054.02.015.013.022.029.022.047a.075.075 0 0 1-.024.057.407.407 0 0 1-.094.058.28.28 0 0 0-.093.063.11.11 0 0 0-.022.07c0 .038.013.068.038.093a.135.135 0 0 0 .098.037A.23.23 0 0 0 .2.463.151.151 0 0 1 .233.456a.02.02 0 0 1 .012.003.047.047 0 0 1 .01.015h.016z"/></symbol><symbol id="e"><path d="M.151.602V.455h.105V.42H.15V.13c0-.029.004-.048.013-.058A.04.04 0 0 1 .196.057c.01 0 .021.003.031.01.01.006.018.016.023.03h.02A.155.155 0 0 0 .22.023.105.105 0 0 0 .157 0a.088.088 0 0 0-.044.012.077.077 0 0 0-.032.036.19.19 0 0 0-.01.072v.3H0v.017c.018.007.036.019.055.036a.29.29 0 0 1 .081.129h.015z"/></symbol><symbol id="f"><path d="M.116.694A.046.046 0 0 0 .15.68.046.046 0 0 0 .165.645.048.048 0 0 0 .15.61.046.046 0 0 0 .116.595.048.048 0 0 0 .08.61a.048.048 0 0 0-.015.035C.066.659.07.67.08.68c.01.01.022.014.036.014M.156.46V.101c0-.028.002-.047.006-.056A.045.045 0 0 1 .18.025.098.098 0 0 1 .224.017V0H.007v.018C.029.018.043.02.05.024a.042.042 0 0 1 .017.02c.005.01.007.03.007.057v.172a.61.61 0 0 1-.004.095C.069.378.065.385.06.389A.03.03 0 0 1 .04.396.098.098 0 0 1 .007.388L0 .406.135.46h.021z"/></symbol><symbol id="g"><path d="M.216.474A.198.198 0 0 0 .38.397.237.237 0 0 0 .432.246c0-.04-.01-.081-.03-.122A.21.21 0 0 0 .324.031.208.208 0 0 0 .211 0a.19.19 0 0 0-.16.08A.25.25 0 0 0 0 .234c0 .04.01.082.03.122a.208.208 0 0 0 .186.12M.201.441A.102.102 0 0 1 .15.427.107.107 0 0 1 .107.373a.26.26 0 0 1-.016-.1C.09.21.104.154.129.106.155.058.19.035.232.035.264.035.29.048.31.074.33.1.34.144.34.208.34.288.325.35.29.396A.106.106 0 0 1 .2.442z"/></symbol><symbol id="h"><path d="M.156.366C.208.429.258.46.306.46A.107.107 0 0 0 .369.442.121.121 0 0 0 .41.382c.007-.02.01-.05.01-.09v-.19A.16.16 0 0 1 .428.042.04.04 0 0 1 .445.024.1.1 0 0 1 .49.018V0H.269v.018h.009c.02 0 .035.003.043.009A.05.05 0 0 1 .34.055C.34.06.34.075.34.101v.183c0 .04-.006.07-.016.089C.315.39.297.4.27.4.233.4.194.38.156.337V.1c0-.03.002-.049.005-.056A.047.047 0 0 1 .18.024.122.122 0 0 1 .229.018V0H.007v.018h.01c.023 0 .038.005.046.017C.071.046.075.069.075.1v.166a.677.677 0 0 1-.004.098C.07.377.065.385.061.39A.03.03 0 0 1 .04.396.094.094 0 0 1 .007.388L0 .406.135.46h.02V.366z"/></symbol><symbol id="i"><path d="M.055.475A.051.051 0 0 0 .093.458.051.051 0 0 0 .11.42.053.053 0 0 0 .093.382.052.052 0 0 0 .055.366.053.053 0 0 0 .001.42c0 .015.005.028.016.038.01.011.023.017.038.017m0-.366A.052.052 0 0 0 .092.093.053.053 0 0 0 .109.054.053.053 0 0 0 .093.016.053.053 0 0 0 .054 0 .053.053 0 0 0 0 .054C0 .07.005.082.016.093c.01.01.023.016.038.016z"/></symbol><symbol id="j"><path d="M0 0z"/></symbol><symbol id="k"><path d="M.445.338A.212.212 0 0 0 .548.29a.146.146 0 0 0 .048-.11.165.165 0 0 0-.032-.095A.18.18 0 0 0 .48.021.5.5 0 0 0 .313 0H0v.018h.025c.028 0 .047.009.06.026.007.012.01.036.01.073v.428c0 .04-.004.067-.013.078C.069.637.05.644.025.644H0v.018h.286A.565.565 0 0 0 .415.65.205.205 0 0 0 .526.588.152.152 0 0 0 .535.396a.178.178 0 0 0-.09-.058M.19.364A.409.409 0 0 1 .282.357c.047 0 .083.005.107.016.024.01.042.026.055.047a.132.132 0 0 1 .019.07.127.127 0 0 1-.047.098C.384.616.338.63.277.63A.332.332 0 0 1 .19.62V.364m0-.316A.492.492 0 0 1 .301.035c.06 0 .104.013.135.04C.467.1.482.133.482.172c0 .026-.007.05-.02.074a.14.14 0 0 1-.069.056.295.295 0 0 1-.117.02A1.165 1.165 0 0 1 .189.32V.048z"/></symbol><symbol id="l"><path d="M.249.074A.737.737 0 0 0 .163.012.132.132 0 0 0 .106 0C.076 0 .05.01.03.032A.117.117 0 0 0 0 .115c0 .022.005.04.015.057a.194.194 0 0 0 .069.062c.033.02.088.044.165.072v.017c0 .045-.007.075-.021.092C.214.432.193.44.166.44A.07.07 0 0 1 .117.423.05.05 0 0 1 .1.385V.357C.1.342.097.33.089.322A.039.039 0 0 0 .058.31a.039.039 0 0 0-.03.013.05.05 0 0 0-.01.034c0 .028.013.054.042.078A.186.186 0 0 0 .18.47.21.21 0 0 0 .279.45.092.092 0 0 0 .321.402.267.267 0 0 0 .33.316V.165c0-.043 0-.07.002-.08C.334.077.336.07.34.068A.02.02 0 0 1 .353.062c.005 0 .01.001.014.003l.04.036V.074C.37.024.334 0 .301 0a.047.047 0 0 0-.038.017C.254.028.249.047.249.074m0 .031v.17a.964.964 0 0 1-.095-.04.164.164 0 0 1-.055-.046.087.087 0 0 1-.017-.05c0-.024.007-.044.021-.06A.064.064 0 0 1 .151.058C.176.057.21.073.25.105z"/></symbol><symbol id="m"><path d="M.314.064A.23.23 0 0 0 .25.014.157.157 0 0 0 .183 0a.167.167 0 0 0-.128.061A.229.229 0 0 0 0 .219C0 .283.02.34.06.395c.04.053.093.08.156.08.04 0 .072-.013.098-.038V.52A.633.633 0 0 1 .31.614C.308.625.304.634.3.638a.03.03 0 0 1-.02.006.103.103 0 0 1-.033-.008L.239.653l.134.055h.022V.191c0-.052 0-.085.003-.096C.4.083.404.075.41.07A.03.03 0 0 1 .429.064c.009 0 .02.003.035.008L.469.055.336 0H.314v.064m0 .034v.23A.156.156 0 0 1 .296.39.1.1 0 0 1 .257.43.092.092 0 0 1 .21.444.1.1 0 0 1 .134.406C.104.372.089.322.089.257.09.192.104.141.132.106.161.071.192.054.228.054c.03 0 .058.015.086.044z"/></symbol><symbol id="n"><path d="M.215 0H0v.875h.215V.837H.073V.038h.142V0z"/></symbol><symbol id="o"><path d="m0 .597.161.079h.016v-.56C.177.08.18.057.182.048a.037.037 0 0 1 .02-.02A.164.164 0 0 1 .26.017V0H.01v.018c.032 0 .052.003.061.008.01.005.016.011.02.019a.262.262 0 0 1 .005.072v.357c0 .048-.002.08-.005.093A.038.038 0 0 1 .079.59a.032.032 0 0 1-.021.007.13.13 0 0 1-.05-.015L0 .597z"/></symbol><symbol id="p"><path d="M0 .876h.215V0H0v.039h.142v.798H0v.039z"/></symbol><symbol id="q"><path d="M0 .46h.21V.444H.197C.184.443.174.44.167.433A.033.033 0 0 1 .157.41c0-.012.004-.025.011-.04L.272.12l.104.256A.122.122 0 0 1 .388.42.016.016 0 0 1 .384.43.026.026 0 0 1 .37.44a.123.123 0 0 1-.034.003V.46h.146V.443C.465.442.454.438.447.433a.125.125 0 0 1-.03-.05L.257 0h-.02L.079.377a.14.14 0 0 1-.02.038.08.08 0 0 1-.025.02A.122.122 0 0 1 0 .443V.46z"/></symbol><symbol id="r"><path d="M0 0v.021C.034.033.06.05.078.073a.116.116 0 0 1 .027.074.027.027 0 0 1-.004.016C.1.166.097.167.094.167a.071.071 0 0 1-.023-.01.04.04 0 0 0-.019-.004.051.051 0 0 0-.038.014.053.053 0 0 0-.014.04c0 .015.006.029.018.04a.064.064 0 0 0 .045.017c.021 0 .04-.01.057-.028A.106.106 0 0 0 .146.162.144.144 0 0 0 .11.068.228.228 0 0 0 0 0z"/></symbol><symbol id="s"><path d="M0 .46h.188V.444C.17.442.158.438.152.433.148.43.146.423.146.414c0-.01.002-.023.008-.037L.25.119l.096.21L.32.393a.079.079 0 0 1-.03.04.09.09 0 0 1-.04.009V.46h.212V.443C.44.442.422.438.412.43.407.425.403.417.403.405.403.4.405.392.408.385L.508.128l.095.248a.13.13 0 0 1 .01.042c0 .006-.004.012-.01.017C.596.439.584.442.565.443V.46h.142V.443C.678.439.657.419.644.385L.494 0h-.02L.364.286.233 0H.213L.071.376a.132.132 0 0 1-.028.048A.091.091 0 0 1 0 .443V.46z"/></symbol><symbol id="t"><path d="M.156.694V.367a.37.37 0 0 0 .086.076.133.133 0 0 0 .064.017A.104.104 0 0 0 .37.44a.124.124 0 0 0 .04-.066.467.467 0 0 0 .01-.115V.101C.42.073.423.053.428.043A.038.038 0 0 1 .444.024.094.094 0 0 1 .487.018V0h-.22v.018h.01C.3.018.314.02.322.027a.052.052 0 0 1 .017.028C.34.06.34.075.34.101V.26C.34.31.337.34.332.355a.062.062 0 0 1-.064.046.113.113 0 0 1-.05-.012.238.238 0 0 1-.062-.052V.101c0-.03.002-.05.005-.057a.045.045 0 0 1 .02-.02.114.114 0 0 1 .048-.006V0H.007v.018c.02 0 .035.003.047.009.006.003.011.01.015.018.004.01.006.028.006.056v.405A.633.633 0 0 1 .071.6C.07.612.065.62.061.624A.03.03 0 0 1 .04.63.12.12 0 0 1 .007.623L0 .64l.134.054h.022z"/></symbol><symbol id="u"><path d="M.156.365c.032.033.052.052.057.056.015.013.03.022.048.03.017.006.033.01.05.01A.112.112 0 0 0 .383.435a.12.12 0 0 0 .04-.07C.458.403.487.43.51.441A.15.15 0 0 0 .58.46.11.11 0 0 0 .643.442a.12.12 0 0 0 .044-.06.27.27 0 0 0 .01-.089V.101C.698.073.7.054.705.043A.043.043 0 0 1 .722.025.093.093 0 0 1 .765.018V0h-.22v.018h.009c.019 0 .034.003.045.01a.044.044 0 0 1 .016.026A.313.313 0 0 1 .617.1v.192a.163.163 0 0 1-.013.078C.59.39.57.4.542.4A.116.116 0 0 1 .49.39.278.278 0 0 1 .427.34V.1c0-.03.002-.05.005-.057a.044.044 0 0 1 .02-.02A.114.114 0 0 1 .5.019V0H.274v.018c.025 0 .042.003.05.008.01.006.017.015.02.027A.26.26 0 0 1 .347.1v.192C.347.33.34.356.33.373a.069.069 0 0 1-.06.03A.108.108 0 0 1 .218.39.201.201 0 0 1 .156.341V.1c0-.03.002-.048.006-.057A.045.045 0 0 1 .18.024.122.122 0 0 1 .229.018V0H.007v.018c.02 0 .035.002.043.006a.044.044 0 0 1 .019.02c.004.01.006.03.006.057v.171a.62.62 0 0 1-.004.095C.069.377.065.385.06.39A.03.03 0 0 1 .04.396.094.094 0 0 1 .007.388L0 .406.135.46h.02V.365z"/></symbol><symbol id="v"><path d="M.155.694V.25L.27.353a.381.381 0 0 1 .042.042.021.021 0 0 1 .004.012.02.02 0 0 1-.008.016C.3.428.293.431.28.432v.015h.195V.432A.186.186 0 0 1 .408.419.217.217 0 0 1 .35.38L.235.273.35.128A1.02 1.02 0 0 1 .414.052a.133.133 0 0 1 .041-.03.128.128 0 0 1 .043-.004V0H.28v.018C.293.018.3.02.305.023a.018.018 0 0 1 .007.015c0 .007-.006.02-.02.036L.155.249V.101c0-.03.002-.048.006-.058A.04.04 0 0 1 .18.023.13.13 0 0 1 .228.019V0H0v.018c.023 0 .04.002.051.008.007.003.012.009.016.016.005.011.007.03.007.056v.407A.722.722 0 0 1 .071.6C.069.612.065.62.06.624a.03.03 0 0 1-.02.007.092.092 0 0 1-.032-.008L0 .64l.133.054h.022z"/></symbol><symbol id="w"><path d="M.167.412V.118C.167.076.172.05.181.04A.06.06 0 0 1 .23.018H.27V0H.003v.018h.02c.013 0 .025.003.036.01A.05.05 0 0 1 .08.053a.213.213 0 0 1 .006.064v.294H0v.035h.087v.03c0 .044.007.082.021.113a.18.18 0 0 0 .165.104A.15.15 0 0 0 .368.66C.387.646.396.63.396.61A.04.04 0 0 0 .383.584.038.038 0 0 0 .356.57a.046.046 0 0 0-.024.008.138.138 0 0 0-.03.035.122.122 0 0 1-.033.036.063.063 0 0 1-.034.01.06.06 0 0 1-.038-.013.066.066 0 0 1-.023-.037.692.692 0 0 1-.007-.13V.447h.116V.412H.167z"/></symbol><symbol id="x"><path d="M0 .663h.208V.645h-.01C.184.645.173.642.165.635a.03.03 0 0 1-.01-.023C.154.599.16.582.17.559L.28.333l.1.248a.103.103 0 0 1 .008.04c0 .005-.001.01-.004.012a.025.025 0 0 1-.012.009.086.086 0 0 1-.03.003v.018h.146V.645A.07.07 0 0 1 .46.637.08.08 0 0 1 .44.615.305.305 0 0 1 .422.578L.24.13A.23.23 0 0 0 .17.033.135.135 0 0 0 .09 0a.068.068 0 0 0-.047.017.05.05 0 0 0-.02.038c0 .013.005.024.014.033C.046.096.058.1.073.1.084.1.1.097.117.09A.105.105 0 0 1 .142.081c.01 0 .02.005.031.015.012.01.024.03.035.059L.24.233.08.571a.27.27 0 0 1-.044.06A.11.11 0 0 1 0 .645v.018z"/></symbol><symbol id="y"><path d="M.177.17h-.02A.46.46 0 0 0 .172.27a.7.7 0 0 0 .05.112C.242.42.254.448.26.468c.006.02.009.04.009.06a.141.141 0 0 1-.034.098.104.104 0 0 1-.08.037.102.102 0 0 1-.067-.02C.072.63.063.615.063.6c0-.012.005-.027.015-.045a.094.094 0 0 0 .015-.04.042.042 0 0 0-.011-.03.036.036 0 0 0-.028-.011C.041.474.028.48.017.494A.088.088 0 0 0 0 .55c0 .037.016.07.047.098A.185.185 0 0 0 .176.69C.243.69.292.67.324.632A.147.147 0 0 0 .359.537.185.185 0 0 0 .343.463a.344.344 0 0 0-.06-.088.632.632 0 0 1-.087-.114.255.255 0 0 1-.02-.092M.17.11A.052.052 0 0 0 .208.093.052.052 0 0 0 .225.054.053.053 0 0 0 .208.016.053.053 0 0 0 .17 0a.053.053 0 0 0-.054.054C.116.07.12.082.13.093c.011.01.024.016.039.016z"/></symbol><use xlink:href="#a" transform="matrix(9 0 0 -9 8.984 25.896)"/><use xlink:href="#b" transform="matrix(9 0 0 -9 15.174 24.257)"/><use xlink:href="#c" transform="matrix(9 0 0 -9 20 24.257)"/><use xlink:href="#d" transform="matrix(9 0 0 -9 24.1 24.257)"/><use xlink:href="#e" transform="matrix(9 0 0 -9 27.25 24.2)"/><use xlink:href="#f" transform="matrix(9 0 0 -9 29.928 24.134)"/><use xlink:href="#g" transform="matrix(9 0 0 -9 31.968 24.257)"/><use xlink:href="#h" transform="matrix(9 0 0 -9 36.218 24.134)"/><use xlink:href="#i" transform="matrix(9 0 0 -9 41.438 24.257)"/><use xlink:href="#j" transform="matrix(9 0 0 -9 42.665 24.134)"/><use xlink:href="#k" transform="matrix(9 0 0 -9 46.314 24.134)"/><use xlink:href="#l" transform="matrix(9 0 0 -9 52.489 24.217)"/><use xlink:href="#d" transform="matrix(9 0 0 -9 56.603 24.257)"/><use xlink:href="#c" transform="matrix(9 0 0 -9 59.999 24.257)"/><use xlink:href="#m" transform="matrix(9 0 0 -9 63.96 24.257)"/><use xlink:href="#j" transform="matrix(9 0 0 -9 68.16 24.134)"/><use xlink:href="#g" transform="matrix(9 0 0 -9 70.464 24.257)"/><use xlink:href="#h" transform="matrix(9 0 0 -9 74.713 24.134)"/><use xlink:href="#j" transform="matrix(9 0 0 -9 79.16 24.134)"/><use xlink:href="#n" transform="matrix(9 0 0 -9 82.401 25.918)"/><use xlink:href="#l" transform="matrix(9 0 0 -9 84.98 24.217)"/><use xlink:href="#b" transform="matrix(9 0 0 -9 88.664 24.257)"/><use xlink:href="#m" transform="matrix(9 0 0 -9 93.455 24.257)"/><use xlink:href="#f" transform="matrix(9 0 0 -9 97.92 24.134)"/><use xlink:href="#g" transform="matrix(9 0 0 -9 99.959 24.257)"/><use xlink:href="#o" transform="matrix(9 0 0 -9 105.21 24.134)"/><use xlink:href="#p" transform="matrix(9 0 0 -9 108.985 25.923)"/><use xlink:href="#j" transform="matrix(9 0 0 -9 111.653 24.134)"/><use xlink:href="#l" transform="matrix(9 0 0 -9 114.475 24.217)"/><use xlink:href="#h" transform="matrix(9 0 0 -9 118.203 24.134)"/><use xlink:href="#m" transform="matrix(9 0 0 -9 122.95 24.257)"/><use xlink:href="#j" transform="matrix(9 0 0 -9 127.15 24.134)"/><use xlink:href="#n" transform="matrix(9 0 0 -9 130.39 25.918)"/><use xlink:href="#q" transform="matrix(9 0 0 -9 132.724 24.257)"/><use xlink:href="#f" transform="matrix(9 0 0 -9 137.413 24.134)"/><use xlink:href="#m" transform="matrix(9 0 0 -9 139.448 24.257)"/><use xlink:href="#c" transform="matrix(9 0 0 -9 143.983 24.257)"/><use xlink:href="#g" transform="matrix(9 0 0 -9 147.949 24.257)"/><use xlink:href="#o" transform="matrix(9 0 0 -9 153.2 24.134)"/><use xlink:href="#p" transform="matrix(9 0 0 -9 156.975 25.923)"/><use xlink:href="#r" transform="matrix(9 0 0 -9 160.126 25.633)"/><use xlink:href="#j" transform="matrix(9 0 0 -9 162.143 24.134)"/><use xlink:href="#s" transform="matrix(9 0 0 -9 8.724 35.255)"/><use xlink:href="#t" transform="matrix(9 0 0 -9 15.222 35.132)"/><use xlink:href="#l" transform="matrix(9 0 0 -9 19.986 35.215)"/><use xlink:href="#e" transform="matrix(9 0 0 -9 23.75 35.198)"/><use xlink:href="#j" transform="matrix(9 0 0 -9 26.163 35.132)"/><use xlink:href="#u" transform="matrix(9 0 0 -9 28.738 35.132)"/><use xlink:href="#l" transform="matrix(9 0 0 -9 35.986 35.215)"/><use xlink:href="#v" transform="matrix(9 0 0 -9 39.736 35.132)"/><use xlink:href="#c" transform="matrix(9 0 0 -9 44.495 35.255)"/><use xlink:href="#d" transform="matrix(9 0 0 -9 48.597 35.255)"/><use xlink:href="#j" transform="matrix(9 0 0 -9 51.658 35.132)"/><use xlink:href="#e" transform="matrix(9 0 0 -9 53.744 35.198)"/><use xlink:href="#t" transform="matrix(9 0 0 -9 56.216 35.132)"/><use xlink:href="#f" transform="matrix(9 0 0 -9 60.922 35.132)"/><use xlink:href="#d" transform="matrix(9 0 0 -9 63.098 35.255)"/><use xlink:href="#j" transform="matrix(9 0 0 -9 66.16 35.132)"/><use xlink:href="#u" transform="matrix(9 0 0 -9 69.234 35.132)"/><use xlink:href="#c" transform="matrix(9 0 0 -9 76.495 35.255)"/><use xlink:href="#u" transform="matrix(9 0 0 -9 80.232 35.132)"/><use xlink:href="#c" transform="matrix(9 0 0 -9 87.493 35.255)"/><use xlink:href="#j" transform="matrix(9 0 0 -9 91.155 35.132)"/><use xlink:href="#w" transform="matrix(9 0 0 -9 93.5 35.132)"/><use xlink:href="#b" transform="matrix(9 0 0 -9 96.159 35.255)"/><use xlink:href="#h" transform="matrix(9 0 0 -9 100.703 35.132)"/><use xlink:href="#h" transform="matrix(9 0 0 -9 105.203 35.132)"/><use xlink:href="#x" transform="matrix(9 0 0 -9 109.703 37.074)"/><use xlink:href="#y" transform="matrix(9 0 0 -9 114.554 35.25)"/><symbol id="z"><path d="M.45.222H.193L.148.117A.165.165 0 0 1 .132.06c0-.01.005-.02.014-.027C.156.025.176.02.208.018V0H0v.018c.028.005.046.011.054.02a.3.3 0 0 1 .055.094l.233.545h.017l.23-.55A.258.258 0 0 1 .64.04.105.105 0 0 1 .704.018V0H.442v.018C.468.02.486.024.495.031.505.04.51.048.51.06a.202.202 0 0 1-.02.067L.45.222M.437.258.324.525.208.258h.228z"/></symbol><use xlink:href="#z" transform="matrix(7 0 0 -7 8.722 43.634)"/><symbol id="A"><path d="M.548.662.556.507H.537a.188.188 0 0 1-.015.058.096.096 0 0 1-.04.042.137.137 0 0 1-.066.014H.323V.115c0-.04.004-.066.013-.076.012-.014.031-.02.057-.02h.023V0h-.28v.018h.023c.028 0 .048.009.06.025.006.01.01.035.01.072V.62h-.08A.222.222 0 0 1 .083.614.09.09 0 0 1 .04.578.144.144 0 0 1 .019.507H0l.008.155h.54z"/></symbol><symbol id="B"><path d="M.054.108A.052.052 0 0 0 .093.092.052.052 0 0 0 .108.054.053.053 0 0 0 .092.016.052.052 0 0 0 .054 0 .053.053 0 0 0 0 .054C0 .07.005.082.016.093c.01.01.023.015.038.015m.334 0A.051.051 0 0 0 .426.092.051.051 0 0 0 .442.054.053.053 0 0 0 .426.016.052.052 0 0 0 .388 0a.053.053 0 0 0-.055.054C.333.07.34.082.35.093c.01.01.024.015.039.015m.333 0A.051.051 0 0 0 .76.092.051.051 0 0 0 .775.054.053.053 0 0 0 .76.016.052.052 0 0 0 .721 0a.053.053 0 0 0-.054.054c0 .015.005.028.016.039.01.01.023.015.038.015z"/></symbol><symbol id="C"><path d="M.038 0 .01.145A.547.547 0 0 0 0 .225c0 .021.004.037.013.046.008.01.02.014.034.014a.05.05 0 0 0 .05-.052.718.718 0 0 0-.012-.089L.06 0H.038z"/></symbol><symbol id="D"><path d="M.33.692A.3.3 0 0 0 .555.594.337.337 0 0 0 .648.35C.648.25.617.166.553.1a.307.307 0 0 0-.23-.1.306.306 0 0 0-.23.097A.35.35 0 0 0 0 .35c0 .105.036.19.107.257a.317.317 0 0 0 .224.086M.32.657A.175.175 0 0 1 .18.59C.134.536.112.456.112.35c0-.108.023-.192.07-.25a.171.171 0 0 1 .14-.066c.062 0 .113.024.154.072.04.049.06.125.06.23C.537.45.515.535.47.59A.18.18 0 0 1 .32.657z"/></symbol><symbol id="E"><path d="M.393 0 .137.557V.115C.137.075.14.049.15.039.162.025.18.019.207.019H.23V0H0v.018h.023c.028 0 .048.009.06.025.007.01.01.035.01.072v.432c0 .03-.003.05-.009.064a.053.053 0 0 1-.025.023.13.13 0 0 1-.059.01v.018h.188l.24-.518.236.518h.188V.644H.829C.8.644.78.636.769.619.76.609.758.584.758.547V.115c0-.04.004-.066.013-.076C.784.025.803.019.83.019h.023V0H.57v.018h.024c.028 0 .048.009.06.025.006.01.01.035.01.072v.442L.41 0H.393z"/></symbol><symbol id="F"><path d="M.579.692.596.483H.579a.286.286 0 0 1-.067.118.21.21 0 0 1-.152.057.216.216 0 0 1-.193-.1.36.36 0 0 1-.055-.201c0-.063.013-.12.037-.173A.26.26 0 0 1 .245.07.233.233 0 0 1 .438.042.282.282 0 0 1 .502.07V.26a.17.17 0 0 1-.007.065.048.048 0 0 1-.024.024.13.13 0 0 1-.055.008v.018h.256V.358H.66C.635.358.618.349.608.333A.171.171 0 0 1 .598.26V.06A.485.485 0 0 0 .367 0C.238 0 .141.041.075.123A.329.329 0 0 0 0 .336C0 .394.014.45.042.503A.359.359 0 0 0 .179.65.335.335 0 0 0 .35.692.335.335 0 0 0 .416.687.595.595 0 0 0 .5.66.135.135 0 0 1 .537.65c.006 0 .011.002.015.008.005.006.008.017.009.033h.018z"/></symbol><symbol id="G"><path d="M.155.694V.101c0-.028.002-.046.006-.056a.046.046 0 0 1 .02-.02.112.112 0 0 1 .047-.007V0h-.22v.018c.02 0 .035.002.042.006a.042.042 0 0 1 .018.02c.004.01.006.03.006.057v.406c0 .05 0 .082-.003.093C.069.612.065.62.06.624A.028.028 0 0 1 .04.63.091.091 0 0 1 .009.623L0 .64l.133.054h.022z"/></symbol><symbol id="H"><path d="M.156.46v-.1c.037.067.076.1.115.1A.062.062 0 0 0 .315.444.05.05 0 0 0 .333.406.045.045 0 0 0 .32.374.04.04 0 0 0 .29.361C.279.36.266.366.251.377.237.39.227.395.221.395.213.395.207.39.2.385A.235.235 0 0 1 .156.319V.104C.156.08.159.061.165.048A.05.05 0 0 1 .187.026.099.099 0 0 1 .234.018V0h-.23v.018c.024 0 .04.003.052.01a.042.042 0 0 1 .017.025.251.251 0 0 1 .002.048v.173a.663.663 0 0 1-.003.093.035.035 0 0 1-.012.022.032.032 0 0 1-.02.007.097.097 0 0 1-.035-.008L0 .406.135.46h.02z"/></symbol><symbol id="I"><path d="M.377.184a.244.244 0 0 0-.07-.137A.17.17 0 0 0 .188 0a.172.172 0 0 0-.132.064A.251.251 0 0 0 0 .237c0 .07.02.127.063.171a.201.201 0 0 0 .15.066C.257.474.293.462.322.44.35.416.364.392.364.367a.04.04 0 0 0-.012-.03A.046.046 0 0 0 .32.324c-.02 0-.034.006-.044.019C.27.35.266.364.265.383a.063.063 0 0 1-.02.044.07.07 0 0 1-.048.014A.097.097 0 0 1 .12.405.192.192 0 0 1 .079.28c0-.054.013-.1.04-.142a.121.121 0 0 1 .106-.06c.032 0 .06.01.086.032A.22.22 0 0 1 .363.19L.377.184z"/></symbol><symbol id="J"><path d="M0 .447h.21V.43C.197.43.188.427.182.422A.023.023 0 0 1 .174.404c0-.008.006-.02.017-.036L.208.344.239.293l.037.05C.299.377.31.397.31.406a.021.021 0 0 1-.008.017C.297.427.288.429.276.429v.018h.151V.43A.082.082 0 0 1 .386.416.346.346 0 0 1 .32.344L.26.262l.11-.16A.339.339 0 0 1 .43.031.09.09 0 0 1 .474.018V0H.264v.018c.014 0 .026.003.034.01.006.004.01.01.01.017 0 .008-.011.027-.032.057L.21.198.14.102A.188.188 0 0 1 .105.05C.105.042.11.034.116.028A.055.055 0 0 1 .15.018V0H.003v.018A.066.066 0 0 1 .034.03c.013.01.033.033.063.072L.19.227.105.35A.267.267 0 0 1 .05.416.084.084 0 0 1 0 .429v.018z"/></symbol><symbol id="K"><path d="M.002.617.14.672H.16V.568c.023.04.046.067.069.082a.13.13 0 0 0 .074.024.142.142 0 0 0 .112-.052A.25.25 0 0 0 .47.454.28.28 0 0 0 .403.262.176.176 0 0 0 .265.2a.172.172 0 0 0-.062.01.146.146 0 0 0-.044.03V.104c0-.031.001-.05.005-.059a.043.043 0 0 1 .02-.02.122.122 0 0 1 .05-.007V0H0v.018h.012c.018 0 .033.003.046.01.006.004.011.01.014.018a.196.196 0 0 1 .006.06V.53a.23.23 0 0 1-.004.055.033.033 0 0 1-.013.018.04.04 0 0 1-.023.006A.088.088 0 0 1 .008.6L.002.617M.16.539V.372c0-.036.001-.06.004-.071A.092.092 0 0 1 .196.25.104.104 0 0 1 .264.229c.032 0 .059.013.079.039a.22.22 0 0 1 .04.14c0 .068-.016.12-.046.157a.093.093 0 0 1-.12.027.272.272 0 0 1-.058-.053z"/></symbol><use xlink:href="#i" transform="matrix(6 0 0 -6 13.683 43.716)"/><use xlink:href="#j" transform="matrix(6 0 0 -6 14.667 43.634)"/><use xlink:href="#A" transform="matrix(6 0 0 -6 16.849 43.634)"/><use xlink:href="#t" transform="matrix(6 0 0 -6 20.706 43.634)"/><use xlink:href="#c" transform="matrix(6 0 0 -6 23.89 43.716)"/><use xlink:href="#j" transform="matrix(6 0 0 -6 26.168 43.634)"/><use xlink:href="#u" transform="matrix(6 0 0 -6 27.717 43.634)"/><use xlink:href="#c" transform="matrix(6 0 0 -6 32.39 43.716)"/><use xlink:href="#u" transform="matrix(6 0 0 -6 34.717 43.634)"/><use xlink:href="#c" transform="matrix(6 0 0 -6 39.39 43.716)"/><use xlink:href="#j" transform="matrix(6 0 0 -6 41.667 43.634)"/><use xlink:href="#f" transform="matrix(6 0 0 -6 43.843 43.634)"/><use xlink:href="#d" transform="matrix(6 0 0 -6 45.46 43.716)"/><use xlink:href="#j" transform="matrix(6 0 0 -6 47.667 43.634)"/><use xlink:href="#w" transform="matrix(6 0 0 -6 49.399 43.634)"/><use xlink:href="#b" transform="matrix(6 0 0 -6 51.171 43.716)"/><use xlink:href="#h" transform="matrix(6 0 0 -6 54.2 43.634)"/><use xlink:href="#h" transform="matrix(6 0 0 -6 57.2 43.634)"/><use xlink:href="#x" transform="matrix(6 0 0 -6 60.2 44.929)"/><use xlink:href="#j" transform="matrix(6 0 0 -6 63.666 43.634)"/><use xlink:href="#B" transform="matrix(6 0 0 -6 65.34 43.716)"/><use xlink:href="#j" transform="matrix(6 0 0 -6 70.665 43.634)"/><use xlink:href="#C" transform="matrix(6 0 0 -6 72.403 41.281)"/><use xlink:href="#D" transform="matrix(6 0 0 -6 73.377 43.725)"/><use xlink:href="#t" transform="matrix(6 0 0 -6 77.704 43.634)"/><use xlink:href="#j" transform="matrix(6 0 0 -6 80.666 43.634)"/><use xlink:href="#E" transform="matrix(6 0 0 -6 82.265 43.634)"/><use xlink:href="#x" transform="matrix(6 0 0 -6 88.2 44.929)"/><use xlink:href="#j" transform="matrix(6 0 0 -6 91.665 43.634)"/><use xlink:href="#F" transform="matrix(6 0 0 -6 92.877 43.725)"/><use xlink:href="#g" transform="matrix(6 0 0 -6 97.368 43.716)"/><use xlink:href="#m" transform="matrix(6 0 0 -6 100.365 43.716)"/><use xlink:href="#C" transform="matrix(6 0 0 -6 103.403 41.281)"/><use xlink:href="#j" transform="matrix(6 0 0 -6 104.166 43.634)"/><use xlink:href="#f" transform="matrix(6 0 0 -6 105.341 43.634)"/><use xlink:href="#d" transform="matrix(6 0 0 -6 106.958 43.716)"/><use xlink:href="#j" transform="matrix(6 0 0 -6 109.166 43.634)"/><use xlink:href="#m" transform="matrix(6 0 0 -6 110.865 43.716)"/><use xlink:href="#c" transform="matrix(6 0 0 -6 113.888 43.716)"/><use xlink:href="#G" transform="matrix(6 0 0 -6 116.344 43.634)"/><use xlink:href="#f" transform="matrix(6 0 0 -6 117.842 43.634)"/><use xlink:href="#q" transform="matrix(6 0 0 -6 119.216 43.716)"/><use xlink:href="#c" transform="matrix(6 0 0 -6 122.388 43.716)"/><use xlink:href="#H" transform="matrix(6 0 0 -6 124.703 43.634)"/><use xlink:href="#c" transform="matrix(6 0 0 -6 126.886 43.716)"/><use xlink:href="#m" transform="matrix(6 0 0 -6 129.362 43.716)"/><use xlink:href="#j" transform="matrix(6 0 0 -6 132.163 43.634)"/><use xlink:href="#f" transform="matrix(6 0 0 -6 134.34 43.634)"/><use xlink:href="#h" transform="matrix(6 0 0 -6 135.698 43.634)"/><use xlink:href="#j" transform="matrix(6 0 0 -6 138.663 43.634)"/><use xlink:href="#l" transform="matrix(6 0 0 -6 140.377 43.69)"/><use xlink:href="#j" transform="matrix(6 0 0 -6 142.663 43.634)"/><use xlink:href="#I" transform="matrix(6 0 0 -6 144.368 43.716)"/><use xlink:href="#l" transform="matrix(6 0 0 -6 146.877 43.69)"/><use xlink:href="#G" transform="matrix(6 0 0 -6 149.342 43.634)"/><use xlink:href="#u" transform="matrix(6 0 0 -6 150.713 43.634)"/><use xlink:href="#r" transform="matrix(6 0 0 -6 155.486 44.633)"/><use xlink:href="#j" transform="matrix(6 0 0 -6 156.663 43.634)"/><use xlink:href="#u" transform="matrix(6 0 0 -6 8.717 51.134)"/><use xlink:href="#g" transform="matrix(6 0 0 -6 13.37 51.216)"/><use xlink:href="#h" transform="matrix(6 0 0 -6 16.203 51.134)"/><use xlink:href="#g" transform="matrix(6 0 0 -6 19.37 51.216)"/><use xlink:href="#e" transform="matrix(6 0 0 -6 22.226 51.178)"/><use xlink:href="#g" transform="matrix(6 0 0 -6 24.37 51.216)"/><use xlink:href="#h" transform="matrix(6 0 0 -6 27.202 51.134)"/><use xlink:href="#c" transform="matrix(6 0 0 -6 30.39 51.216)"/><use xlink:href="#j" transform="matrix(6 0 0 -6 32.667 51.134)"/><use xlink:href="#q" transform="matrix(6 0 0 -6 34.217 51.216)"/><use xlink:href="#g" transform="matrix(6 0 0 -6 37.37 51.216)"/><use xlink:href="#f" transform="matrix(6 0 0 -6 40.343 51.134)"/><use xlink:href="#I" transform="matrix(6 0 0 -6 41.872 51.216)"/><use xlink:href="#c" transform="matrix(6 0 0 -6 44.39 51.216)"/><use xlink:href="#r" transform="matrix(6 0 0 -6 46.99 52.133)"/><use xlink:href="#j" transform="matrix(6 0 0 -6 48.167 51.134)"/><use xlink:href="#B" transform="matrix(6 0 0 -6 50.841 51.216)"/><use xlink:href="#j" transform="matrix(6 0 0 -6 56.168 51.134)"/><use xlink:href="#w" transform="matrix(6 0 0 -6 57.899 51.134)"/><use xlink:href="#l" transform="matrix(6 0 0 -6 59.88 51.19)"/><use xlink:href="#I" transform="matrix(6 0 0 -6 62.37 51.216)"/><use xlink:href="#f" transform="matrix(6 0 0 -6 64.841 51.134)"/><use xlink:href="#l" transform="matrix(6 0 0 -6 66.38 51.19)"/><use xlink:href="#G" transform="matrix(6 0 0 -6 68.844 51.134)"/><use xlink:href="#j" transform="matrix(6 0 0 -6 70.165 51.134)"/><use xlink:href="#c" transform="matrix(6 0 0 -6 72.388 51.216)"/><use xlink:href="#J" transform="matrix(6 0 0 -6 74.745 51.134)"/><use xlink:href="#K" transform="matrix(6 0 0 -6 77.145 52.417)"/><use xlink:href="#H" transform="matrix(6 0 0 -6 80.704 51.134)"/><use xlink:href="#c" transform="matrix(6 0 0 -6 82.886 51.216)"/><use xlink:href="#d" transform="matrix(6 0 0 -6 85.457 51.216)"/><use xlink:href="#d" transform="matrix(6 0 0 -6 87.957 51.216)"/><use xlink:href="#f" transform="matrix(6 0 0 -6 90.34 51.134)"/><use xlink:href="#g" transform="matrix(6 0 0 -6 91.866 51.216)"/><use xlink:href="#h" transform="matrix(6 0 0 -6 94.699 51.134)"/><use xlink:href="#j" transform="matrix(6 0 0 -6 97.663 51.134)"/><use xlink:href="#H" transform="matrix(6 0 0 -6 99.201 51.134)"/><use xlink:href="#c" transform="matrix(6 0 0 -6 101.384 51.216)"/><use xlink:href="#u" transform="matrix(6 0 0 -6 103.71 51.134)"/><use xlink:href="#l" transform="matrix(6 0 0 -6 108.375 51.19)"/><use xlink:href="#f" transform="matrix(6 0 0 -6 110.837 51.134)"/><use xlink:href="#h" transform="matrix(6 0 0 -6 112.196 51.134)"/><use xlink:href="#d" transform="matrix(6 0 0 -6 115.454 51.216)"/><use xlink:href="#j" transform="matrix(6 0 0 -6 117.661 51.134)"/><use xlink:href="#h" transform="matrix(6 0 0 -6 119.696 51.134)"/><use xlink:href="#c" transform="matrix(6 0 0 -6 122.884 51.216)"/><use xlink:href="#b" transform="matrix(6 0 0 -6 125.167 51.216)"/><use xlink:href="#e" transform="matrix(6 0 0 -6 128.22 51.178)"/><use xlink:href="#H" transform="matrix(6 0 0 -6 130.2 51.134)"/><use xlink:href="#l" transform="matrix(6 0 0 -6 132.373 51.19)"/><use xlink:href="#G" transform="matrix(6 0 0 -6 134.838 51.134)"/><use xlink:href="#j" transform="matrix(6 0 0 -6 136.16 51.134)"/><use xlink:href="#B" transform="matrix(6 0 0 -6 138.333 51.216)"/><g data-name="P"><symbol id="L"><path d="M.424.351A.338.338 0 0 0 .556.298.142.142 0 0 0 .611.183C.61.133.59.092.55.059A.336.336 0 0 0 .336 0H0v.018c.03 0 .051.003.062.008A.05.05 0 0 1 .085.05C.09.058.092.08.092.116v.43a.195.195 0 0 1-.007.067.047.047 0 0 1-.023.023A.156.156 0 0 1 0 .644v.018h.317c.076 0 .13-.007.162-.02a.166.166 0 0 0 .074-.06.149.149 0 0 0 .028-.086A.123.123 0 0 0 .546.41.25.25 0 0 0 .424.351M.246.364A.25.25 0 0 1 .348.38c.022.01.04.025.05.044a.135.135 0 0 1 .019.072C.417.526.41.55.399.568a.108.108 0 0 1-.05.043.263.263 0 0 1-.103.014v-.26m0-.039V.09C.246.072.25.06.259.05.268.041.28.036.299.036c.026 0 .05.006.072.017a.12.12 0 0 1 .05.05.155.155 0 0 1 .018.074C.439.208.432.236.417.26a.116.116 0 0 1-.059.052.32.32 0 0 1-.112.014z"/></symbol><use xlink:href="#L" transform="matrix(7 0 0 -7 8.814 59.634)"/><path d="M120.042 60.634H8.667v.5h148.5v-.5z"/><symbol id="M"><path d="M.082.482A.077.077 0 0 0 .139.458.077.077 0 0 0 .163.401.079.079 0 0 0 .139.343.078.078 0 0 0 .082.32a.08.08 0 0 0-.058.023A.08.08 0 0 0 0 .401c0 .022.008.041.024.057a.079.079 0 0 0 .058.024m0-.32A.078.078 0 0 0 .138.14.079.079 0 0 0 .163.08.079.079 0 0 0 .139.023.08.08 0 0 0 .08 0a.08.08 0 0 0-.058.023A.08.08 0 0 0 0 .081.08.08 0 0 0 .023.14a.079.079 0 0 0 .058.024z"/></symbol><symbol id="N"><path d="M0 0z"/></symbol><symbol id="O"><path d="M.081.164A.078.078 0 0 0 .14.14.079.079 0 0 0 .163.082.079.079 0 0 0 .139.024.08.08 0 0 0 .08.001a.08.08 0 0 0-.058.023A.08.08 0 0 0 0 .082.08.08 0 0 0 .023.14a.079.079 0 0 0 .058.024m.334 0A.077.077 0 0 0 .472.138.077.077 0 0 0 .496.082.079.079 0 0 0 .472.024.078.078 0 0 0 .415.001a.08.08 0 0 0-.058.023.08.08 0 0 0-.024.058c0 .022.008.042.024.057a.079.079 0 0 0 .058.024m.333 0A.078.078 0 0 0 .806.137.078.078 0 0 0 .829.081.079.079 0 0 0 .805.023.078.078 0 0 0 .748 0 .08.08 0 0 0 .69.023a.08.08 0 0 0-.023.058c0 .023.008.042.023.057a.079.079 0 0 0 .058.024z"/></symbol><symbol id="P"><path d="M.196.63V.463h.109V.415H.196V.133C.196.106.197.089.2.082A.04.04 0 0 1 .213.063.03.03 0 0 1 .23.056c.021 0 .041.016.06.048l.015-.01C.278.03.235 0 .176 0a.115.115 0 0 0-.073.024.108.108 0 0 0-.039.054.46.46 0 0 0-.004.09v.247H0v.017A.55.55 0 0 1 .18.63h.016z"/></symbol><symbol id="Q"><path d="M.186.662V.398a.274.274 0 0 0 .069.056C.275.464.297.47.32.47A.113.113 0 0 0 .393.446a.114.114 0 0 0 .04-.058.415.415 0 0 0 .01-.11V.098c0-.035.004-.057.01-.065C.46.025.474.02.494.018V0H.262v.018a.053.053 0 0 1 .036.02c.006.008.01.028.01.061v.204a.328.328 0 0 1-.005.07.041.041 0 0 1-.015.023.036.036 0 0 1-.024.008.064.064 0 0 1-.038-.013.17.17 0 0 1-.04-.047V.099A.15.15 0 0 1 .193.04C.2.026.213.02.231.017V0H0v.018C.02.02.033.026.041.036.047.043.049.064.049.1v.464C.05.597.046.619.04.627.034.636.02.641 0 .644v.018h.186z"/></symbol><symbol id="R"><path d="M.382.258h-.25A.236.236 0 0 1 .18.115a.102.102 0 0 1 .08-.04C.28.074.299.08.315.09a.21.21 0 0 1 .051.06L.382.138A.279.279 0 0 0 .3.03.178.178 0 0 0 .196 0a.173.173 0 0 0-.154.078A.276.276 0 0 0 0 .234c0 .077.02.137.062.182a.19.19 0 0 0 .145.068.156.156 0 0 0 .12-.057C.36.389.379.333.382.258m-.12.033a.438.438 0 0 1-.01.108.087.087 0 0 1-.025.044.04.04 0 0 1-.028.01C.182.452.17.442.158.426a.214.214 0 0 1-.03-.119V.291h.134z"/></symbol><symbol id="S"><path d="M.28.28.36.13a.39.39 0 0 1 .065-.1A.058.058 0 0 1 .46.018V0H.207v.018c.02.001.032.004.036.007A.017.017 0 0 1 .25.04C.25.05.245.063.235.083l-.04.074-.033-.05a.504.504 0 0 1-.026-.04.043.043 0 0 1-.004-.016c0-.007.001-.014.004-.019A.032.032 0 0 1 .15.021a.088.088 0 0 1 .03-.003V0H0v.018c.022 0 .042.006.06.018a.395.395 0 0 1 .081.096L.18.187.1.334A.363.363 0 0 1 .042.42.074.074 0 0 1 0 .438v.019h.253V.438H.24L.214.429C.212.427.21.423.21.418L.213.403A.694.694 0 0 1 .227.376L.262.31l.019.026C.307.372.32.397.32.412A.02.02 0 0 1 .31.429C.306.434.295.437.281.439v.018h.161V.438A.103.103 0 0 1 .387.42.232.232 0 0 1 .329.353L.28.28z"/></symbol><symbol id="T"><path d="M.24.074C.186.024.136 0 .09 0A.087.087 0 0 0 0 .09c0 .035.015.066.045.094.03.028.095.065.196.11v.047a.21.21 0 0 1-.006.065.05.05 0 0 1-.021.023.063.063 0 0 1-.035.01.09.09 0 0 1-.053-.014C.118.42.114.413.114.405c0-.007.004-.016.013-.026C.14.365.146.352.146.34A.054.054 0 0 0 .128.298.065.065 0 0 0 .082.28.075.075 0 0 0 .03.3a.057.057 0 0 0-.02.043.1.1 0 0 0 .027.067.175.175 0 0 0 .078.05.317.317 0 0 0 .103.017c.044 0 .078-.01.103-.028a.128.128 0 0 0 .05-.06.388.388 0 0 0 .006-.094V.118c0-.021 0-.034.002-.04A.023.023 0 0 1 .387.066a.017.017 0 0 1 .01-.004c.01 0 .018.007.027.019L.438.069a.18.18 0 0 0-.05-.053A.11.11 0 0 0 .328 0a.093.093 0 0 0-.06.018.084.084 0 0 0-.027.056m0 .035v.153A.285.285 0 0 1 .153.188a.09.09 0 0 1-.02-.053C.134.12.14.107.15.095A.044.044 0 0 1 .184.082C.2.082.22.092.241.109z"/></symbol><symbol id="U"><path d="M.29.667h.153V.613H.355A.166.166 0 0 0 .39.57.134.134 0 0 0 .4.515C.4.482.391.454.373.43A.18.18 0 0 0 .299.374a.212.212 0 0 0-.082-.02L.158.356A.051.051 0 0 1 .121.341.046.046 0 0 1 .106.307C.106.295.111.286.12.278.129.271.143.268.164.268h.084A.307.307 0 0 0 .389.246.103.103 0 0 0 .444.149.122.122 0 0 0 .42.074a.148.148 0 0 0-.067-.05.48.48 0 0 0-.257-.012.153.153 0 0 0-.073.033C.007.06 0 .075 0 .09s.006.028.017.04A.14.14 0 0 0 .08.16C.037.181.016.21.016.247c0 .023.009.044.026.066.017.02.045.04.082.055A.2.2 0 0 0 .029.43a.15.15 0 0 0 .025.206C.092.67.139.686.196.686.225.686.257.68.29.667M.205.656C.185.656.17.646.157.627.144.608.137.569.137.509c0-.049.007-.082.02-.1C.168.39.184.382.201.382c.02 0 .036.009.049.027.013.018.02.052.02.104 0 .058-.008.098-.022.12a.05.05 0 0 1-.044.023M.175.148A.169.169 0 0 1 .11.14C.09.13.082.116.082.1c0-.017.01-.032.029-.046C.13.041.166.034.219.034.264.034.3.04.326.052c.026.012.039.029.039.05a.03.03 0 0 1-.008.021.07.07 0 0 1-.04.02 1.038 1.038 0 0 1-.141.005z"/></symbol><symbol id="V"><path d="M.187.457V.353a.33.33 0 0 0 .08.094.117.117 0 0 0 .065.023.057.057 0 0 0 .043-.017C.387.443.392.426.392.406A.074.074 0 0 0 .376.355.049.049 0 0 0 .338.337a.066.066 0 0 0-.045.017.274.274 0 0 1-.022.018.021.021 0 0 1-.012.003.041.041 0 0 1-.027-.01.101.101 0 0 1-.03-.048.332.332 0 0 1-.015-.105V.08C.187.062.188.05.19.044a.04.04 0 0 1 .018-.02.107.107 0 0 1 .039-.006V0H0v.018c.02.001.033.007.04.016.007.01.01.034.01.073V.36a.19.19 0 0 1-.003.05.04.04 0 0 1-.014.02A.075.075 0 0 1 0 .438v.019h.187z"/></symbol><symbol id="W"><path d="M.439.676V.15c0-.035 0-.056.003-.063A.04.04 0 0 1 .457.063a.08.08 0 0 1 .038-.01V.039L.302 0v.072A.238.238 0 0 0 .24.015.122.122 0 0 0 .18 0 .157.157 0 0 0 .04.078.281.281 0 0 0 0 .234c0 .049.008.093.025.132.017.039.04.068.07.088.03.02.061.03.095.03A.128.128 0 0 0 .248.47.195.195 0 0 0 .302.427v.137a.246.246 0 0 1-.004.063.042.042 0 0 1-.018.021.097.097 0 0 1-.044.007v.02H.44M.302.367C.278.412.25.436.214.436a.045.045 0 0 1-.03-.01.111.111 0 0 1-.03-.053.445.445 0 0 1-.01-.117c0-.058.003-.1.012-.128A.124.124 0 0 1 .19.068a.047.047 0 0 1 .031-.01c.029 0 .056.023.081.068v.24z"/></symbol><symbol id="X"><path d="M.213.484c.04 0 .077-.01.11-.03.035-.021.06-.05.078-.088A.286.286 0 0 0 .428.242a.262.262 0 0 0-.05-.163A.195.195 0 0 0 .215 0a.188.188 0 0 0-.158.072A.267.267 0 0 0 0 .24a.27.27 0 0 0 .057.17c.038.05.09.074.156.074M.215.449A.057.057 0 0 1 .172.43C.16.418.152.393.148.356A1.687 1.687 0 0 1 .143.202C.143.167.145.135.15.104A.094.094 0 0 1 .173.052a.054.054 0 0 1 .04-.018C.228.034.24.038.25.046a.082.082 0 0 1 .025.046 1.127 1.127 0 0 1 0 .302.087.087 0 0 1-.027.045.051.051 0 0 1-.033.01z"/></symbol><symbol id="Y"><path d="M.186.457v-.06a.263.263 0 0 0 .067.056.143.143 0 0 0 .07.017.11.11 0 0 0 .073-.025.117.117 0 0 0 .04-.06.473.473 0 0 0 .007-.108V.1c0-.036.003-.058.01-.066C.459.025.473.02.493.018V0H.262v.018c.017.002.03.009.037.021.005.008.008.028.008.06v.204a.332.332 0 0 1-.005.07.041.041 0 0 1-.015.023.036.036 0 0 1-.023.008C.236.404.21.384.186.344V.1c0-.035.003-.056.01-.065C.201.025.213.02.23.018V0H0v.018C.02.02.033.026.041.036.047.043.049.064.049.1v.257C.05.392.046.413.04.422.034.43.02.436 0 .438v.019h.186z"/></symbol><symbol id="Z"><path d="M.191.26V.09c0-.023.002-.04.006-.048A.038.038 0 0 1 .214.024.118.118 0 0 1 .26.018V0H0v.018c.02 0 .035.006.045.017.006.008.01.027.01.058v.482C.055.607.05.628.043.637.036.646.021.65 0 .652V.67h.191V.61c.016.024.033.04.05.051A.146.146 0 0 0 .41.652.195.195 0 0 0 .471.564.347.347 0 0 0 .471.317.185.185 0 0 0 .407.23.158.158 0 0 0 .243.217.185.185 0 0 0 .19.26m0 .05C.22.27.25.25.281.25.3.25.313.26.325.278.342.305.35.358.35.434.35.513.34.567.322.596a.057.057 0 0 1-.05.029C.24.625.212.6.192.553V.31z"/></symbol><symbol id="aa"><path d="M.283.483.29.327H.273a.243.243 0 0 1-.062.095.102.102 0 0 1-.063.025.047.047 0 0 1-.034-.013A.04.04 0 0 1 .1.403.04.04 0 0 1 .11.377.473.473 0 0 1 .196.31.35.35 0 0 0 .29.226.131.131 0 0 0 .314.15a.16.16 0 0 0-.02-.074A.134.134 0 0 0 .242.02.153.153 0 0 0 .165 0a.266.266 0 0 0-.088.02.073.073 0 0 1-.02.006C.047.026.037.018.03 0H.014L.006.166h.017a.213.213 0 0 1 .06-.097C.109.047.133.037.156.037.17.037.184.04.194.05c.01.01.015.021.015.035a.06.06 0 0 1-.015.04.382.382 0 0 1-.065.052.513.513 0 0 0-.097.08A.138.138 0 0 0 0 .345C0 .38.012.413.036.44c.025.029.06.043.106.043A.153.153 0 0 0 .213.466.048.048 0 0 1 .235.458c.006 0 .01.002.014.004a.1.1 0 0 1 .017.02h.017z"/></symbol><symbol id="ab"><path d="M.084 0H.061L.01.187A.237.237 0 0 0 0 .25c0 .022.007.04.02.053a.069.069 0 0 0 .052.022c.023 0 .04-.008.053-.023A.074.074 0 0 0 .144.253.3.3 0 0 0 .133.187L.084 0z"/></symbol><symbol id="ac"><path d="M.478 0 .353.335.23 0H.205L.083.331A.378.378 0 0 1 .037.43.068.068 0 0 1 0 .452V.47h.23V.452C.215.452.204.45.198.445.192.441.19.435.19.43.19.424.195.408.205.38L.272.202.336.38.332.392a.133.133 0 0 1-.026.046.064.064 0 0 1-.034.014V.47h.234V.452C.488.452.476.45.47.444.466.44.464.434.464.427.464.42.469.404.478.38L.542.202l.06.164c.008.023.012.04.012.048C.614.426.61.436.604.44.598.447.586.451.568.452V.47h.136V.452A.06.06 0 0 1 .668.436.23.23 0 0 1 .634.363L.506 0H.478z"/></symbol><symbol id="ad"><path d="M.123.678C.144.678.163.67.177.655A.072.072 0 0 0 .199.602.072.072 0 0 0 .176.55.072.072 0 0 0 .123.527.072.072 0 0 0 .07.549a.072.072 0 0 0-.022.053c0 .02.007.039.022.053a.072.072 0 0 0 .053.023M.191.457V.095c0-.033.004-.053.012-.062C.21.023.225.019.247.018V0H0v.018c.02 0 .035.006.045.017.006.008.01.027.01.06V.36C.055.394.05.414.043.423.036.432.021.437 0 .438v.019h.191z"/></symbol><symbol id="ae"><path d="M.285 0H0v.101h.285V0z"/></symbol><symbol id="af"><path d="M.235.197.087.536A.426.426 0 0 1 .038.63.082.082 0 0 1 0 .654v.018h.243V.654C.227.654.215.651.209.645a.025.025 0 0 1-.01-.02C.2.613.207.588.224.552L.302.373l.053.138c.02.05.029.084.029.103a.036.036 0 0 1-.012.029C.364.65.35.653.33.654v.018h.152V.654A.057.057 0 0 1 .446.637.423.423 0 0 1 .398.536L.268.197A.743.743 0 0 0 .195.041.105.105 0 0 0 .11 0a.093.093 0 0 0-.066.023A.073.073 0 0 0 .02.08c0 .019.005.035.017.047A.057.057 0 0 0 .08.145C.096.145.109.139.119.129.129.119.134.102.134.08.134.068.136.06.14.057A.013.013 0 0 1 .149.05c.009 0 .017.005.026.014A.303.303 0 0 1 .22.16l.014.038z"/></symbol><symbol id="ag"><path d="M.186.457v-.06a.26.26 0 0 0 .07.057A.151.151 0 0 0 .398.45.13.13 0 0 0 .445.387c.026.03.051.05.075.064.024.013.05.02.075.02A.118.118 0 0 0 .67.447.11.11 0 0 0 .71.393.363.363 0 0 0 .72.287V.1C.72.064.725.043.73.034.736.026.75.02.77.018V0H.534v.018c.019.001.032.008.041.021.006.009.009.029.009.06v.197c0 .04-.002.066-.005.078a.044.044 0 0 1-.016.024.038.038 0 0 1-.024.008.072.072 0 0 1-.042-.015.192.192 0 0 1-.044-.046V.1c0-.033.003-.054.008-.062C.47.026.483.018.504.018V0H.268v.018c.013 0 .023.003.03.009a.04.04 0 0 1 .015.02A.215.215 0 0 1 .316.1v.196a.356.356 0 0 1-.004.078.047.047 0 0 1-.017.024.039.039 0 0 1-.024.009.065.065 0 0 1-.036-.01.2.2 0 0 1-.049-.052V.1c0-.033.003-.054.01-.064.006-.01.02-.016.04-.018V0H0v.018C.02.02.033.026.041.036.047.043.049.064.049.1v.257C.05.392.046.413.04.422.034.43.02.436 0 .438v.019h.186z"/></symbol><symbol id="ah"><path d="M.444.47V.113c0-.035.003-.057.01-.066C.46.04.474.034.494.031V.014H.306v.06A.239.239 0 0 0 .242.019.152.152 0 0 0 .168 0 .11.11 0 0 0 .1.023.118.118 0 0 0 .06.08a.409.409 0 0 0-.01.11v.182C.05.406.045.427.04.436.033.444.02.45 0 .452V.47h.186V.158C.186.126.188.105.19.095A.044.044 0 0 1 .205.074.04.04 0 0 1 .23.066C.24.066.25.07.26.076a.202.202 0 0 1 .047.051v.244c0 .035-.003.056-.01.065C.291.444.278.45.257.452V.47h.187z"/></symbol><symbol id="ai"><path d="M.368.131.383.12a.229.229 0 0 0-.08-.09A.192.192 0 0 0 .2 0C.14 0 .09.023.055.069A.258.258 0 0 0 0 .234c0 .063.017.117.05.164.04.057.095.086.165.086A.167.167 0 0 0 .328.448C.356.424.37.398.37.368A.06.06 0 0 0 .353.325.06.06 0 0 0 .309.308.065.065 0 0 0 .26.327C.248.339.24.362.238.395.236.415.23.429.224.437A.035.035 0 0 1 .197.45C.182.45.168.44.157.425A.208.208 0 0 1 .132.31c0-.043.007-.085.02-.124A.19.19 0 0 1 .208.099.1.1 0 0 1 .272.078c.016 0 .031.003.045.01a.209.209 0 0 1 .051.043z"/></symbol><symbol id="aj"><path d="M.191.662V.095c0-.033.004-.053.012-.062C.21.023.225.019.247.018V0H0v.018c.02 0 .035.006.045.017.006.008.01.027.01.06v.472C.055.6.05.62.043.628.036.638.021.643 0 .644v.018h.191z"/></symbol><symbol id="ak"><path d="M.302.262A.206.206 0 0 0 .247.218.154.154 0 0 0 .175.2.154.154 0 0 0 .04.277a.303.303 0 0 0-.01.279C.05.597.077.629.112.65a.206.206 0 0 0 .112.033C.25.684.273.68.293.671A.137.137 0 0 0 .346.63l.076.053H.44V.093c0-.03.003-.049.008-.056C.455.025.472.018.498.018V0H.234v.018c.02 0 .035.002.044.007.01.004.016.01.019.018a.126.126 0 0 1 .005.046v.173m0 .044v.188a.387.387 0 0 1-.009.104.093.093 0 0 1-.03.044.047.047 0 0 1-.03.01.064.064 0 0 1-.058-.033C.153.585.143.523.143.432c0-.07.009-.12.027-.148C.183.265.2.255.22.255.23.255.245.26.26.268c.014.008.029.02.042.038z"/></symbol><use xlink:href="#M" transform="matrix(6 0 0 -6 13.68 59.707)"/><use xlink:href="#N" transform="matrix(6 0 0 -6 15.165 59.634)"/><use xlink:href="#N" transform="matrix(6 0 0 -6 16.665 59.634)"/><use xlink:href="#O" transform="matrix(6 0 0 -6 18.678 59.713)"/><use xlink:href="#N" transform="matrix(6 0 0 -6 24.165 59.634)"/><use xlink:href="#P" transform="matrix(6 0 0 -6 25.777 59.672)"/><use xlink:href="#Q" transform="matrix(6 0 0 -6 27.868 59.634)"/><use xlink:href="#R" transform="matrix(6 0 0 -6 31.395 59.716)"/><use xlink:href="#N" transform="matrix(6 0 0 -6 34.163 59.634)"/><use xlink:href="#R" transform="matrix(6 0 0 -6 35.397 59.716)"/><use xlink:href="#S" transform="matrix(6 0 0 -6 38.303 59.634)"/><use xlink:href="#T" transform="matrix(6 0 0 -6 41.435 59.672)"/><use xlink:href="#U" transform="matrix(6 0 0 -6 44.39 60.929)"/><use xlink:href="#U" transform="matrix(6 0 0 -6 47.39 60.929)"/><use xlink:href="#R" transform="matrix(6 0 0 -6 50.397 59.716)"/><use xlink:href="#V" transform="matrix(6 0 0 -6 53.385 59.634)"/><use xlink:href="#T" transform="matrix(6 0 0 -6 55.935 59.672)"/><use xlink:href="#P" transform="matrix(6 0 0 -6 58.777 59.672)"/><use xlink:href="#R" transform="matrix(6 0 0 -6 60.895 59.716)"/><use xlink:href="#W" transform="matrix(6 0 0 -6 63.895 59.716)"/><use xlink:href="#N" transform="matrix(6 0 0 -6 66.663 59.634)"/><use xlink:href="#P" transform="matrix(6 0 0 -6 67.777 59.672)"/><use xlink:href="#X" transform="matrix(6 0 0 -6 69.88 59.716)"/><use xlink:href="#Y" transform="matrix(6 0 0 -6 72.868 59.634)"/><use xlink:href="#R" transform="matrix(6 0 0 -6 76.395 59.716)"/><use xlink:href="#N" transform="matrix(6 0 0 -6 79.164 59.634)"/><use xlink:href="#T" transform="matrix(6 0 0 -6 80.435 59.672)"/><use xlink:href="#Y" transform="matrix(6 0 0 -6 83.37 59.634)"/><use xlink:href="#W" transform="matrix(6 0 0 -6 86.898 59.716)"/><use xlink:href="#N" transform="matrix(6 0 0 -6 89.666 59.634)"/><use xlink:href="#P" transform="matrix(6 0 0 -6 91.777 59.672)"/><use xlink:href="#Q" transform="matrix(6 0 0 -6 93.87 59.634)"/><use xlink:href="#R" transform="matrix(6 0 0 -6 97.396 59.716)"/><use xlink:href="#N" transform="matrix(6 0 0 -6 100.164 59.634)"/><use xlink:href="#Z" transform="matrix(6 0 0 -6 101.28 60.917)"/><use xlink:href="#R" transform="matrix(6 0 0 -6 104.397 59.716)"/><use xlink:href="#V" transform="matrix(6 0 0 -6 107.386 59.634)"/><use xlink:href="#aa" transform="matrix(6 0 0 -6 109.903 59.716)"/><use xlink:href="#X" transform="matrix(6 0 0 -6 112.382 59.716)"/><use xlink:href="#Y" transform="matrix(6 0 0 -6 115.37 59.634)"/><use xlink:href="#ab" transform="matrix(6 0 0 -6 119.076 57.519)"/><use xlink:href="#aa" transform="matrix(6 0 0 -6 120.403 59.716)"/><use xlink:href="#N" transform="matrix(6 0 0 -6 122.666 59.634)"/><use xlink:href="#ac" transform="matrix(6 0 0 -6 123.717 59.716)"/><use xlink:href="#ad" transform="matrix(6 0 0 -6 127.79 59.634)"/><use xlink:href="#W" transform="matrix(6 0 0 -6 129.899 59.716)"/><use xlink:href="#R" transform="matrix(6 0 0 -6 132.899 59.716)"/><use xlink:href="#ae" transform="matrix(6 0 0 -6 135.816 58.559)"/><use xlink:href="#R" transform="matrix(6 0 0 -6 137.899 59.716)"/><use xlink:href="#af" transform="matrix(6 0 0 -6 140.717 60.929)"/><use xlink:href="#R" transform="matrix(6 0 0 -6 143.899 59.716)"/><use xlink:href="#W" transform="matrix(6 0 0 -6 146.899 59.716)"/><use xlink:href="#N" transform="matrix(6 0 0 -6 149.667 59.634)"/><use xlink:href="#O" transform="matrix(6 0 0 -6 151.68 59.713)"/><use xlink:href="#N" transform="matrix(6 0 0 -6 157.167 59.634)"/><use xlink:href="#T" transform="matrix(6 0 0 -6 8.937 66.674)"/><use xlink:href="#Y" transform="matrix(6 0 0 -6 11.872 66.636)"/><use xlink:href="#W" transform="matrix(6 0 0 -6 15.399 66.718)"/><use xlink:href="#N" transform="matrix(6 0 0 -6 18.167 66.636)"/><use xlink:href="#P" transform="matrix(6 0 0 -6 20.279 66.674)"/><use xlink:href="#Q" transform="matrix(6 0 0 -6 22.37 66.636)"/><use xlink:href="#R" transform="matrix(6 0 0 -6 25.897 66.718)"/><use xlink:href="#N" transform="matrix(6 0 0 -6 28.665 66.636)"/><use xlink:href="#ac" transform="matrix(6 0 0 -6 29.717 66.718)"/><use xlink:href="#T" transform="matrix(6 0 0 -6 33.937 66.674)"/><use xlink:href="#af" transform="matrix(6 0 0 -6 36.717 67.93)"/><use xlink:href="#N" transform="matrix(6 0 0 -6 39.668 66.636)"/><use xlink:href="#P" transform="matrix(6 0 0 -6 41.279 66.674)"/><use xlink:href="#Q" transform="matrix(6 0 0 -6 43.37 66.636)"/><use xlink:href="#R" transform="matrix(6 0 0 -6 46.897 66.718)"/><use xlink:href="#N" transform="matrix(6 0 0 -6 49.665 66.636)"/><use xlink:href="#Z" transform="matrix(6 0 0 -6 50.782 67.92)"/><use xlink:href="#Q" transform="matrix(6 0 0 -6 53.872 66.636)"/><use xlink:href="#V" transform="matrix(6 0 0 -6 57.387 66.636)"/><use xlink:href="#T" transform="matrix(6 0 0 -6 59.937 66.674)"/><use xlink:href="#aa" transform="matrix(6 0 0 -6 62.905 66.718)"/><use xlink:href="#R" transform="matrix(6 0 0 -6 65.398 66.718)"/><use xlink:href="#N" transform="matrix(6 0 0 -6 68.167 66.636)"/><use xlink:href="#ad" transform="matrix(6 0 0 -6 69.79 66.636)"/><use xlink:href="#aa" transform="matrix(6 0 0 -6 71.905 66.718)"/><use xlink:href="#N" transform="matrix(6 0 0 -6 74.167 66.636)"/><use xlink:href="#aa" transform="matrix(6 0 0 -6 75.406 66.718)"/><use xlink:href="#T" transform="matrix(6 0 0 -6 77.939 66.674)"/><use xlink:href="#ad" transform="matrix(6 0 0 -6 80.792 66.636)"/><use xlink:href="#W" transform="matrix(6 0 0 -6 82.9 66.718)"/><use xlink:href="#N" transform="matrix(6 0 0 -6 85.669 66.636)"/><use xlink:href="#T" transform="matrix(6 0 0 -6 87.439 66.674)"/><use xlink:href="#W" transform="matrix(6 0 0 -6 90.4 66.718)"/><use xlink:href="#W" transform="matrix(6 0 0 -6 93.4 66.718)"/><use xlink:href="#aa" transform="matrix(6 0 0 -6 96.406 66.718)"/><use xlink:href="#N" transform="matrix(6 0 0 -6 98.669 66.636)"/><use xlink:href="#T" transform="matrix(6 0 0 -6 100.939 66.674)"/><use xlink:href="#N" transform="matrix(6 0 0 -6 103.669 66.636)"/><use xlink:href="#ag" transform="matrix(6 0 0 -6 105.392 66.636)"/><use xlink:href="#ah" transform="matrix(6 0 0 -6 110.352 66.718)"/><use xlink:href="#aa" transform="matrix(6 0 0 -6 113.904 66.718)"/><use xlink:href="#ad" transform="matrix(6 0 0 -6 116.29 66.636)"/><use xlink:href="#ai" transform="matrix(6 0 0 -6 118.395 66.718)"/><use xlink:href="#T" transform="matrix(6 0 0 -6 120.937 66.674)"/><use xlink:href="#aj" transform="matrix(6 0 0 -6 123.793 66.636)"/><use xlink:href="#N" transform="matrix(6 0 0 -6 125.667 66.636)"/><use xlink:href="#ak" transform="matrix(6 0 0 -6 126.897 67.92)"/><use xlink:href="#ah" transform="matrix(6 0 0 -6 129.853 66.718)"/><use xlink:href="#T" transform="matrix(6 0 0 -6 133.438 66.674)"/><use xlink:href="#aj" transform="matrix(6 0 0 -6 136.295 66.636)"/><use xlink:href="#ad" transform="matrix(6 0 0 -6 138.292 66.636)"/><use xlink:href="#P" transform="matrix(6 0 0 -6 140.28 66.674)"/><use xlink:href="#af" transform="matrix(6 0 0 -6 142.217 67.93)"/><use xlink:href="#N" transform="matrix(6 0 0 -6 145.167 66.636)"/><use xlink:href="#P" transform="matrix(6 0 0 -6 146.28 66.674)"/><use xlink:href="#Q" transform="matrix(6 0 0 -6 148.372 66.636)"/><use xlink:href="#T" transform="matrix(6 0 0 -6 151.936 66.674)"/><use xlink:href="#P" transform="matrix(6 0 0 -6 154.778 66.674)"/><use xlink:href="#N" transform="matrix(6 0 0 -6 156.665 66.636)"/><use xlink:href="#O" transform="matrix(6 0 0 -6 158.18 66.715)"/><path d="M124.917 67.634H8.667v.5h155v-.5z"/></g><symbol id="al"><path d="M.566.692.58.467H.566a.283.283 0 0 1-.087.146.21.21 0 0 1-.134.044.218.218 0 0 1-.12-.033.221.221 0 0 1-.083-.107.479.479 0 0 1-.03-.182C.111.275.12.223.14.179a.216.216 0 0 1 .087-.1.25.25 0 0 1 .132-.036c.043 0 .08.01.114.027A.379.379 0 0 1 .58.18L.596.17A.348.348 0 0 0 .48.041.294.294 0 0 0 .322 0C.212 0 .128.04.067.122A.349.349 0 0 0 0 .336a.38.38 0 0 0 .044.182.33.33 0 0 0 .292.174A.312.312 0 0 0 .48.657a.077.077 0 0 1 .029-.01C.517.646.524.65.53.655a.076.076 0 0 1 .018.036h.017z"/></symbol><use xlink:href="#al" transform="matrix(7 0 0 -7 8.92 75.24)"/><symbol id="am"><path d="M.156.384c.044.06.09.09.14.09.046 0 .086-.02.12-.059a.236.236 0 0 0 .052-.16.248.248 0 0 0-.08-.193.218.218 0 0 0-.23-.048.366.366 0 0 0-.082.043V.52c0 .05-.002.082-.004.094C.069.625.066.634.06.638a.03.03 0 0 1-.02.006.1.1 0 0 1-.034-.008L0 .653l.134.055h.022V.384m0-.031V.085A.194.194 0 0 1 .208.048.13.13 0 0 1 .262.036c.03 0 .057.016.083.048.025.033.038.08.038.143a.2.2 0 0 1-.038.131C.319.39.29.405.258.405A.113.113 0 0 1 .206.392a.224.224 0 0 1-.05-.04z"/></symbol><use xlink:href="#i" transform="matrix(6 0 0 -6 13.683 75.216)"/><use xlink:href="#j" transform="matrix(6 0 0 -6 14.667 75.134)"/><use xlink:href="#A" transform="matrix(6 0 0 -6 16.849 75.134)"/><use xlink:href="#t" transform="matrix(6 0 0 -6 20.706 75.134)"/><use xlink:href="#c" transform="matrix(6 0 0 -6 23.89 75.216)"/><use xlink:href="#j" transform="matrix(6 0 0 -6 26.168 75.134)"/><use xlink:href="#t" transform="matrix(6 0 0 -6 27.208 75.134)"/><use xlink:href="#b" transform="matrix(6 0 0 -6 30.175 75.216)"/><use xlink:href="#u" transform="matrix(6 0 0 -6 33.22 75.134)"/><use xlink:href="#g" transform="matrix(6 0 0 -6 37.872 75.216)"/><use xlink:href="#H" transform="matrix(6 0 0 -6 40.708 75.134)"/><use xlink:href="#j" transform="matrix(6 0 0 -6 42.668 75.134)"/><use xlink:href="#l" transform="matrix(6 0 0 -6 44.381 75.19)"/><use xlink:href="#H" transform="matrix(6 0 0 -6 46.705 75.134)"/><use xlink:href="#f" transform="matrix(6 0 0 -6 48.84 75.134)"/><use xlink:href="#d" transform="matrix(6 0 0 -6 50.458 75.216)"/><use xlink:href="#c" transform="matrix(6 0 0 -6 52.887 75.216)"/><use xlink:href="#d" transform="matrix(6 0 0 -6 55.458 75.216)"/><use xlink:href="#j" transform="matrix(6 0 0 -6 57.665 75.134)"/><use xlink:href="#B" transform="matrix(6 0 0 -6 60.339 75.216)"/><use xlink:href="#j" transform="matrix(6 0 0 -6 65.665 75.134)"/><use xlink:href="#f" transform="matrix(6 0 0 -6 67.34 75.134)"/><use xlink:href="#d" transform="matrix(6 0 0 -6 68.958 75.216)"/><use xlink:href="#j" transform="matrix(6 0 0 -6 71.165 75.134)"/><use xlink:href="#x" transform="matrix(6 0 0 -6 72.7 76.429)"/><use xlink:href="#c" transform="matrix(6 0 0 -6 76.388 75.216)"/><use xlink:href="#G" transform="matrix(6 0 0 -6 78.843 75.134)"/><use xlink:href="#G" transform="matrix(6 0 0 -6 80.343 75.134)"/><use xlink:href="#c" transform="matrix(6 0 0 -6 81.887 75.216)"/><use xlink:href="#m" transform="matrix(6 0 0 -6 84.364 75.216)"/><use xlink:href="#j" transform="matrix(6 0 0 -6 87.165 75.134)"/><use xlink:href="#H" transform="matrix(6 0 0 -6 88.703 75.134)"/><use xlink:href="#c" transform="matrix(6 0 0 -6 90.885 75.216)"/><use xlink:href="#K" transform="matrix(6 0 0 -6 93.142 76.417)"/><use xlink:href="#c" transform="matrix(6 0 0 -6 96.885 75.216)"/><use xlink:href="#l" transform="matrix(6 0 0 -6 99.377 75.19)"/><use xlink:href="#e" transform="matrix(6 0 0 -6 101.721 75.178)"/><use xlink:href="#c" transform="matrix(6 0 0 -6 103.886 75.216)"/><use xlink:href="#m" transform="matrix(6 0 0 -6 106.362 75.216)"/><use xlink:href="#G" transform="matrix(6 0 0 -6 109.341 75.134)"/><use xlink:href="#x" transform="matrix(6 0 0 -6 110.698 76.429)"/><use xlink:href="#j" transform="matrix(6 0 0 -6 114.163 75.134)"/><use xlink:href="#f" transform="matrix(6 0 0 -6 115.34 75.134)"/><use xlink:href="#h" transform="matrix(6 0 0 -6 116.7 75.134)"/><use xlink:href="#j" transform="matrix(6 0 0 -6 119.665 75.134)"/><use xlink:href="#l" transform="matrix(6 0 0 -6 120.88 75.19)"/><use xlink:href="#h" transform="matrix(6 0 0 -6 123.202 75.134)"/><use xlink:href="#j" transform="matrix(6 0 0 -6 126.167 75.134)"/><use xlink:href="#f" transform="matrix(6 0 0 -6 128.343 75.134)"/><use xlink:href="#h" transform="matrix(6 0 0 -6 129.702 75.134)"/><use xlink:href="#e" transform="matrix(6 0 0 -6 132.726 75.178)"/><use xlink:href="#c" transform="matrix(6 0 0 -6 134.89 75.216)"/><use xlink:href="#h" transform="matrix(6 0 0 -6 137.202 75.134)"/><use xlink:href="#d" transform="matrix(6 0 0 -6 140.46 75.216)"/><use xlink:href="#c" transform="matrix(6 0 0 -6 142.89 75.216)"/><use xlink:href="#j" transform="matrix(6 0 0 -6 145.167 75.134)"/><use xlink:href="#q" transform="matrix(6 0 0 -6 146.219 75.216)"/><use xlink:href="#g" transform="matrix(6 0 0 -6 149.37 75.216)"/><use xlink:href="#f" transform="matrix(6 0 0 -6 152.344 75.134)"/><use xlink:href="#I" transform="matrix(6 0 0 -6 153.874 75.216)"/><use xlink:href="#c" transform="matrix(6 0 0 -6 156.392 75.216)"/><use xlink:href="#r" transform="matrix(6 0 0 -6 158.99 76.133)"/><use xlink:href="#j" transform="matrix(6 0 0 -6 160.168 75.134)"/><use xlink:href="#am" transform="matrix(6 0 0 -6 8.653 82.716)"/><use xlink:href="#b" transform="matrix(6 0 0 -6 11.673 82.716)"/><use xlink:href="#e" transform="matrix(6 0 0 -6 14.726 82.678)"/><use xlink:href="#j" transform="matrix(6 0 0 -6 16.667 82.634)"/><use xlink:href="#e" transform="matrix(6 0 0 -6 17.726 82.678)"/><use xlink:href="#t" transform="matrix(6 0 0 -6 19.705 82.634)"/><use xlink:href="#c" transform="matrix(6 0 0 -6 22.89 82.716)"/><use xlink:href="#j" transform="matrix(6 0 0 -6 25.167 82.634)"/><use xlink:href="#w" transform="matrix(6 0 0 -6 26.899 82.634)"/><use xlink:href="#l" transform="matrix(6 0 0 -6 28.88 82.69)"/><use xlink:href="#I" transform="matrix(6 0 0 -6 31.37 82.716)"/><use xlink:href="#f" transform="matrix(6 0 0 -6 33.841 82.634)"/><use xlink:href="#l" transform="matrix(6 0 0 -6 35.38 82.69)"/><use xlink:href="#G" transform="matrix(6 0 0 -6 37.844 82.634)"/><use xlink:href="#j" transform="matrix(6 0 0 -6 39.165 82.634)"/><use xlink:href="#c" transform="matrix(6 0 0 -6 41.388 82.716)"/><use xlink:href="#J" transform="matrix(6 0 0 -6 43.744 82.634)"/><use xlink:href="#K" transform="matrix(6 0 0 -6 46.145 83.917)"/><use xlink:href="#H" transform="matrix(6 0 0 -6 49.703 82.634)"/><use xlink:href="#c" transform="matrix(6 0 0 -6 51.886 82.716)"/><use xlink:href="#d" transform="matrix(6 0 0 -6 54.456 82.716)"/><use xlink:href="#d" transform="matrix(6 0 0 -6 56.956 82.716)"/><use xlink:href="#f" transform="matrix(6 0 0 -6 59.339 82.634)"/><use xlink:href="#g" transform="matrix(6 0 0 -6 60.865 82.716)"/><use xlink:href="#h" transform="matrix(6 0 0 -6 63.698 82.634)"/><use xlink:href="#j" transform="matrix(6 0 0 -6 66.663 82.634)"/><use xlink:href="#d" transform="matrix(6 0 0 -6 68.456 82.716)"/><use xlink:href="#e" transform="matrix(6 0 0 -6 70.721 82.678)"/><use xlink:href="#l" transform="matrix(6 0 0 -6 72.877 82.69)"/><use xlink:href="#x" transform="matrix(6 0 0 -6 75.198 83.929)"/><use xlink:href="#d" transform="matrix(6 0 0 -6 78.956 82.716)"/><use xlink:href="#j" transform="matrix(6 0 0 -6 81.163 82.634)"/><use xlink:href="#I" transform="matrix(6 0 0 -6 82.368 82.716)"/><use xlink:href="#g" transform="matrix(6 0 0 -6 84.865 82.716)"/><use xlink:href="#u" transform="matrix(6 0 0 -6 87.713 82.634)"/><use xlink:href="#K" transform="matrix(6 0 0 -6 92.143 83.917)"/><use xlink:href="#G" transform="matrix(6 0 0 -6 95.842 82.634)"/><use xlink:href="#c" transform="matrix(6 0 0 -6 97.386 82.716)"/><use xlink:href="#e" transform="matrix(6 0 0 -6 99.722 82.678)"/><use xlink:href="#c" transform="matrix(6 0 0 -6 101.886 82.716)"/><use xlink:href="#G" transform="matrix(6 0 0 -6 104.342 82.634)"/><use xlink:href="#x" transform="matrix(6 0 0 -6 105.698 83.929)"/><use xlink:href="#j" transform="matrix(6 0 0 -6 109.163 82.634)"/><use xlink:href="#am" transform="matrix(6 0 0 -6 110.148 82.716)"/><use xlink:href="#G" transform="matrix(6 0 0 -6 113.342 82.634)"/><use xlink:href="#l" transform="matrix(6 0 0 -6 114.877 82.69)"/><use xlink:href="#h" transform="matrix(6 0 0 -6 117.198 82.634)"/><use xlink:href="#v" transform="matrix(6 0 0 -6 120.213 82.634)"/><use xlink:href="#r" transform="matrix(6 0 0 -6 123.485 83.633)"/><use xlink:href="#j" transform="matrix(6 0 0 -6 124.663 82.634)"/><use xlink:href="#s" transform="matrix(6 0 0 -6 126.2 82.716)"/><use xlink:href="#t" transform="matrix(6 0 0 -6 130.7 82.634)"/><use xlink:href="#f" transform="matrix(6 0 0 -6 133.839 82.634)"/><use xlink:href="#G" transform="matrix(6 0 0 -6 135.341 82.634)"/><use xlink:href="#c" transform="matrix(6 0 0 -6 136.885 82.716)"/><use xlink:href="#j" transform="matrix(6 0 0 -6 139.163 82.634)"/><use xlink:href="#B" transform="matrix(6 0 0 -6 141.337 82.716)"/><symbol id="an"><path d="M0 0v.018h.025c.028 0 .048.009.06.027.007.01.01.035.01.072v.428c0 .041-.004.067-.013.078C.069.637.05.644.025.644H0v.018h.27A.587.587 0 0 0 .495.628.267.267 0 0 0 .62.516.345.345 0 0 0 .667.334a.331.331 0 0 0-.084-.23C.52.034.424 0 .296 0H0m.189.048A.499.499 0 0 1 .293.034c.075 0 .138.027.188.08.05.053.075.125.075.216A.302.302 0 0 1 .48.546a.252.252 0 0 1-.192.079.415.415 0 0 1-.1-.014V.048z"/></symbol><use xlink:href="#an" transform="matrix(7 0 0 -7 8.787 90.634)"/><symbol id="ao"><path d="M.121.379a.148.148 0 0 0-.085.135c0 .044.017.083.05.114a.179.179 0 0 0 .128.048c.043 0 .08-.01.111-.031H.42L.444.644A.007.007 0 0 0 .45.64C.451.637.452.632.452.624S.452.61.45.606A.01.01 0 0 0 .444.603.104.104 0 0 0 .42.6H.362a.142.142 0 0 0 .027-.09.14.14 0 0 0-.048-.107A.181.181 0 0 0 .213.36a.25.25 0 0 0-.068.01.131.131 0 0 1-.03-.033.052.052 0 0 1-.007-.024c0-.005.003-.01.008-.016C.122.292.132.288.148.287A.841.841 0 0 1 .216.282C.283.28.326.279.346.276A.121.121 0 0 0 .42.242.092.092 0 0 0 .446.175C.446.138.43.104.395.07A.28.28 0 0 0 .195 0a.285.285 0 0 0-.158.042C.012.06 0 .076 0 .093 0 .101.002.11.005.117a.273.273 0 0 0 .035.05L.09.22a.166.166 0 0 0-.037.027.041.041 0 0 0-.01.027c0 .011.005.025.014.04.01.015.03.037.064.065m.085.274a.076.076 0 0 1-.06-.029C.129.604.12.575.12.536a.19.19 0 0 1 .033-.12A.079.079 0 0 1 .22.384c.024 0 .045.01.06.028.017.018.025.047.025.087A.196.196 0 0 1 .27.621a.077.077 0 0 1-.064.032M.116.216A.24.24 0 0 1 .082.169.084.084 0 0 1 .07.13C.07.115.08.102.098.09A.27.27 0 0 1 .24.059c.059 0 .102.01.13.03C.397.11.41.133.41.157.41.173.402.185.386.192a.326.326 0 0 1-.1.013C.211.207.155.21.115.215z"/></symbol><use xlink:href="#i" transform="matrix(6 0 0 -6 14.183 90.716)"/><use xlink:href="#j" transform="matrix(6 0 0 -6 15.167 90.634)"/><use xlink:href="#A" transform="matrix(6 0 0 -6 16.849 90.634)"/><use xlink:href="#t" transform="matrix(6 0 0 -6 20.706 90.634)"/><use xlink:href="#c" transform="matrix(6 0 0 -6 23.89 90.716)"/><use xlink:href="#j" transform="matrix(6 0 0 -6 26.167 90.634)"/><use xlink:href="#u" transform="matrix(6 0 0 -6 27.717 90.634)"/><use xlink:href="#c" transform="matrix(6 0 0 -6 32.39 90.716)"/><use xlink:href="#u" transform="matrix(6 0 0 -6 34.717 90.634)"/><use xlink:href="#c" transform="matrix(6 0 0 -6 39.39 90.716)"/><use xlink:href="#j" transform="matrix(6 0 0 -6 41.668 90.634)"/><use xlink:href="#f" transform="matrix(6 0 0 -6 43.843 90.634)"/><use xlink:href="#d" transform="matrix(6 0 0 -6 45.46 90.716)"/><use xlink:href="#j" transform="matrix(6 0 0 -6 47.668 90.634)"/><use xlink:href="#w" transform="matrix(6 0 0 -6 49.399 90.634)"/><use xlink:href="#b" transform="matrix(6 0 0 -6 51.171 90.716)"/><use xlink:href="#h" transform="matrix(6 0 0 -6 54.2 90.634)"/><use xlink:href="#h" transform="matrix(6 0 0 -6 57.2 90.634)"/><use xlink:href="#x" transform="matrix(6 0 0 -6 60.2 91.929)"/><use xlink:href="#j" transform="matrix(6 0 0 -6 63.665 90.634)"/><use xlink:href="#am" transform="matrix(6 0 0 -6 64.65 90.716)"/><use xlink:href="#c" transform="matrix(6 0 0 -6 67.888 90.716)"/><use xlink:href="#I" transform="matrix(6 0 0 -6 70.37 90.716)"/><use xlink:href="#l" transform="matrix(6 0 0 -6 72.88 90.69)"/><use xlink:href="#b" transform="matrix(6 0 0 -6 75.171 90.716)"/><use xlink:href="#d" transform="matrix(6 0 0 -6 78.458 90.716)"/><use xlink:href="#c" transform="matrix(6 0 0 -6 80.888 90.716)"/><use xlink:href="#j" transform="matrix(6 0 0 -6 83.165 90.634)"/><use xlink:href="#B" transform="matrix(6 0 0 -6 85.84 90.716)"/><use xlink:href="#j" transform="matrix(6 0 0 -6 91.166 90.634)"/><use xlink:href="#f" transform="matrix(6 0 0 -6 92.841 90.634)"/><use xlink:href="#h" transform="matrix(6 0 0 -6 94.2 90.634)"/><use xlink:href="#j" transform="matrix(6 0 0 -6 97.166 90.634)"/><use xlink:href="#l" transform="matrix(6 0 0 -6 98.88 90.69)"/><use xlink:href="#j" transform="matrix(6 0 0 -6 101.165 90.634)"/><use xlink:href="#I" transform="matrix(6 0 0 -6 102.87 90.716)"/><use xlink:href="#t" transform="matrix(6 0 0 -6 105.203 90.634)"/><use xlink:href="#c" transform="matrix(6 0 0 -6 108.388 90.716)"/><use xlink:href="#c" transform="matrix(6 0 0 -6 110.888 90.716)"/><use xlink:href="#H" transform="matrix(6 0 0 -6 113.203 90.634)"/><use xlink:href="#w" transform="matrix(6 0 0 -6 115.395 90.634)"/><use xlink:href="#b" transform="matrix(6 0 0 -6 117.167 90.716)"/><use xlink:href="#G" transform="matrix(6 0 0 -6 120.34 90.634)"/><use xlink:href="#r" transform="matrix(6 0 0 -6 121.983 91.633)"/><use xlink:href="#j" transform="matrix(6 0 0 -6 123.161 90.634)"/><use xlink:href="#b" transform="matrix(6 0 0 -6 125.167 90.716)"/><use xlink:href="#K" transform="matrix(6 0 0 -6 128.14 91.917)"/><use xlink:href="#am" transform="matrix(6 0 0 -6 131.647 90.716)"/><use xlink:href="#c" transform="matrix(6 0 0 -6 134.884 90.716)"/><use xlink:href="#l" transform="matrix(6 0 0 -6 137.375 90.69)"/><use xlink:href="#e" transform="matrix(6 0 0 -6 139.72 90.678)"/><use xlink:href="#j" transform="matrix(6 0 0 -6 141.661 90.634)"/><use xlink:href="#e" transform="matrix(6 0 0 -6 142.72 90.678)"/><use xlink:href="#g" transform="matrix(6 0 0 -6 144.863 90.716)"/><use xlink:href="#h" transform="matrix(6 0 0 -6 147.696 90.634)"/><use xlink:href="#c" transform="matrix(6 0 0 -6 150.884 90.716)"/><use xlink:href="#r" transform="matrix(6 0 0 -6 153.483 91.633)"/><use xlink:href="#j" transform="matrix(6 0 0 -6 154.661 90.634)"/><use xlink:href="#B" transform="matrix(6 0 0 -6 156.335 90.716)"/><use xlink:href="#j" transform="matrix(6 0 0 -6 161.661 90.634)"/><use xlink:href="#d" transform="matrix(6 0 0 -6 8.962 98.216)"/><use xlink:href="#u" transform="matrix(6 0 0 -6 11.22 98.134)"/><use xlink:href="#f" transform="matrix(6 0 0 -6 15.845 98.134)"/><use xlink:href="#G" transform="matrix(6 0 0 -6 17.348 98.134)"/><use xlink:href="#f" transform="matrix(6 0 0 -6 18.845 98.134)"/><use xlink:href="#h" transform="matrix(6 0 0 -6 20.205 98.134)"/><use xlink:href="#ao" transform="matrix(6 0 0 -6 23.348 99.429)"/><use xlink:href="#j" transform="matrix(6 0 0 -6 25.67 98.134)"/><use xlink:href="#w" transform="matrix(6 0 0 -6 28.4 98.134)"/><use xlink:href="#l" transform="matrix(6 0 0 -6 30.381 98.19)"/><use xlink:href="#I" transform="matrix(6 0 0 -6 32.873 98.216)"/><use xlink:href="#c" transform="matrix(6 0 0 -6 35.39 98.216)"/><use xlink:href="#j" transform="matrix(6 0 0 -6 37.667 98.134)"/><use xlink:href="#I" transform="matrix(6 0 0 -6 39.873 98.216)"/><use xlink:href="#g" transform="matrix(6 0 0 -6 42.37 98.216)"/><use xlink:href="#h" transform="matrix(6 0 0 -6 45.202 98.134)"/><use xlink:href="#e" transform="matrix(6 0 0 -6 48.226 98.178)"/><use xlink:href="#H" transform="matrix(6 0 0 -6 50.206 98.134)"/><use xlink:href="#l" transform="matrix(6 0 0 -6 52.38 98.19)"/><use xlink:href="#d" transform="matrix(6 0 0 -6 54.959 98.216)"/><use xlink:href="#e" transform="matrix(6 0 0 -6 57.224 98.178)"/><use xlink:href="#d" transform="matrix(6 0 0 -6 59.459 98.216)"/><use xlink:href="#j" transform="matrix(6 0 0 -6 61.665 98.134)"/><use xlink:href="#t" transform="matrix(6 0 0 -6 62.706 98.134)"/><use xlink:href="#b" transform="matrix(6 0 0 -6 65.673 98.216)"/><use xlink:href="#u" transform="matrix(6 0 0 -6 68.717 98.134)"/><use xlink:href="#g" transform="matrix(6 0 0 -6 73.37 98.216)"/><use xlink:href="#H" transform="matrix(6 0 0 -6 76.206 98.134)"/><use xlink:href="#g" transform="matrix(6 0 0 -6 78.368 98.216)"/><use xlink:href="#b" transform="matrix(6 0 0 -6 81.171 98.216)"/><use xlink:href="#d" transform="matrix(6 0 0 -6 84.458 98.216)"/><use xlink:href="#G" transform="matrix(6 0 0 -6 86.844 98.134)"/><use xlink:href="#x" transform="matrix(6 0 0 -6 88.2 99.429)"/><use xlink:href="#j" transform="matrix(6 0 0 -6 91.665 98.134)"/><use xlink:href="#s" transform="matrix(6 0 0 -6 92.706 98.216)"/><use xlink:href="#f" transform="matrix(6 0 0 -6 97.343 98.134)"/><use xlink:href="#e" transform="matrix(6 0 0 -6 98.726 98.178)"/><use xlink:href="#t" transform="matrix(6 0 0 -6 100.705 98.134)"/><use xlink:href="#j" transform="matrix(6 0 0 -6 103.667 98.134)"/><use xlink:href="#e" transform="matrix(6 0 0 -6 104.728 98.178)"/><use xlink:href="#t" transform="matrix(6 0 0 -6 106.707 98.134)"/><use xlink:href="#c" transform="matrix(6 0 0 -6 109.892 98.216)"/><use xlink:href="#j" transform="matrix(6 0 0 -6 112.17 98.134)"/><use xlink:href="#f" transform="matrix(6 0 0 -6 113.347 98.134)"/><use xlink:href="#h" transform="matrix(6 0 0 -6 114.706 98.134)"/><use xlink:href="#e" transform="matrix(6 0 0 -6 117.73 98.178)"/><use xlink:href="#c" transform="matrix(6 0 0 -6 119.894 98.216)"/><use xlink:href="#h" transform="matrix(6 0 0 -6 122.206 98.134)"/><use xlink:href="#d" transform="matrix(6 0 0 -6 125.464 98.216)"/><use xlink:href="#c" transform="matrix(6 0 0 -6 127.894 98.216)"/><use xlink:href="#B" transform="matrix(6 0 0 -6 130.846 98.216)"/><g data-name="Figure"><path d="M1.595 1.284h169.5v11.5H1.595z" fill="#f5f5f5" fill-rule="evenodd"/><path stroke-miterlimit="8" fill="none" stroke="#767171" d="M1.595 1.284h169.5v11.5H1.595z"/></g><symbol id="ap"><path d="M.472.66v.018h.234V.66H.681a.067.067 0 0 1-.06-.033C.614.617.611.593.611.557V.288A.472.472 0 0 0 .59.133.194.194 0 0 0 .513.04.277.277 0 0 0 .356 0a.297.297 0 0 0-.165.038.204.204 0 0 0-.08.1.561.561 0 0 0-.015.164V.56C.096.6.09.628.08.64.068.653.05.66.025.66H0v.018h.286V.66H.261C.233.66.214.65.202.634.194.622.19.598.19.56V.272C.19.246.192.217.197.184A.19.19 0 0 1 .223.106.14.14 0 0 1 .276.06a.236.236 0 0 1 .202.01.15.15 0 0 1 .07.073c.013.03.019.08.019.15V.56C.567.6.562.628.553.638.541.653.522.66.497.66H.472z"/></symbol><use xlink:href="#E" transform="matrix(10 0 0 -10 43.893 10.292)"/><use xlink:href="#c" transform="matrix(10 0 0 -10 52.598 10.43)"/><use xlink:href="#u" transform="matrix(10 0 0 -10 56.81 10.292)"/><use xlink:href="#c" transform="matrix(10 0 0 -10 64.098 10.43)"/><use xlink:href="#j" transform="matrix(10 0 0 -10 68.227 10.292)"/><use xlink:href="#ap" transform="matrix(10 0 0 -10 71.78 10.449)"/><use xlink:href="#h" transform="matrix(10 0 0 -10 78.286 10.292)"/><use xlink:href="#m" transform="matrix(10 0 0 -10 83.059 10.43)"/><use xlink:href="#c" transform="matrix(10 0 0 -10 88.098 10.43)"/><use xlink:href="#H" transform="matrix(10 0 0 -10 92.29 10.292)"/><use xlink:href="#d" transform="matrix(10 0 0 -10 96.215 10.43)"/><use xlink:href="#e" transform="matrix(10 0 0 -10 99.825 10.366)"/><use xlink:href="#l" transform="matrix(10 0 0 -10 102.584 10.385)"/><use xlink:href="#h" transform="matrix(10 0 0 -10 106.787 10.292)"/><use xlink:href="#m" transform="matrix(10 0 0 -10 111.56 10.43)"/><use xlink:href="#f" transform="matrix(10 0 0 -10 116.521 10.292)"/><use xlink:href="#h" transform="matrix(10 0 0 -10 119.287 10.292)"/><use xlink:href="#ao" transform="matrix(10 0 0 -10 124.026 12.45)"/></svg>